<?xml version="1.0" standalone="no"?>
<!DOCTYPE svg PUBLIC "-//W3C//DTD SVG 1.1//EN" "http://www.w3.org/Graphics/SVG/1.1/DTD/svg11.dtd" >
<svg>
<metadata>
Created by FontForge 20090622 at Sat Oct 22 21:35:17 2016
 By deploy user
Copyright (c) 2016 by Clement Nicolle. All rights reserved.
</metadata>
<defs>
<font id="MarkMyWords" horiz-adv-x="685" >
  <font-face 
    font-family="Mark My Words"
    font-weight="400"
    font-stretch="normal"
    units-per-em="1000"
    panose-1="0 0 0 0 0 0 0 0 0 0"
    ascent="750"
    descent="-250"
    x-height="557"
    cap-height="805"
    bbox="-456 -517.8 1118 1186"
    underline-thickness="50"
    underline-position="-50"
    unicode-range="U+000D-U+2212"
  />
<missing-glyph horiz-adv-x="311" 
 />
    <glyph glyph-name=".notdef" horiz-adv-x="311" 
 />
    <glyph glyph-name="NULL" horiz-adv-x="0" 
 />
    <glyph glyph-name="NULL" horiz-adv-x="0" 
 />
    <glyph glyph-name="nonmarkingreturn" unicode="&#xd;" horiz-adv-x="311" 
 />
    <glyph glyph-name="space" unicode=" " horiz-adv-x="311" 
 />
    <glyph glyph-name="k" unicode="k" horiz-adv-x="511" 
d="M511 338q4 7 15.5 1t23 -16.5t19 -22t4.5 -17.5q-10 -18 -27.5 -46t-41.5 -59.5t-53.5 -63t-63 -57t-70.5 -41.5t-75 -16q-20 0 -44 13.5t-45.5 40.5t-38 67t-22.5 92q-9 -1 -18.5 -1.5t-19.5 -0.5q-9 0 -16 3q-29 -69 -47 -119t-18 -64q0 -17 -7.5 -24t-16.5 -7
q-8 0 -19.5 5t-22 14t-18.5 20.5t-8 23.5q0 4 15 39l39 90l55.5 125l63.5 143.5l63.5 145.5l55.5 131t39 100.5t15 53.5t11 7.5t24 -16t24 -25.5t11 -22q0 -11 -16.5 -53.5l-42.5 -104.5l-59 -137l-66 -151q28 34 61.5 68.5t67 63t66.5 46.5t61 18q13 0 28 -9.5t28 -25.5
t21 -35.5t8 -38.5q0 -29 -24 -66.5t-65 -74.5t-96.5 -67.5t-119.5 -45.5q-2 -21 -2.5 -48t7 -51t24.5 -40.5t50 -16.5q28 0 57 15t57.5 39t54.5 54t48 60.5t39 57.5t27 46zM-30 244q-1 -3 -3 -7q-2 -3 -4.5 -8t-4.5 -10t-5 -11.5l-6 -13.5q-3 -8 -6.5 -15t-6.5 -15l-12 -30
q-3 -7 -5.5 -13.5t-4.5 -12.5l-3.5 -10.5t-3.5 -8.5t-3 -7q1 3 3 7l9 18q2 6 5 12t6 14l6 14.5t7 15.5q3 8 6 15l6 14l5.5 14.5t4.5 12.5zM155 578q-1 -4 -3 -8l-1 -2l1 2l4 8q3 5 6 12t8 15q4 8 8.5 18l9.5 21t9.5 22l9.5 23q5 11 9.5 22.5t9.5 22.5t8.5 21t7.5 19
q4 8 6.5 15.5t4.5 12.5q1 2 1 4t1 4q0 2 1 3q0 -1 -1 -3q-2 -4 -4 -7q-2 -5 -5.5 -12t-7.5 -16l-8.5 -17.5l-9.5 -20.5l-10 -22.5l-10 -22.5l-9.5 -23.5t-9.5 -22.5t-8.5 -21l-6.5 -18q-4 -9 -6.5 -16.5t-4.5 -12.5zM102 391q0 2 2 5q1 2 3 5t4 8q4 8 9.5 20.5t12.5 26.5
l15 32t16 36l16.5 38.5l17.5 39.5l16.5 40l16.5 39l27 69q6 15 10.5 27.5l7.5 21.5q2 5 2.5 8.5t1.5 5.5q1 3 2 5q-1 -2 -2 -5t-5 -13q-4 -9 -9 -21.5t-12 -27.5l-29.5 -68l-33.5 -78l-16.5 -39.5l-16.5 -38.5l-15.5 -36.5l-13.5 -32.5l-11 -27.5t-9 -20.5q-2 -5 -3 -8.5
t-2 -5.5q-1 -3 -2 -5zM369 451q4 6 5 8t2 2l-2 -2q-1 -2 -2 -3.5t-3 -3.5t-4 -5t-5 -6q-2 -3 -5 -6.5t-6 -7.5q-3 -3 -6.5 -7t-7.5 -8l-8 -8t-9 -8q-4 -5 -8.5 -8.5t-9.5 -8.5l-10 -8l-10 -8l-21 -15l-10.5 -6.5l-10.5 -6.5l-21 -11l-18 -9q-9 -5 -16.5 -8l-12.5 -5
q-3 -2 -4.5 -2t-3.5 -1t-3 -1q1 0 3 1q2 0 3.5 0.5l4.5 1.5q3 2 6 2.5t7 2.5t8 3.5l9 3.5t9.5 4t9.5 4q5 3 10 5.5t10 5.5q6 3 11.5 6.5l10.5 6.5l21 15l10 8l10 8q5 5 9.5 8.5t9.5 8.5l8.5 8.5t7.5 8.5q4 4 7 8t7 8l5.5 7.5l4.5 6.5q3 3 4.5 6t3.5 5zM364 563
q-3 -1 -6.5 -1.5t-6.5 -1.5q-8 -2 -14 -5.5t-11 -5.5q-5 -4 -10 -6q1 0 3 1t4 1t4 2l11.5 4.5t13.5 4.5q16 5 25 4q2 0 4 -0.5t4 -0.5q1 -1 2 -1l1 -1l-1 1q-1 0 -2 1q-2 1 -3.5 2t-4.5 2h-6h-7zM153 410q-2 -2 -3 -3.5t-2 -3.5t-2 -3q4 4 8 9t9.5 10t12.5 13q3 4 6.5 7.5
l7.5 7.5q5 4 8.5 8t8.5 9q9 8 18 17t20 17q5 5 9.5 9t9.5 8l10 8t10 7q11 8 20 13l9 5.5t9 4.5q2 2 4 2.5t4 1.5q6 2 8 3q4 2 7 2.5t6 1.5t5 1t4 1h3h-3h-9q-3 -1 -6.5 -1t-7.5 -2q-2 -1 -4 -1t-4 -1q-6 -2 -9 -4q-5 -2 -9.5 -4.5t-9.5 -4.5l-21 -12q-5 -4 -10 -7.5
t-10 -7.5q-5 -5 -10.5 -8.5t-10.5 -8.5t-9.5 -9t-9.5 -8q-5 -5 -9 -9.5t-9 -8.5l-15.5 -17.5t-13.5 -16.5q-7 -8 -11.5 -14zM385 514q-28 0 -63 -23t-69.5 -56t-65.5 -69l-52 -62q33 12 71 31t73 45.5t63.5 59.5t42.5 74z" />
    <glyph glyph-name="y" unicode="y" horiz-adv-x="535" 
d="M535 339q5 9 18 6.5t25 -12t18.5 -24t-0.5 -29.5q-33 -65 -84.5 -137l-108.5 -145.5l-114.5 -146t-103 -138t-72.5 -121.5t-23 -97q1 -16 -13 -12t-31.5 17t-33 28.5t-15.5 23.5q-1 10 6.5 41.5t22 78l34 105.5l43 124.5l49.5 134l53 135.5l-62 -65l-55 -55t-42.5 -38
t-23.5 -14q-15 0 -33.5 10t-36 24t-29.5 30.5t-13 28.5q-2 25 11.5 69t36 95.5t50 105t53 97t46 71t28.5 27.5q10 0 20 -9t18.5 -21t14.5 -23.5t6 -17.5q0 -4 -13.5 -28l-34 -60l-44 -78.5t-43.5 -83t-33 -74t-11 -50.5q4 0 23.5 20.5t48.5 54l65 75.5l72.5 85l70 82
l59.5 67q17 29 30.5 45t22.5 16t23 -8t26.5 -19.5t20 -23.5t3.5 -20q-16 -18 -39.5 -56t-50 -88.5l-55 -109.5t-54 -119t-46.5 -118t-33 -105q32 39 71.5 82.5t82.5 97t88.5 119.5t90.5 150zM-10 296q-2 -5 -3 -8.5t-2 -5.5q-1 -3 -2 -5q1 2 3 5q2 2 3 5t3 8q2 4 4.5 8.5
t4.5 9.5t5 10.5t5 11.5l10 21.5l9 18.5q4 10 8 18q-1 -2 -3 -5q-2 -2 -3.5 -5.5t-3.5 -7.5t-5 -8.5t-5 -9.5t-5 -10.5t-5 -10.5q-3 -5 -5.5 -10.5t-4.5 -10.5l-4 -10t-4 -9zM-29 247q1 2 1 3t1 2q0 1 1 2q0 -1 -1 -2t-3 -5q-2 -3 -4.5 -7.5t-4.5 -10.5q-2 -5 -5 -11.5
l-6 -13.5q-3 -8 -5.5 -15.5t-5.5 -15.5l-2 -8l-2 -8t-2 -7.5t-2 -7.5q-2 -8 -2.5 -15t-1.5 -13v-20l2 -6v-2v2q0 1 -0.5 2.5t-0.5 3.5v8t2 11q1 6 2 13t3 15l3 15q2 4 2.5 8t2.5 8q2 8 5 15.5t5 14.5l5.5 14.5t4.5 12.5l4 10t4 8zM-6 265l9 18l10 21t11 22t11 22l12 22
l12 22q5 11 10 20.5t10 17.5l15 27q4 5 6 10l-2 -2q-1 -2 -2 -3.5t-3 -3.5q-3 -5 -7.5 -11.5t-9.5 -14.5q-10 -14 -23 -37l-12 -21q-3 -5 -6 -11t-6 -11q-6 -11 -11.5 -22.5l-10.5 -22.5q-3 -5 -5 -10.5l-4 -10.5t-4 -9.5t-4 -9.5q-4 -9 -6.5 -16.5t-4.5 -12.5l-1.5 -4.5
t-0.5 -3.5q-1 -2 -1 -3l5 10l5 12t8 16zM141 157l12.5 14.5t11.5 14.5q6 7 11 14t10 12l8.5 10.5t5.5 8.5q3 4 5 8q-2 -3 -6 -7q-3 -3 -6.5 -8t-8.5 -10l-21 -25.5l-25 -29.5l-13.5 -15l-12.5 -14t-12 -13l-11 -11t-9 -9.5t-8 -7.5l-6 -6q1 0 2 1l2 2l3 3q3 2 8 6t10 9
l24 24l12.5 14zM173 185q4 5 9 10l11 11.5l14 14.5l16.5 17t17.5 20v1q2 5 5 10.5t5 11.5l-15 -18l-17 -21l-15 -18l-12.5 -16l-9.5 -12q-2 -3 -4 -4.5t-3 -3.5q-2 -2 -2 -3zM90 -289q3 17 6 25q2 5 3 10q-1 -5 -3 -10t-4.5 -10.5t-4.5 -13.5t-5 -16.5t-6 -18.5l-6 -19.5
t-6 -20.5l-5.5 -21t-5.5 -20q-2 -10 -3.5 -19t-3.5 -17q-3 -15 -3 -26q0 -2 0.5 -3.5t0.5 -3.5l2 -2l-2 2v7q0 5 1 11.5t3 14.5q3 16 9 35q2 10 5 20l6 21t6 20.5t5 19.5q3 10 6 18.5t5 16.5zM171 44q5 13 9 24.5l8 22.5l15 45l-5 -12l-5 -14.5t-7 -18.5l-8.5 -21.5
l-9.5 -24.5t-9.5 -26l-9.5 -27l-9.5 -27l-9.5 -27q-5 -13 -8.5 -24.5t-7.5 -21.5q-4 -11 -6.5 -19.5t-4.5 -14.5q-3 -7 -4 -12q0 1 1 3t1.5 4t2.5 5q4 12 12 33q8 20 17 46l19 54l9.5 27t9.5 26zM412 125q4 6 5 8t2 3l-1 1q-1 -1 -2 -3q-2 -4 -6 -8q-3 -5 -8.5 -11.5
t-11.5 -14.5l-31 -37.5l-36 -42.5l-36 -41l-32 -36q-14 -17 -21 -27q-4 -4 -6 -8q-1 -1 -1 -2t-1 -1h1q1 1 2 3t6 7q2 2 4.5 5t5.5 6t6.5 6t7.5 8q7 8 15.5 16t17.5 18l18 20l19 21l18 21.5t17 21.5q5 5 8.5 10t7.5 10q3 5 6.5 9.5t6.5 9.5q6 8 11 15.5t8 12.5z" />
    <glyph glyph-name="w" unicode="w" 
d="M691 341q5 9 16 3t21.5 -17.5t18 -24.5t5.5 -17q-12 -24 -34 -53.5t-54 -55.5t-74 -43.5t-93 -17.5q-8 0 -23.5 4t-26.5 12q-19 -34 -37 -58.5t-38 -40.5t-43 -24t-52 -8q-21 0 -47 18.5t-46 43.5q-22 -26 -48.5 -44t-57.5 -18q-18 0 -40.5 16.5t-42 40t-32.5 50.5
t-13 48q0 34 12.5 77.5t32 88.5t43 87.5t45.5 75.5t39.5 53.5t25.5 20.5q9 0 19.5 -10.5t19 -24t14.5 -27t6 -19.5q0 -4 -13 -20.5l-33 -43t-43 -61t-43 -73.5t-33 -82t-13 -85q0 -30 19 -30t37 16.5t34 42.5t30 57.5l26 60.5q9 39 19 68.5t21 29.5q10 0 22.5 -9.5
t23.5 -22.5t18.5 -25.5t7.5 -18.5q0 -8 -6.5 -24.5l-15.5 -37.5q-2 -11 -9 -30.5t-19 -43.5q-8 -23 -8.5 -39t12.5 -16q21 0 44.5 18t46 47t43 64.5t37.5 70.5q-1 5 -1 9v9q0 17 7.5 42.5t19.5 53.5t26.5 55.5t28 49.5t24 36t15.5 14q13 0 24.5 -8t20.5 -20t14.5 -25.5
t5.5 -24.5q0 -5 -6 -18.5t-15 -31.5l-20.5 -39.5t-21.5 -43.5q3 -6 3 -13q0 -6 -6.5 -23t-15.5 -38.5l-19.5 -44.5l-18.5 -40q3 -5 11 -5q40 0 74 18.5t59.5 44t43 52t26.5 42.5zM-8 88q2 -2 3 -3.5t2 -3.5t2 -3q0 1 -1 3l-2 4l-2 4l-6 10.5t-7 11.5q-2 5 -6 13q-3 5 -4 11
q-3 4 -3 8q0 1 -0.5 1t-0.5 1v1v-3q0 -2 0.5 -4t0.5 -5q1 -2 1.5 -5t2.5 -7l6 -12q3 -7 7 -12.5zM8 298q2 7 5 13l6 12t5.5 12.5t5.5 11.5q5 12 10.5 23t10.5 20t8 17t6 13q3 6 6 11q-1 0 -2 -2t-5 -8l-7.5 -12.5l-9.5 -16.5l-11 -19.5t-12 -22.5q-6 -11 -12 -24l-6 -12
t-5 -13l-5.5 -13l-5.5 -13l-4 -12.5l-4 -12.5q-2 -7 -3.5 -13t-3.5 -12q-2 -5 -2.5 -11t-1.5 -11q-3 -11 -3 -19q0 -4 -0.5 -7.5t-0.5 -6.5v-13q1 1 1 3v4.5t1 5.5q0 3 0.5 6t1.5 8t1.5 9t2.5 9q1 10 6 22q2 6 3.5 11.5l3.5 12.5q2 6 4.5 12t4.5 13q3 6 5.5 12.5t5.5 12.5z
M138 141q0 1 0.5 2t0.5 2t1 1q-1 0 -1 -1q-1 -1 -1 -1.5t-1 -1.5q-1 -3 -7 -11q-2 -4 -5 -7.5t-6 -7.5t-6.5 -8t-8.5 -8l-7 -7q-3 -2 -8 -7q-10 -7 -16 -9q-2 -2 -3.5 -2t-3.5 -1q-4 -2 -5 -2q-2 0 -2.5 -0.5t-1.5 -0.5h-1h5q2 1 5.5 1.5t7.5 2.5q9 4 16 9l9 6q5 3 8 8
l7.5 7.5t6.5 8.5q4 4 6.5 8l4.5 7q4 7 6 12zM309 110q-3 -4 -8 -9l-3 -3q2 1 4 3t4 3.5t5 3.5q11 9 25 25l11.5 14t9.5 14q2 3 3.5 5t2.5 4l2 4l-3 -3q-2 -2 -3.5 -4.5t-3.5 -4.5l-10.5 -12.5t-11.5 -14.5l-13 -13.5zM407 217q2 6 3 8l1 2l-6 -9q-1 -4 -6 -10q-2 -3 -4 -6.5
t-4 -7.5l-4.5 -7t-5.5 -8q-2 -4 -5 -8t-6 -9t-6 -9t-7 -8q-3 -5 -6.5 -9l-7.5 -9l-7 -8.5t-8 -8.5l-15 -15q-5 -3 -8.5 -6.5t-7.5 -5.5l-7.5 -5.5t-7.5 -4.5q-7 -4 -14 -6q-3 -2 -6 -2.5t-5 -1.5q-4 -1 -8 -1h-3h11q2 0 12 2q7 2 15 5l8 4t8 5q5 2 9 5.5t8 6.5l9 7.5t8 7.5
t7.5 8l7.5 9l7.5 9t6.5 9l7 9t6 9l5.5 9t4.5 9l5 8.5t4 7.5t3.5 7.5t3.5 6.5q3 9 5 11z" />
    <glyph glyph-name="o" unicode="o" horiz-adv-x="430" 
d="M472 423q5 9 16 5t21.5 -13.5t18 -20.5t5.5 -16q-13 -33 -35.5 -75.5t-56.5 -81t-80 -65t-105 -26.5h-9.5t-9.5 1q-21 -28 -43.5 -52t-46 -41.5t-47.5 -27.5t-47 -10q-11 0 -33 10.5t-44.5 30t-39 45.5t-16.5 58q0 26 10.5 58.5t27 65.5t37.5 64t41 55v19q0 29 20 58.5
t49 53t62.5 38.5t59.5 15q13 0 32.5 -13.5t36.5 -38.5t29.5 -60t12.5 -78q0 -37 -14 -81.5t-38 -90.5q33 7 61.5 32t51.5 57.5t41 66.5t32 58zM114 509q-2 -1 -2 -1.5t-1 -1.5l-1 -1q2 1 5 3q2 2 5 3.5t7 4.5q5 2 9 5t9 6q2 2 5 3t5 3q3 2 5.5 2.5t5.5 2.5t11 6q5 2 10 5
q5 2 10 3.5t9 3.5q6 2 8 2q2 1 3.5 1t3.5 1h4q1 0 1 1h-6h-6q-6 0 -9 -1q-2 0 -10 -2q-2 -1 -5 -1.5t-5 -1.5q-6 -2 -11.5 -4.5l-11.5 -5.5l-10.5 -6t-10.5 -7q-9 -6 -16 -13q-9 -7 -11 -10zM105 490q-3 -3 -5.5 -5t-4.5 -4l-3 -3h1l3 3q2 2 4.5 4t5.5 4l6.5 4.5t8.5 5.5
q4 3 7.5 6t8.5 5q5 3 9 6t8 5q5 2 8.5 4.5t7.5 4.5q8 4 11 6l4 2v1q-2 -1 -5 -2t-11 -5l-16.5 -8.5t-17.5 -10.5q-8 -5 -16 -11.5zM94 319q-1 -3 -1.5 -5.5t-1.5 -5.5l7.5 9t7.5 8l7.5 7.5t6.5 7.5l10 10l10 10q-1 -1 -3 -2t-4 -2.5t-4 -3.5q-5 -5 -11.5 -10.5t-14.5 -13.5z
M-19 132q0 3 2 9q0 3 2 9q2 5 3.5 10.5t3.5 10.5q2 10 8 21q2 5 4 9t4 9q2 4 2.5 7t2.5 5q1 3 3 5q-1 -2 -3 -5q-2 -2 -3.5 -5t-3.5 -6q-5 -8 -9 -18q-2 -5 -4.5 -10t-4.5 -10t-3 -11t-3 -11q-2 -6 -2 -10q0 -2 -0.5 -4.5t-0.5 -4.5q-1 -5 -1 -8v-6v-5v1q0 1 0.5 1.5
t0.5 2.5q0 3 0.5 6t1.5 8zM-11 130q1 5 2 9.5t3 9.5q3 10 8 21l6 12q1 4 5 12q3 6 6.5 12t6.5 12l15 24l8 11.5l8 10.5l-3 9l-3 -3l-8 -11.5t-8 -12.5l-15 -24q-4 -7 -7 -13l-6 -12q-2 -4 -3 -7l-2 -6q-2 -3 -2.5 -6t-2.5 -6q-2 -6 -3.5 -11.5t-3.5 -10.5q-1 -4 -3 -10
q0 -2 -0.5 -5t-0.5 -5q-2 -10 -2 -15q-1 -3 -0.5 -5.5t0.5 -4.5v-3v3q1 3 1 10q1 3 1.5 6.5t2.5 8.5zM-4 85q37 0 73 20.5t68 54.5q-29 17 -47.5 41.5t-29.5 52.5q-26 -35 -45 -78t-19 -91zM133 145q3 2 5.5 5t5.5 6q-1 0 -1 0.5t-1 0.5l-11 -11q-5 -4 -8.5 -8t-7.5 -7
q-4 -4 -7.5 -6.5t-5.5 -4.5q-3 -3 -5 -4.5t-4 -3.5t-3 -2l12 9q3 2 6.5 5t7.5 6t8 6.5t9 8.5zM88 289q-2 -32 17 -56.5t67 -31.5q24 32 44.5 68t34.5 71.5t22 68.5t8 59q0 23 -18 23q-29 0 -62.5 -25t-61.5 -61q11 -15 16 -29.5t0 -19.5q-5 -4 -24 -21.5t-43 -45.5zM235 282
q2 4 3.5 7.5t3.5 7.5q4 7 7 13.5l6 13.5q2 7 5 13t5 12q7 24 12 39q2 8 3 10t1 4q0 -2 -1 -4t-2 -4.5t-2 -5.5q-2 -7 -5.5 -17t-8.5 -21q-2 -6 -4.5 -12l-5.5 -13l-6 -13.5t-7 -13.5q-3 -7 -7 -14q-2 -4 -3.5 -7.5t-3.5 -6.5l-9 -14.5t-8 -14.5l-9.5 -13.5l-9.5 -13.5
q-2 -4 -5 -7t-5 -7h4l9 12l9.5 13.5l9.5 13.5l9 14.5t8 14.5l3.5 7zM276 355q2 8 4.5 15.5t4.5 15.5t3.5 15.5t2.5 14.5q2 8 2.5 15t1.5 13v19v8v-2q0 -1 -0.5 -2.5t-0.5 -3.5q0 -3 -0.5 -8t-1.5 -11t-1.5 -12.5t-2.5 -14.5t-3.5 -15t-3.5 -15l-4 -15.5l-4 -15.5
q-2 -7 -4.5 -13.5l-4.5 -11.5l-3.5 -10.5t-3.5 -7.5q-1 -3 -1 -5q0 -1 -1 -2l3 6q2 3 4 7.5t4 10.5q2 5 5 11.5t5 13.5z" />
    <glyph glyph-name="d" unicode="d" horiz-adv-x="545" 
d="M545 339q3 3 11 -3.5t15.5 -18t13.5 -25t6 -22.5q0 -6 -12.5 -28.5t-32 -52.5t-43.5 -63t-48.5 -61t-46 -46.5t-35.5 -18.5q-21 0 -42.5 13.5t-40 34.5t-31 45t-14.5 45q-22 -27 -45.5 -52t-47 -44t-45.5 -30.5t-41 -11.5q-24 0 -48.5 16.5t-45 39.5t-33.5 49t-13 46
q0 40 19.5 86t51.5 91.5t72 87t81 73t79 50.5t65 19q21 0 37 -10t28 -25l51.5 133.5l46 115.5l33.5 83t13 35q0 14 12.5 9.5t27 -17.5t27 -29.5t12.5 -26.5q0 -3 -14.5 -37l-37 -87l-51 -119.5l-56 -135.5t-51 -135t-38 -117t-16 -82.5t15.5 -31.5q12 0 31 18.5t41.5 46
t46 60l43 61l33 49t16.5 23.5zM487 799q2 8 4.5 14.5l4.5 11.5t3 10l-4 -10l-4.5 -11t-5.5 -14l-6.5 -17l-7.5 -19l-7.5 -21t-8.5 -21l-15.5 -41.5l-13.5 -36.5q-3 -8 -5.5 -14l-4.5 -11t-3 -10q1 4 4 9q2 5 5 11t6 14l15 36q4 10 7.5 20.5t8.5 21.5l15 42q4 10 7 19t6 17z
M366 520q-5 -15 -9.5 -27l-7.5 -20l-7 -17l7 17q3 8 8 20l11 26t12.5 31t14.5 35l14.5 36.5l15.5 38.5l30 75l13.5 35l11.5 31t10 26.5l8 20.5q4 10 6 17l-7 -17q-4 -8 -8.5 -20t-10.5 -26t-12.5 -31t-14.5 -35l-30 -75q-8 -19 -15 -38l-14 -37q-8 -18 -14 -35t-12 -31z
M234 513q-3 -2 -6.5 -4t-6.5 -4q-13 -8 -24.5 -16.5t-20.5 -16.5l-13 -13q-2 -2 -2 -2.5t-1 -1.5l-1 -1q1 1 5 4l15 10q5 4 10.5 7t10.5 8q6 4 12 7.5l13 7.5q8 6 13 8q3 2 6 3.5t6 3.5t6.5 3t5.5 3l6 2t5 2q3 2 5.5 2t4.5 1q6 2 8 2t2.5 0.5t1.5 0.5h2h-2q-1 0 -2 0.5
t-3 0.5q-4 0 -7 -1q-3 0 -5.5 -0.5t-5.5 -1.5t-6 -1t-6 -2t-6 -2.5t-7 -2.5q-8 -4 -13 -6zM100 435q-5 -5 -8 -8.5t-5 -5.5l-5 -5q1 2 5 5q2 2 6 5l9 7l10 8t10 9t11 10t13 10q6 5 12 9.5t12 9.5q5 5 10.5 8.5t10.5 7.5q5 3 8.5 6t6.5 5q4 3 6 4l-6 -3l-7 -4.5l-9 -5.5
q-5 -4 -11 -7.5t-11 -8.5l-12.5 -8.5t-12.5 -9.5l-12 -10t-11 -10q-6 -5 -10.5 -9.5t-9.5 -8.5zM-24 271q3 6 6 11t5 10q4 8 8 14l3 6q-1 0 -1 -1q-1 -1 -1 -2t-1 -2q-2 -2 -4.5 -5.5t-5.5 -8.5l-6 -10l-6 -10l-6 -12t-6 -13q-3 -6 -5.5 -12.5t-4.5 -12.5l-3.5 -12.5
t-3.5 -10.5t-2 -9.5t-1 -7.5q-1 -4 -1 -6q0 2 1 6q1 3 2 7t3 9q3 10 8 22.5l10 24.5q3 7 6 13zM-7 103q0 -27 23 -27q36 0 71 23.5t67.5 60.5t61 82.5t52.5 89t41.5 80l27.5 56.5q-4 2 -8.5 3t-10.5 1q-24 0 -57 -18t-69.5 -48t-72 -68.5t-63.5 -79.5t-45.5 -81.5
t-17.5 -73.5zM135 123q0 -1 -1 -1q-1 -1 -2 -1t-2 -1q-2 -2 -5 -4.5t-7 -5.5t-8.5 -6t-9.5 -6q-5 -4 -11 -7t-11 -7q-23 -12 -44 -17q-5 -1 -9 -1.5t-6 -0.5h-6h1q1 0 2 -0.5t3 -0.5h6t9 1q3 1 5.5 1t5.5 1t5.5 1.5t5.5 1.5q3 2 6 2.5t6 2.5l12 6q24 14 39 28q4 3 7 5.5
t5 4.5zM295 346q3 11 6.5 21.5l7.5 21.5l-8 -16.5t-9 -16.5l-19.5 -33.5l-18.5 -32.5l-17.5 -30l-16.5 -27l-14 -22.5l-11 -17.5l-9 -15q1 2 3 4t7 10l12 17l15 22q5 6 9 12.5t9 13.5t9.5 14.5l9.5 15.5l17 29z" />
    <glyph glyph-name="s" unicode="s" horiz-adv-x="454" 
d="M459 337q6 14 17.5 10t22 -16t16 -28t0.5 -27q-20 -41 -53 -88.5t-79.5 -89t-106.5 -69.5t-135 -29q-7 -1 -13.5 -1.5t-13.5 -0.5q-30 0 -50.5 11.5t-33 29.5t-17.5 40t-3 42t6.5 31t9.5 15.5t8.5 4t3.5 -3.5q-2 -29 11.5 -46.5t36 -25t50 -6.5t51 9t40 21.5t18.5 31.5
q1 14 -17.5 23t-47 17l-61.5 17.5t-61 25t-45 39.5t-14 61q3 34 20.5 63.5t43.5 54.5t57 45t62 33.5t57.5 21t43.5 7.5t28.5 -11.5t18.5 -29t9.5 -37t1.5 -34.5t-9 -34t-18 -35.5t-19 -27.5t-12 -11h-14.5t-21 1.5t-19 5.5t-7.5 11t8 21l15 30l15 30t8 21q0 4 -14.5 1
t-36.5 -12.5t-48 -23.5t-48.5 -31t-38.5 -35t-17 -36q0 -3 17 -8l42.5 -12.5t55.5 -19t56 -27t43 -36t17 -46.5q0 -11 -0.5 -20t-1.5 -17q62 41 103.5 96.5t62.5 103.5zM24 384l6 10.5t7 10.5l18 21q10 11 21.5 20.5l23.5 19.5q24 19 49.5 34t45.5 25l19.5 9t14.5 6
q3 2 5.5 2.5t4.5 1.5h3q1 0 1 1h-1q-1 0 -1.5 -0.5t-1.5 -0.5q-2 -1 -10 -3q-7 -2 -15.5 -5.5t-19.5 -8.5l-22.5 -10.5t-23.5 -13.5q-13 -8 -25.5 -16.5t-24.5 -17.5q-24 -18 -45 -41q-5 -5 -9.5 -11l-8.5 -11t-7 -10.5l-6 -10.5q-7 -12 -8 -19l-3 -9q0 -2 -0.5 -3.5
t-0.5 -3.5q-1 -5 -1 -11v-3v3q0 2 0.5 4.5t1.5 6.5q0 4 1 7q1 2 3 8t4 9q2 5 5 10zM36 384l8.5 10.5l9.5 11.5t10 11t9 10q2 3 6 7l3 3q-1 -1 -3 -2t-4 -2.5t-4 -3.5l-20 -20q-11 -13 -16 -24q-4 -6 -5 -8t-1 -3q1 0 1 1l1 2q2 2 2 3q1 1 1.5 2t1.5 2zM216 100q2 1 4 3
q1 1 2 1l-6 -3q-2 -1 -8 -3q-3 -2 -9 -4t-12 -3.5t-13 -3.5q-8 -1 -15 -2t-15 -2h-15q-8 -2 -14 0q-4 0 -7.5 0.5t-6.5 0.5q-3 1 -6 1t-6 1t-5.5 1t-4.5 1q-6 2 -8 3l-6 3l1 -1q1 -1 5 -3q2 -1 3.5 -1.5t3.5 -1.5t5 -1.5t5 -1.5q8 -2 13 -3q3 -1 6.5 -1t6.5 -1h15h15l15.5 2
t14.5 3q4 1 7 2t7 2q8 2 11 4q3 1 5.5 2t4.5 2q3 2 7 4z" />
    <glyph glyph-name="b" unicode="b" horiz-adv-x="540" 
d="M540 338q3 3 12 -0.5t18.5 -11t17 -17t7.5 -17.5q0 -9 -11.5 -34.5t-36.5 -57.5t-63.5 -67.5t-91.5 -64.5t-122.5 -48.5t-155.5 -19.5h-2h-1h-1q-23 0 -41.5 8t-28.5 17.5t-9 17.5t17 8q45 0 96 33.5t94 87.5t71.5 122.5t28.5 139.5q0 17 -4.5 33.5t-18.5 16.5
q-39 0 -78 -23t-74.5 -60t-65 -82t-48.5 -90q-11 -38 -18 -71t-7 -58q0 -29 2 -44.5t4 -24.5t4 -14t2 -13q0 -7 -14 -1t-31.5 24t-31.5 47t-14 69q0 28 12 72.5t31.5 99.5t44 116l50.5 121.5l50.5 117.5l44 102.5t31.5 76.5t12 40q0 14 12.5 9.5t27 -17t27 -29.5t12.5 -27
q0 -3 -12 -28.5l-31.5 -66.5l-44 -94l-50.5 -112q24 16 48.5 25t49.5 9q22 0 48.5 -12.5t48.5 -34t37 -49.5t15 -58q0 -36 -8.5 -73.5t-23.5 -73.5t-35.5 -70t-44.5 -64q33 3 63 19t55.5 38t46.5 47.5t36.5 48.5t26 40t15.5 22zM-11 245q2 6 3.5 11t2.5 9l2 8q-1 -1 -1 -2
q-1 -1 -1 -2.5t-1 -3.5q-2 -3 -3.5 -8t-3.5 -11t-5 -13t-5 -15l-2 -8l-2 -8q-2 -7 -4 -17q-5 -17 -6 -33q-2 -8 -2 -15.5v-14.5q0 -3 0.5 -6t0.5 -6q0 -2 0.5 -4.5t0.5 -4.5t0.5 -3t0.5 -2t1 -2q-1 1 -1 2v5q-1 4 -1 9.5v11.5q1 7 1.5 14t1.5 15l6 33q1 5 2 9l2 8l2 8l2 8
q2 8 4.5 15zM26 376q23 62 53 130l27.5 65.5l27.5 63.5t25.5 59.5l21.5 53.5q21 49 32 81q2 8 4 13l4 10q0 2 0.5 3.5t0.5 2.5t1 2q-1 -4 -3 -8t-4 -9.5l-5 -13.5q-11 -30 -34 -79l-23 -53l-26 -59l-28 -64l-28 -65l-27 -66.5l-26 -64.5l-11.5 -31l-10.5 -29l-9.5 -28.5
t-9.5 -26.5l-7.5 -24.5t-5.5 -22.5q-3 -11 -4.5 -20t-3.5 -17q-2 -10 -2 -14q-1 -3 -1 -5.5v-4.5v-9v9q1 2 1 4.5t1 5.5q0 3 0.5 6t1.5 7q3 18 10 37q2 5 3 10.5t3 11.5l9 24q8 26 19 54.5zM279 547l-2 1q-1 0 -5 2q-2 1 -4.5 1t-5.5 1h-12q-4 -1 -14 -3q-4 -1 -7.5 -2
t-8.5 -2q-4 -2 -7.5 -3.5t-7.5 -3.5q-5 -2 -8.5 -4t-7.5 -4q-14 -9 -29 -20q-3 -2 -6 -4.5t-6 -5.5q-4 -3 -10 -9q-12 -12 -15 -16q-2 -2 -2.5 -3t-1.5 -2l-1 -1l1 1q1 1 2 1.5t3 2.5q4 4 7 6t9 8q3 2 11 8l6.5 4.5t6.5 5.5l6.5 4.5t7.5 4.5l6.5 4.5t7.5 4.5t7.5 4t8.5 4
q4 2 7.5 3.5t7.5 3.5t7 3t7 2q6 2 14 4q3 0 6 0.5t5 0.5h9l6 -2h2zM247 144q3 4 7 10q2 2 3 4l-12 -12l-12 -12.5l-14 -14.5l-14 -14q-3 -3 -6.5 -6t-5.5 -6q-4 -3 -9 -8q-2 -2 -3 -2l-1 -1q1 1 4 3q2 2 4.5 3.5t5.5 3.5t6.5 5t7.5 6l6.5 6.5t7.5 6.5l13.5 15t11.5 13z
M278 203q2 4 4 7t4 7q9 13 15 27q7 13 12 27q3 6 5.5 12.5l4.5 11.5q2 6 3.5 11t3.5 10t3 9t2 7q1 5 3 11q1 2 1 4q0 -2 -1 -4t-2 -4.5t-2 -5.5q-1 -4 -2 -7.5t-3 -8.5l-4 -10.5l-4 -10.5l-4.5 -11.5t-5.5 -12.5l-6 -12.5t-7 -13.5q-6 -14 -15 -27q-2 -4 -4 -7t-4 -7l-9 -13
q-2 -4 -4.5 -7t-4.5 -6q-3 -4 -5.5 -7t-4.5 -6l-10 -12l-10 -12l-10 -10.5l-10 -10.5t-9.5 -9t-9.5 -9q-9 -8 -16.5 -14l-13.5 -11q-4 -3 -8 -7l-3 -3l12 9q3 2 6 4.5t7 6.5l8 6t9 8l10 8t10 9l10 10.5l10 10.5q5 6 10.5 11.5t10.5 12.5q6 8 10 12q2 4 4.5 7t4.5 7z" />
    <glyph glyph-name="c" unicode="c" horiz-adv-x="428" 
d="M428 338q3 4 10.5 -2.5t15 -17t13.5 -22.5t6 -20q0 -9 -16 -33t-43 -55t-63.5 -64t-78.5 -60.5t-86 -45.5t-87 -18q-28 0 -56 18t-50 43.5t-36 54t-14 49.5q0 37 14.5 80.5t38 87t54 84t62.5 72t63 50.5t56 19q22 0 42.5 -13t36 -33t24.5 -44.5t9 -47.5q0 -22 -9 -48.5
t-22 -49.5t-26 -38.5t-21 -15.5q-4 0 -12 4q4 4 7 6q3 4 6 7.5t6 6.5q2 4 4.5 7.5l4.5 6.5t3 5.5t3 4.5l2 4q-1 0 -1 -1q-1 -1 -1 -1.5t-1 -1.5q-1 -2 -3 -4t-4 -5q-2 -4 -10 -12q-3 -4 -6 -7t-6 -7l-3.5 -3.5l-3.5 -3.5q-12 8 -21 22t-9 22q0 7 10.5 23.5t22.5 37.5
t22.5 43t10.5 40q0 4 -1 11.5t-15 7.5q-21 0 -47.5 -17t-53 -45t-51.5 -64t-44.5 -75t-31.5 -78t-12 -72q0 -25 9.5 -42.5t41.5 -17.5q37 0 76 18.5t76 46.5t70 61.5t59 63t43.5 51.5t22.5 27zM300 326l-6 -10.5t-6 -9.5l-10 -15q-3 -4 -4 -5q1 2 4 5l5 5t6 8q8 10 14 20
q4 6 7.5 12t6.5 13t5 13q3 7 5 13q1 3 1.5 6.5t1.5 6.5t1.5 5.5t0.5 5.5q1 4 1 10v7v7v-7q-1 -2 -1 -7q-1 -2 -1 -4.5t-1 -5.5q0 -2 -1 -5l-2 -6l-3 -12q-2 -3 -2.5 -6t-2.5 -7l-6 -12q-6 -15 -13 -25zM20 342q-1 -3 2 2l7.5 12l9 14.5t6.5 9.5q3 5 6 9.5t5 8.5q5 7 9 14
q2 2 3 4.5t2 4.5t2 3q-1 -1 -2 -3t-2.5 -4t-3.5 -4q-5 -6 -10.5 -13.5t-11.5 -17.5q-4 -5 -7 -10t-7 -10zM16 263q3 8 6 15t5 13t4.5 11l4.5 9t3 8q0 -1 -1 -2t-1.5 -2.5t-1.5 -3.5q-2 -3 -4.5 -8l-5.5 -11t-6 -13t-7 -15q-6 -16 -11 -33q-2 -5 -3 -9t-2 -9q-1 -4 -1.5 -8
t-1.5 -9q-2 -10 -2 -16v-15q0 -11 2 -21q0 -2 0.5 -3.5t0.5 -2.5t1 -2q-1 1 -1 2v6q-1 5 -1 21q1 14 3.5 31t7.5 34q2 8 5.5 16.5t6.5 16.5zM326 206q2 2 3.5 4t2.5 4t2 3l-9 -9l-10.5 -11t-13.5 -13q-8 -8 -17 -16t-19 -16q-5 -5 -10.5 -8.5t-11.5 -8.5l-10.5 -8l-11.5 -8
q-10 -8 -23 -15q-6 -4 -12 -7.5t-12 -6.5q-11 -6 -23 -10q-2 -2 -5 -2.5t-5 -2.5q-3 -1 -5.5 -1.5t-5.5 -1.5q-11 -4 -18 -5q-5 -2 -8.5 -2t-6.5 -1t-5.5 -1h-4.5h-3h4h9h7t8 1q5 1 9.5 1.5t9.5 2.5q5 0 11 3q8 2 11 3q3 2 6 2.5t6 2.5q4 1 12 5l12 6t12 7q13 7 24 15
q24 16 44 35q10 9 18.5 17.5l16.5 16.5t13 14z" />
    <glyph glyph-name="e" unicode="e" horiz-adv-x="392" 
d="M422 338q12 -6 21 -19t9 -30q0 -10 -12 -35.5t-33.5 -57.5t-51.5 -66.5t-66 -63.5t-76.5 -47.5t-83.5 -18.5q-29 0 -59 19t-54.5 48.5t-40 66.5t-15.5 73q0 34 11.5 73.5t31.5 78t46 74.5t55 63t58.5 43.5t57.5 16.5q36 0 57.5 -16.5t32.5 -37t12.5 -37t-2.5 -16.5t-6 1
q1 -4 1 -14q0 -31 -14.5 -65.5t-39 -63t-56.5 -47t-68 -18.5q-26 0 -44.5 9t-31.5 21q-22 -55 -22 -102q0 -17 2 -34.5t7 -31.5t14.5 -23.5t24.5 -9.5q44 0 83 17.5t71.5 44.5t58 59t44.5 61.5t30 51t15 28.5q9 15 28 7zM240 404q-1 -1 -1 -2q-1 -1 -1 -2.5t-1 -3.5l-4.5 -9
t-6.5 -12q-2 -4 -8 -12q-4 -6 -10 -14q-3 -3 -6 -6.5t-6 -6.5q-4 -3 -7 -6.5t-7 -5.5l-7 -6q-2 -2 -4 -2.5t-4 -2.5q-8 -5 -16 -8q-4 -2 -8 -3t-8 -3q-8 -3 -15 -3l-12 -3h-10q-3 -1 -7 -1h-2h9h10q3 0 6 0.5t7 0.5q3 1 7 1.5t8 1.5q4 2 8 3t8 3q5 2 8.5 4t8.5 4q2 2 4 2.5
t4 2.5l7 6q5 2 8 5.5t7 6.5q3 4 6 7t6 7q2 4 5 7t5 7l3.5 7t3.5 6q4 7 5.5 12t3.5 9zM95 301q41 0 69 18t46 44.5t28 56.5t16 54q-3 0 -6 0.5t-6 0.5q-19 0 -41.5 -14t-45 -38t-43.5 -55t-37 -64q7 -3 20 -3zM50 419q-2 -3 -3 -5l-2 -4t-2 -3q1 1 2 3t2.5 3.5t3.5 4.5
q5 5 11 12.5t14 15.5q4 5 8 9l9 9t10 9.5t10 9.5t11 9.5t12 9.5t12.5 8.5t12.5 7.5q14 8 28 12q12 5 28 7h13.5t13.5 -2q2 0 3 -0.5t3 -0.5q2 -1 3 -1t3 -1t3 -1t3 -1q2 -2 5 -2q9 -4 18 -11q4 -2 7 -5t6 -5q2 -2 3.5 -4t3.5 -3q2 -2 3 -2q-1 1 -2 3q-4 4 -7 8
q-2 2 -5.5 4.5t-6.5 6.5q-5 2 -9 5.5t-9 6.5q-2 0 -6 2q-1 1 -5 3q-1 0 -7 2q-2 1 -3 1t-3 1q-15 3 -29 2l-14.5 -2t-15.5 -4q-14 -4 -28 -12q-8 -4 -14 -8l-13 -9l-11.5 -10l-11.5 -10q-11 -10 -19.5 -20l-16.5 -19t-13 -17t-9 -13zM25 366q3 4 5.5 8t5.5 8q2 4 5 7.5
t5 7.5l9 12l9 10.5t6 8.5q2 2 2.5 3t1.5 2l2 2l-2 -2q-1 -1 -1.5 -2t-2.5 -3q-3 -3 -7 -7.5t-9 -9.5q-2 -3 -5 -6t-5 -7q-3 -3 -5.5 -6.5l-5.5 -7.5t-5.5 -8t-5.5 -8q-4 -8 -10 -17q-2 -5 -4 -9t-4 -9t-4 -9t-4 -9q-2 -4 -3 -8t-3 -8q-2 -10 -4 -16q-2 -8 -3 -13.5t-1 -10.5
q-1 -5 0 -9v3q0 3 1 6q1 2 1 5t1 5q1 4 3 14q2 3 2.5 6.5t2.5 8.5q2 4 3 8t3 8q2 5 4 9t4 9q2 4 4.5 8t4.5 9t4.5 9t4.5 8zM230 86q5 3 9 6t7 5q4 3 6 5q-2 -2 -6 -5q-3 -2 -7.5 -4.5l-9.5 -5.5q-5 -2 -11.5 -5.5t-13.5 -5.5q-4 -2 -7.5 -3t-7.5 -3t-7.5 -3t-8.5 -2
q-4 -2 -7.5 -2.5t-7.5 -2.5q-4 -1 -8 -1.5t-8 -1.5q-10 -2 -14 -3q-4 0 -7 -0.5t-6 -0.5q-4 -1 -11 -1q-4 -1 -9 -1q-2 0 -3.5 -0.5t-2.5 -0.5h-2h8h9q7 0 11 1q8 0 13 1q5 0 15 2q4 1 7.5 1.5t8.5 1.5q4 1 7.5 1.5t8.5 2.5q4 2 7.5 2.5t7.5 2.5l15 6q7 4 13.5 7t11.5 7z
" />
    <glyph glyph-name="f" unicode="f" horiz-adv-x="271" 
d="M343 299q0 -8 -7 -25.5t-21 -39.5t-34 -46t-47 -45t-59.5 -37.5t-70.5 -22.5q0 -5 0.5 -10t0.5 -10q0 -105 -14 -186.5t-34 -137t-42.5 -84.5t-38.5 -29q-17 0 -38 11t-40 30t-32 44.5t-13 54.5q0 57 14.5 132.5t38 160t53.5 174.5t61.5 175.5l62 163.5l54 138.5l38 100
t14.5 48.5q0 15 12 11.5t27 -16.5t27 -30t12 -27q0 -6 -20.5 -56.5l-52 -129.5l-69.5 -178.5t-73 -203.5q14 2 26.5 -12t19.5 -56q48 13 79.5 39.5t52 54.5t30.5 51.5t14 30.5q3 4 14 0.5t23 -10t22 -15t10 -13.5zM193 680q-2 -5 -3 -9.5t-2 -7.5q-1 -4 -2 -7l3 6q2 3 4 7.5
t4 9.5l11 23l12 27t11 27l9 24q4 10 6 17q0 2 0.5 3t0.5 2t1 2l-3 -6l-4.5 -7t-4.5 -9q-5 -11 -11.5 -23.5t-11.5 -26.5q-13 -30 -20 -52zM71 326q-2 -5 -3 -9t-2 -6q-1 -3 -1 -5q1 2 2 5q1 2 2 6t3 9q8 18 21 53l30.5 74.5l34.5 86.5l16.5 44l16.5 42l15.5 40t13.5 36
q7 17 11.5 30t8.5 23l3.5 9t2.5 6q1 3 2 5q-1 -2 -3 -5q-3 -4 -6 -14q-5 -10 -10.5 -23l-12.5 -30l-15 -35.5l-16 -38.5l-17 -42.5l-18 -43.5l-33 -87l-15 -39l-13 -36t-10.5 -31zM28 155q-2 -4 -2 -5h3q-1 2 -1 5zM-95 -58q1 5 1 8.5t1 6.5q0 4 1 6l-5 -20q-2 -5 -2.5 -10
t-2.5 -10l-2 -12t-3 -12l-3 -24q-3 -11 -3 -20q-1 -5 -1.5 -8.5t-0.5 -6.5v-6q0 1 1 5q1 2 1 6t2 9q1 5 1.5 10t2.5 11q1 5 2 11l2 12q2 6 2.5 12t1.5 12q2 5 2.5 10t1.5 10zM-88 29q0 3 0.5 5.5t0.5 4.5t1 4q0 -2 -1 -4t-3 -10l-4.5 -16.5l-5.5 -20.5l-6.5 -25.5
t-6.5 -27.5q-4 -15 -7 -30.5l-6 -31.5l-2 -16t-3 -16q-1 -8 -1.5 -15.5t-1.5 -15.5t-1.5 -14.5t-0.5 -14.5v-13.5t1 -12.5q0 -3 0.5 -6t0.5 -5q1 -3 1.5 -5.5t1.5 -5.5q0 -4 2 -8q2 -6 3 -8q2 -4 3 -5q1 -2 3 -4q0 -1 1 -2q0 -1 1 -1q-1 0 -1 1l-1 2q-1 1 -1 2t-1 2
q-2 4 -2 6q-2 4 -3 7q0 3 -2 9q-1 5 -1 10.5t-1 11.5v11.5t1 13.5q0 14 3 29q0 5 2 15q0 5 2 15l2 16t3 16l6 31.5t6 29.5q2 15 5 28.5t5 25.5t4 21.5t4 16.5zM-55 -283q8 0 18 19t20 49.5t19 69.5t16.5 78.5t11.5 76.5t4 65v1h-6q-7 0 -13 1t-11 3q-27 -94 -44.5 -177
t-17.5 -144v-20.5t1 -12.5t2 -9z" />
    <glyph glyph-name="g" unicode="g" horiz-adv-x="517" 
d="M507 322q10 19 23 17.5t24 -13t17.5 -26.5t2.5 -22q-21 -44 -58.5 -87.5t-83.5 -86t-97.5 -84.5l-102.5 -81q-29 -62 -59.5 -121t-61 -104.5t-60 -73t-55.5 -27.5q-13 0 -31 10.5t-34 26.5t-27.5 36t-11.5 39q0 23 19 47.5t52 51t76.5 56.5l93.5 65l39 97.5l36 97.5
q-24 -27 -49 -52.5t-49 -45t-46.5 -31t-40.5 -11.5q-16 0 -34.5 10t-34.5 26.5t-26.5 38t-10.5 45.5q0 41 18 89.5t47.5 97t67.5 94t78 80.5t79 56t71 21q37 0 63.5 -21t41.5 -46.5t20 -46.5t-1 -21t-10.5 9t-13 20t-22.5 20t-39 9q-37 0 -75.5 -20t-75 -53t-69 -75.5
t-56.5 -87t-38 -88t-14 -77.5q17 0 42.5 17t55 43t60 58l58 62l49.5 54.5t34 36.5q11 25 14 25q8 0 19.5 -9t22.5 -22t18.5 -26t7.5 -21q0 -3 -6.5 -23l-17.5 -52t-27 -73.5l-35 -87.5q63 54 120.5 118t102.5 142zM-43 225q-1 -2 -1 -4v-1v1q0 2 1 4q2 6 6 14q10 20 27 47
q17 28 42 62.5t55 67.5q8 8 15 16t15 16l15.5 15l15.5 14l8.5 7t7.5 6l8 6l8 6l15 9.5l15 9.5q10 4 14 6q10 4 14 6q6 2 11.5 3.5t10.5 2.5t9 1t6 1h5h-5h-6t-9 -2q-8 0 -23 -5q-6 -2 -13 -5q-4 -2 -7.5 -3.5t-7.5 -3.5q-13 -6 -31 -18q-9 -5 -16 -11q-4 -3 -8 -6.5t-8 -6.5
l-16 -14t-16 -15t-15 -16t-15 -16t-14.5 -17t-14.5 -17q-7 -9 -13 -17.5l-12 -17.5q-13 -17 -23.5 -33t-18.5 -30q-9 -14 -15 -26.5l-10 -21.5q-5 -10 -6 -14zM-21 240q2 5 4.5 9.5l5.5 9.5q5 10 11 19q5 10 11 19l12 18q6 8 11 16t10 15l9 12.5l7 9.5l6 9l-2 -2
q-1 -1 -2 -2.5t-3 -3.5l-7 -9t-9 -12l-11 -15l-12 -16l-12 -18t-12 -19q-5 -10 -11 -19q-2 -5 -4.5 -9.5t-4.5 -9.5q-5 -10 -8.5 -19l-6.5 -17t-4.5 -14.5t-3.5 -11.5q-2 -6 -2 -7v-2l3 9q2 5 4 11t5 14t7 17t9 18zM-10 167q-1 -3 -1 -6v-2q0 1 1 2q0 1 2 5q1 4 3 8.5t4 9.5
q2 6 5 12t6 14q3 7 6.5 13.5t6.5 14.5q4 7 7.5 14t7.5 14q3 7 6.5 13l6.5 11t5 9.5t4 7.5q1 2 3 4q1 1 1 2l-5 -5q-2 -3 -5 -7l-7 -9q-16 -20 -31 -51q-2 -4 -3 -7t-3 -7t-3 -7.5t-3 -7.5t-3 -7t-2 -7q-2 -4 -4 -12q-2 -6 -3 -11t-2 -8zM-29 -317q21 0 48 36.5t56 95.5
q-47 -40 -75.5 -73t-28.5 -59zM193 147l12.5 13l13.5 15l3 3l6 18l-7 -8.5l-7 -8.5l-24 -30l-9.5 -11.5t-7.5 -9.5q-2 -2 -3 -3.5t-2 -2.5l-2 -2l2 2q3 3 6 5q3 4 8 8.5t11 11.5zM204 -99q5 11 11 22l-12 -9q-2 -3 -3 -5.5t-3 -5.5l-13.5 -28.5t-11.5 -25.5l-10.5 -21.5
t-8.5 -16.5l-3 -6l-2 -4l-2 -4v1l2 2q1 2 2.5 4.5t3.5 5.5q5 7 10 16.5t12 20.5l13 25.5zM241 206q3 9 5 17t4 13q2 6 3 12q-7 -19 -14 -41l-14 -43l-16 -49q-5 -13 -8.5 -25.5t-8.5 -23.5l-7.5 -22.5t-7.5 -20.5q-4 -9 -6.5 -16.5t-4.5 -12.5q-2 -3 -2.5 -5t-1.5 -4t-1 -3
q0 1 1 3l4 8q2 5 5.5 12.5t7.5 17.5q4 9 8 19.5t8 22.5q10 24 17 49q5 12 8.5 24.5t7.5 24.5l7.5 22.5t5.5 20.5zM262 41q2 2 5 4.5t5 4.5q4 8 7 15.5l6 14.5l8.5 22.5l6.5 17.5l5 15q-3 -7 -7 -15q-3 -7 -7.5 -16.5t-9.5 -21.5q-5 -9 -9.5 -19.5z" />
    <glyph glyph-name="h" unicode="h" horiz-adv-x="519" 
d="M526 351q3 4 14.5 0t23.5 -14t18.5 -24t-0.5 -30q-10 -20 -28.5 -48.5t-42 -60t-50 -63t-53.5 -56t-52.5 -40t-45.5 -15.5q-13 0 -27 6t-26 18t-20 30t-8 42q0 16 9 43t23 59.5l29.5 67l29.5 66t23 56.5t9 39q-97 -103 -172 -196l-125 -154q0 -2 -5 -5q-27 -34 -45.5 -53
t-26.5 -19q-11 0 -21 5t-17.5 13t-13 16.5t-6.5 16.5v5q0 26 13 75.5t34.5 112l48.5 134.5l55.5 143l56 136.5l49 116.5l34.5 82.5t13 33.5q0 14 12 9.5t27 -17.5t27 -29.5t12 -26.5q0 -3 -12.5 -31.5l-32 -74l-45 -104l-51.5 -121l-51 -125t-43 -116.5l53 61.5l59.5 67.5
l61 65.5t57 56t48 39t33.5 14.5q9 0 20.5 -6.5t22.5 -19.5t18.5 -32.5t7.5 -46.5q0 -13 -10 -41t-25 -64l-32.5 -76l-32.5 -75.5t-25 -62.5t-10 -38q14 0 41.5 25t59 63.5t62 83t50.5 83.5zM-24 237l3.5 14t3.5 11l3 9l-3 -9q-2 -5 -4.5 -10.5t-4.5 -13.5t-5.5 -16.5
t-6.5 -17.5l-6 -19.5t-7 -20.5q-3 -10 -5.5 -20t-5.5 -20q-2 -10 -4 -19t-3 -17q-2 -10 -2 -14q-1 -4 -1 -11q0 -2 0.5 -4t0.5 -3v-3v3v7q0 2 0.5 5t0.5 6q1 4 3 14l4 16.5t4 18.5l6 19.5t6 20.5l6 20l6 20l6 17.5t5 16.5zM215 700q-3 -7 -4.5 -11.5t-3.5 -8.5t-3 -8
q2 3 4 7q4 10 9 20l6 12.5l7 14.5t7.5 16t7.5 16t7 16t7 16q3 8 6 15t6 13q2 6 3.5 11t3.5 9t3 8l-40 -86q-5 -15 -14 -32q-3 -8 -6 -15t-6 -13zM136 486q-2 -4 -3 -6.5t-2 -4.5q-1 -3 -1 -4q3 7 7 15q3 7 8 16.5t11 22.5q5 12 11.5 25.5l13.5 29.5l14 31l14 32
q8 17 14.5 33t13.5 31q7 16 12.5 30l10.5 26t8.5 22l6.5 18q4 9 6 16q-1 -1 -2 -4t-5 -11q-3 -7 -8 -17t-10 -22t-11.5 -26l-13.5 -29l-14 -31l-15 -33l-13.5 -32l-13.5 -32q-7 -15 -12.5 -29l-10.5 -27l-9 -22zM51 234q3 11 6.5 21.5t6.5 20.5l5.5 18.5t4.5 14.5q1 3 1 5
t1 4q0 2 1 4l-5 -12l-5 -14.5t-7 -18.5t-8 -21.5t-9 -24.5q-1 -3 -2 -5.5t-2 -5.5q3 3 6 6.5t6 7.5zM335 521q8 7 17 12.5t18 8.5q5 1 9.5 1.5t9.5 -1.5q7 -3 14 -8q6 -5 10 -10.5l7 -9.5q1 -3 4 -6q1 -1 1 -2l-1 2q-3 2 -4 7q-1 2 -2.5 4.5t-3.5 4.5q-3 7 -9 11
q-8 8 -16 10q-10 3 -19 0q-11 -3 -20 -8.5t-17 -12.5l-15.5 -14l-15.5 -15l-13.5 -14l-11.5 -12q-6 -6 -10.5 -11t-7.5 -9l-7 -7l7 7q4 3 8.5 7.5l10.5 10.5l12.5 12t13.5 14l15.5 14zM308 254l-3 -6q-2 -3 -4.5 -8t-4.5 -10t-5 -11t-6 -14q-4 -7 -7 -14t-6 -15t-6 -15
t-5 -14l-3.5 -14.5t-3.5 -12.5t-2 -11t-1 -8v-8v2q0 3 1 6t1.5 8t2.5 11q2 5 4 11.5t4 14.5l6 14t6 15t6 15l6 14q2 7 5 13.5t5 11.5zM310 280l8 21t9 20q4 10 7 19t6 17t5 14.5t4 11.5q1 2 1 3.5t1 3.5q0 2 1 3q-1 0 -1 -2q-1 -2 -1 -4t-1 -4l-4.5 -11t-6.5 -14
q-6 -16 -14.5 -36l-17.5 -40q-5 -11 -9 -21l-8 -20q-5 -10 -8.5 -19l-6.5 -17t-5.5 -14l-4.5 -11q-3 -5 -4 -10q2 4 5 9l4.5 11t6.5 14t7.5 17t8.5 18q5 10 9 20t9 21z" />
    <glyph glyph-name="i" unicode="i" horiz-adv-x="241" 
d="M169 571q-5 0 -12.5 7t-15 16.5t-12.5 19.5t-6 15q0 6 7 27.5t17.5 45t22 42.5t18.5 19q8 0 19.5 -11t21.5 -24.5t17.5 -26t7.5 -16.5t-11 -22t-26 -38.5t-29 -37t-19 -16.5zM240 343q3 5 12 2.5t18.5 -11t17.5 -22.5t8 -30q0 -11 -10.5 -36t-29 -56.5t-43.5 -65
t-54.5 -61t-61.5 -45.5t-64 -18q-10 0 -28.5 8t-37 22t-32.5 31.5t-14 37.5q0 22 11 62t28.5 87l37.5 96l37.5 89t30.5 66.5t15 29.5q6 7 17.5 0t22.5 -20.5t19 -29t8 -26.5q0 -4 -11.5 -32.5l-28.5 -68l-36 -84.5l-34 -83t-22.5 -63t-0.5 -25q39 0 73 26.5t62.5 64.5
t51.5 80.5t38 74.5zM-60 143q2 7 6 17l7 19l9 25q2 7 5 14.5t5 15.5l6 16t7 16q6 17 13 35t15 36l14 36l14 35q4 8 5.5 12t2.5 7t2 6.5t4 10.5q6 14 10 25l7 19q2 4 3 7t2 5q1 3 2 5h-1l-8 -16q-4 -8 -8.5 -19t-10.5 -24l-21.5 -48.5t-23.5 -57.5q-15 -36 -27.5 -71
t-21.5 -64l-7.5 -25.5t-5.5 -19.5q-2 -5 -2 -8t-1 -5q-1 -3 -1 -4zM-13 238l3.5 12t3.5 10q2 4 3 9q-1 -4 -3 -8t-4.5 -9.5t-4.5 -12.5q-6 -14 -12 -30l-12 -36l-6 -18t-5 -18l-4 -16t-3 -16q-2 -7 -2 -12.5v-10.5q0 -4 2 -6q0 -1 1 -2q-1 1 -1 2q-1 1 -1 6q0 9 3 23
q2 7 4 15l4 16l12 36q2 9 5 18t6 17q3 9 6 16.5t5 14.5zM163 140q3 3 6.5 7l7.5 9t7 10t7 10t7 10l6 10l6 10t5 9t3.5 8t3.5 6q1 3 2 5q-1 -2 -3 -5q-2 -2 -4 -5.5t-4 -7.5q-6 -8 -12 -18l-6 -10t-7 -10t-7 -10t-7 -10q-3 -5 -6.5 -9t-6.5 -8l-9 -12q-2 -3 -4 -4l4 4
q5 3 11 11zM243 248l3.5 9t3.5 7l3 6l-3 -6l-4.5 -6.5t-4.5 -8.5t-5.5 -10.5t-6.5 -11.5t-6.5 -12l-7.5 -13l-15 -24q-3 -6 -6.5 -11t-6.5 -10t-5.5 -8.5t-4.5 -5.5q-1 -2 -3 -4l-1 -1l1 1q1 1 1.5 1t2.5 2q2 3 5 6t6 8t6.5 10t7.5 10l15 24l7.5 13t6.5 12l6 12t5 11z" />
    <glyph glyph-name="j" unicode="j" horiz-adv-x="207" 
d="M215 788q8 0 20 -10.5t22.5 -24t18 -26t7.5 -16.5t-13 -22.5t-29.5 -39t-32 -37t-20.5 -16.5t-13.5 7t-16.5 17t-13.5 19.5t-5.5 15.5q0 5 9 26.5t21.5 45t25.5 42.5t20 19zM78 551q10 10 22.5 4t23.5 -19.5t19 -30t8 -26.5q0 -4 -13.5 -43l-36.5 -101l-54 -140
l-66 -158.5t-73 -157.5t-74.5 -137.5t-70 -97t-60.5 -36.5q-42 0 -72 12.5t-49.5 34t-28.5 49.5t-9 60q0 17 3 34.5t15 29.5q6 6 16 4t20 -8t17.5 -14.5t7.5 -14.5q0 -12 -1 -33t0 -42t6.5 -36t18.5 -15q25 0 56.5 37.5t65.5 98.5t69.5 139t68.5 160l63 161l53 141.5
l37.5 102t17.5 42.5zM-309 -328q4 4 8 7.5t8 8.5q5 5 8.5 10t8.5 11l15 21l6 10t6 9l10 20q-1 -2 -3 -5q-2 -2 -4.5 -5.5t-4.5 -7.5q-3 -5 -6 -9.5t-7 -9.5l-15 -21q-8 -11 -16 -20.5t-15 -16.5q-9 -9 -12 -11q-2 -2 -2.5 -2t-1.5 -1l-1 -1l2 1l4 2q6 4 12 10zM-113 -11
l12.5 30l12.5 30l12 30.5t11 29.5q12 29 22 55.5l18 49.5q9 23 15.5 42l11.5 33q4 12 8 22q2 4 2 7q-5 -12 -11 -28q-5 -14 -13 -32.5t-17 -41.5l-19.5 -49.5l-22.5 -55.5l-12 -29l-12 -30l-12.5 -30l-13.5 -30l-12.5 -30.5t-13.5 -29.5q-12 -30 -26 -58l-13.5 -27.5
l-12.5 -26.5q-7 -13 -12.5 -24.5t-12.5 -22.5q-3 -5 -5.5 -10.5t-5.5 -10.5t-6 -9t-5 -9q-5 -9 -10 -16l-9 -13t-8 -10t-6 -7q-2 -2 -2.5 -3t-1.5 -2t-1 -2l6 6q2 4 6 7q2 2 4 4.5t4 5.5q5 6 10 13t10 16l6 8t6 9l12 21q7 11 13 22.5l13 24.5q7 12 13.5 25.5l13.5 27.5
t13.5 28.5l13.5 29.5q7 14 13.5 29.5t13.5 30.5zM55 401q2 4 2.5 7t1.5 5q1 3 2 4q-11 -28 -22 -59l-22 -59.5l-25 -68.5l-25 -69l-22 -61q-5 -14 -9 -24t-6 -18q-4 -9 -5 -16q2 7 6 16l7 18t9 24l11 28l12 31l12.5 34.5t13.5 34.5q6 18 12.5 35l12.5 34q5 17 10 32l10 29
l8.5 24.5t5.5 18.5z" />
    <glyph glyph-name="l" unicode="l" horiz-adv-x="268" 
d="M268 340q3 5 14 -1t22.5 -17.5t19 -24t3.5 -20.5l-39.5 -81.5t-52.5 -91t-68 -74t-86 -30.5q-18 0 -42 10t-45 28t-36 42t-15 53t12.5 76.5t33 105.5t46.5 122l53.5 127l53.5 120.5l46.5 102l33 72t12.5 29.5q0 12 10 12q3 0 13.5 -6.5t22 -17t21 -24t9.5 -26.5
q0 -7 -12.5 -35l-32.5 -71.5l-46 -98.5l-52.5 -114.5l-52.5 -120.5t-46 -116.5t-32.5 -101.5t-12.5 -76q0 -20 23 -20t45.5 13.5t43.5 36t40 51t36 58.5t31.5 58.5zM218 762q4 9 7 16.5l5 12.5q3 6 5 12q-2 -5 -5 -11q-2 -5 -6 -12.5t-8 -16.5l-10 -20.5l-10 -21.5t-11 -23
t-11 -25q-12 -24 -21 -48q-5 -11 -9.5 -22l-8.5 -20q-4 -10 -6.5 -17.5l-4.5 -13.5l-4 -8q-1 -2 -1 -3q2 5 5 11q2 5 5.5 12.5t7.5 17.5q5 9 9.5 20t9.5 22l21 48l11.5 24l10.5 24l9.5 21.5t9.5 20.5zM-3 269q-2 -7 -4 -11.5t-3 -8.5q-2 -4 -2 -7q5 12 10 27l11.5 30
l14.5 39q5 11 9 22.5t9 23.5l10 24.5t10 26.5l22.5 55l23.5 56l24 56.5l24 53.5l23 50l20 45l17.5 38l12.5 29l11 26q-5 -11 -12 -25l-14.5 -29l-18.5 -37l-21.5 -44.5l-23.5 -49.5l-24.5 -53.5l-24.5 -56.5l-23 -57l-22 -54l-9.5 -26.5l-9.5 -25.5t-9 -24.5l-8 -22.5
q-8 -22 -13.5 -39.5zM17 131q1 4 1.5 8t2.5 9q2 11 6 23l4 12.5t4 14.5q2 7 4.5 14l5.5 15q5 15 11 31l12 32l24 63l11.5 28.5l10.5 25.5l9 21.5l7 16.5q4 8 6 15l-2 -4q-1 -2 -1.5 -4.5t-2.5 -5.5q-6 -12 -18 -38l-11 -25.5t-12 -28.5l-12.5 -30.5t-12.5 -31.5l-12 -32.5
t-11 -31.5q-2 -8 -4.5 -15t-4.5 -14l-3.5 -14.5t-3.5 -12.5q-2 -7 -3 -12.5t-3 -10.5q-1 -5 -1.5 -9.5t-0.5 -8.5q-1 -5 -1 -12v-4v4q0 7 1 12z" />
    <glyph glyph-name="n" unicode="n" horiz-adv-x="443" 
d="M441 340q4 7 15 1t22.5 -17t18.5 -24t4 -20q-19 -38 -50 -86.5t-68.5 -91.5t-79 -72.5t-80.5 -29.5q-14 0 -30.5 10.5t-30.5 25t-24 30.5t-10 28q0 24 13.5 59t34 76l43.5 85.5t41 86.5q-79 -79 -136.5 -151t-96 -127.5t-59 -88.5t-25.5 -33q-6 0 -16 6.5t-19.5 17
t-16.5 23.5t-7 26q0 8 15.5 45.5t39 89l50.5 110.5l50.5 111t39 89.5t15.5 47.5q0 2 1 4q2 5 8 5q8 0 18.5 -5t20.5 -13t16.5 -19.5t6.5 -23.5q0 -6 -6 -25t-16.5 -45.5l-23.5 -58l-27 -64.5l64.5 75.5l62.5 71.5l51 56t30 28q1 0 1.5 0.5t1.5 0.5t2 -1q3 0 4 -1
q6 -3 15.5 -10.5t18.5 -19t15.5 -27.5t6.5 -36q0 -15 -11 -43.5t-27 -63l-35.5 -73t-35.5 -73.5t-27 -63.5t-11 -43.5q24 0 52.5 20t58 54t58.5 77t54 90zM48 282q5 10 9 20t9 20q5 11 9 21t9 20l7.5 19l6.5 17t5.5 14l4.5 11q1 2 1 3.5t1 3.5q0 2 1 3l-48 -110l-17.5 -40.5
l-15.5 -35.5q-4 -8 -6.5 -14l-4.5 -11q-3 -5 -4 -9q2 4 5 9l12 24q4 8 7.5 16.5t8.5 18.5zM82 333q0 1 1 2t1 2.5t2 3.5q5 8 11 22q4 7 7.5 15t7.5 16l8 18t8 19q4 9 7 18.5l6 18.5t5.5 17.5l4.5 15.5q3 15 3 25v4q0 2 -1 3t-1 2l1 -2v-3v-4q-1 -2 -1 -4.5t-1 -5.5
q-2 -3 -2.5 -6.5t-1.5 -6.5q-2 -8 -5.5 -16t-6.5 -17q-4 -8 -7.5 -17.5t-7.5 -18.5l-7.5 -19t-6.5 -18q-4 -9 -7 -17t-6 -15q-2 -8 -4 -13.5t-4 -9.5zM265 372q-11 -24 -27 -54l-7.5 -15t-6.5 -15q-4 -7 -6.5 -13.5t-5.5 -12.5q-2 -6 -4 -10.5t-3 -8.5q-2 -4 -2 -7q1 3 3 7
q2 3 3.5 7.5t4.5 10.5q6 11 12.5 25.5t14.5 29.5l7.5 15t6.5 14l7 14.5t5 11.5l4 10t4 9t3 7q-2 -3 -4 -7q-2 -3 -4 -8t-5 -10zM162 169q5 9 8.5 18.5t8.5 18.5q5 10 9 19t9 18q8 20 15 32l5 13.5t4 9.5q1 3 3 7q1 1 1 2q0 -1 -1 -2q-2 -2 -4 -6t-5 -9.5l-7 -12.5t-8 -15
t-9 -16q-5 -9 -9.5 -18l-9.5 -19l-8 -18.5l-8 -18.5l-3.5 -9t-3.5 -8q-2 -5 -3 -9l-2 -8q-3 -8 -3 -14q-1 -3 -1.5 -5.5t-0.5 -5.5v-7v-2l1 2q0 4 1 7q2 11 7 24q3 8 6.5 16t7.5 16zM268 19q3 2 5.5 2.5t4.5 2.5q2 1 4 3l-4 -2q-6 -2 -11 -4q-13 -6 -32 -8h-9q-2 0 -4.5 0.5
t-4.5 0.5q-8 1 -15 5l-6 3q-2 0 -4 2q-2 0 -2 0.5t-1 0.5t-1 1l3 -3q2 -1 4 -3l6 -3q3 -2 6.5 -3.5t8.5 -2.5q2 -1 4.5 -1t4.5 -1h10q5 0 9 1t9 3q5 1 8.5 2.5t6.5 3.5z" />
    <glyph glyph-name="p" unicode="p" horiz-adv-x="476" 
d="M471 340q7 14 19 10.5t23 -16t17 -28.5t0 -27q-21 -41 -56 -89t-84 -90t-112.5 -70.5t-142.5 -29.5h-2h-1h-2q-24 1 -44 10t-35.5 23t-27 32t-19.5 36l-57 -152.5l-50 -136.5t-35.5 -102t-13.5 -50q0 -7 -15 -2.5t-32.5 14t-32.5 22.5t-15 22q0 5 14 41.5l36.5 94.5
l51.5 130l59.5 148l59.5 149.5l51.5 132.5l36.5 98.5t14 47.5q0 24 11.5 23.5t25 -13t25 -30.5t11.5 -30q0 -5 -5.5 -24.5t-16.5 -49.5q42 53 79.5 88.5t63.5 35.5q13 0 27 -9.5t25.5 -30.5t19 -55.5t7.5 -83.5q0 -26 -5 -57t-14 -64t-21.5 -66t-28.5 -63q36 20 66 46
t54 54.5t41.5 57t29.5 53.5zM241 503l-6.5 -4.5l-6.5 -4.5q-4 -3 -7.5 -6t-6.5 -6t-6 -6.5t-6 -6.5q-3 -4 -5.5 -7t-4.5 -6q-5 -6 -6 -9l-2 -4l3 3q2 2 3.5 4t3.5 5q5 5 10.5 11.5t12.5 12.5q6 8 13 12l6 6q2 1 3 2t3 2q6 3 9 6q1 0 1.5 0.5t1.5 0.5t1 1l-4 -2q-6 -2 -10 -4
zM205 455l-16 -16q-5 -5 -10 -11t-10 -13l-11.5 -14l-11.5 -15q-5 -8 -10.5 -15l-10.5 -14q-5 -8 -9.5 -14.5t-8.5 -11.5q-4 -6 -7 -11t-5 -9q-3 -4 -4 -7q2 3 5 7l5 7.5t8 10.5q4 6 9 12.5l10 13.5l10.5 14t10.5 15l11.5 15l10.5 14t10 13t10 11t8 10t6 8q3 4 6 6zM95 373
l-7 -12.5t-5 -9.5q-3 -5 -4 -9q0 1 1 2l4 6q2 4 5.5 9.5t7.5 12.5l10 14l11 15q5 8 11.5 16.5t13.5 16.5q12 16 26 32q12 15 24 27q5 6 9.5 10.5l7.5 7.5q2 2 2.5 3.5t1.5 2.5l2 2l-2 -2l-5 -5q-3 -3 -8 -7.5t-10 -10.5q-6 -5 -12 -11.5l-13 -14.5l-13.5 -16l-13.5 -16
l-12.5 -16.5t-11.5 -16.5q-6 -8 -10.5 -15.5t-9.5 -14.5zM-193 -195l10.5 28l9.5 25q4 12 9 24l-3 -6q-2 -3 -4 -8l-4 -10t-5 -11t-5 -13l-6 -13.5t-6 -14.5q-2 -8 -5 -14.5t-5 -13.5q-4 -13 -9 -25t-6 -18q-1 -4 -2 -7l3 6q2 3 3.5 7.5l3.5 10.5q2 5 5 11t5 13q3 7 5.5 14z
M42 426l3.5 12t3.5 9t3 7h-1q-4 -13 -10 -28q-5 -14 -12.5 -31.5t-15.5 -40.5l-41 -102l-46 -117l-88 -220l-40 -99l1 -1q1 3 3 7t4 8.5l5 11.5q5 14 13.5 31.5t17.5 40.5l21 47.5l22 53.5l23.5 57.5l24.5 59.5l22.5 59.5l22.5 57.5l21 54.5t18 48.5l7.5 22t6.5 20
q4 9 6.5 17zM47 184q-2 -17 -3 -38t2 -39.5t11.5 -31t24.5 -12.5q33 0 61 21.5t51 56t40 78.5t28.5 88.5t17.5 86t6 72.5q-22 -7 -55 -40q-29 -28 -74 -84.5t-110 -157.5zM212 123q1 1 1.5 2t1.5 2l1 1l-17 -17q-4 -5 -8 -9l-9 -9q-4 -3 -11 -10q-3 -3 -11 -9q-4 -2 -12 -8
q-3 -2 -6 -3.5t-6 -3.5q-8 -4 -11 -6l-6 -2t-5 -2q-10 -4 -17 -6q-2 -1 -5 -1q-1 0 -1 -1h1q3 0 5 1q4 1 8.5 2t9.5 3q2 1 5 1.5t6 2.5q4 1 12 5t12 7q5 2 13 8q11 9 21 19.5t17 18.5l6.5 8t4.5 6zM268 260l4 16l4 16t3 15.5t3 15.5l2 13.5l2 13.5q2 13 3 23t2 18
q0 4 0.5 6.5t0.5 4.5v4l-3 -15q-2 -8 -4 -18t-4 -22l-2 -13.5t-3 -13.5q-2 -8 -3.5 -15t-3.5 -15t-4.5 -15.5t-4.5 -15.5t-4.5 -16t-6.5 -16q-1 -5 -2 -8.5t-3 -7.5t-3.5 -8t-3.5 -8t-3.5 -7.5t-3.5 -7.5q-2 -3 -3.5 -6.5t-3.5 -7.5q-5 -7 -8 -13.5t-8 -12.5l-4 -6l-4 -6
q-2 -2 -4 -5t-4 -5l-7.5 -9t-7.5 -8q-2 -3 -6 -7q-3 -2 -7 -6l-11 -11l3 3q2 2 4.5 3.5t5.5 3.5q2 1 6 5q2 2 3.5 3t3.5 3l8 8l9 9q2 2 4 5t5 5l4 6l4 6q10 11 17 26q2 3 4 6.5t4 7.5t3.5 7.5t3.5 7.5q4 6 7 16q2 4 3 7.5t3 8.5q3 8 5.5 16t5.5 16z" />
    <glyph glyph-name="q" unicode="q" horiz-adv-x="518" 
d="M514 341q4 7 15.5 2t23 -16t18.5 -24t3 -21q-29 -52 -63 -95t-72 -83l-79.5 -80t-84.5 -87t-87.5 -104.5t-87.5 -131.5l-13.5 -39.5t-11.5 -39.5q0 -9 -12.5 -5.5t-27 14t-27 24.5t-12.5 26q0 7 17.5 46.5l45 99l61.5 131.5l68 143q-47 -42 -95 -71t-90 -29
q-12 0 -31.5 10t-38 26t-32 36t-13.5 40q0 32 19.5 77.5t52.5 95t74.5 98.5t86.5 87.5t88.5 62.5t79.5 24q34 0 57.5 -18t36.5 -39t16 -39t-3 -18t-11.5 6t-13 13.5t-19.5 13.5t-30 6q-40 0 -84.5 -30t-87 -75.5t-79.5 -98t-62 -98t-34.5 -75.5t3.5 -30q30 0 64 19t68 48
t66.5 64.5t60 68.5l48.5 60t32 40q8 19 8 22q0 14 10 8.5t22 -20t22 -33t10 -29.5q0 -6 -12.5 -31l-33 -65l-47.5 -92l-56 -112q30 23 66.5 55t74 72.5t72.5 88t61 101.5zM315 538q-2 1 -5 1t-6 1q-4 1 -12 1q-3 0 -6 -0.5t-6 -0.5q-3 -1 -6 -1t-6 -1t-5.5 -2t-4.5 -2
q-4 -1 -10 -3q-4 -2 -7.5 -3.5t-5.5 -2.5q-4 -2 -3 -2l-1 -1q0 1 1 1q2 0 4 1q3 1 13 5q11 4 20 5q6 2 11 2q4 1 12 1h11q3 -1 6 -1t5 -2q6 -1 10.5 -2.5t8.5 -3.5q5 -2 8 -4t5 -4t3 -2l1 -1l-4 4q-1 1 -2 1.5t-3 2.5q-2 1 -3.5 2t-3.5 2q-2 2 -4 2.5t-4 2.5q-3 1 -5.5 2
t-5.5 2zM99 436q-7 -7 -11.5 -12.5t-8.5 -9.5q-4 -5 -8 -9l8 8q4 4 9 9.5t13 12.5l15 13l17 15t18.5 15.5l19.5 15.5q11 8 21 14.5l20 12.5q5 3 10 5.5t10 4.5t9.5 4t9.5 4l9 3q3 0 7 2q10 2 13 2q4 1 9 1h3h-3h-9q-3 0 -13 -2q-4 -1 -8 -1.5t-9 -2.5t-9.5 -3.5t-9.5 -3.5
t-10 -4.5t-10 -5.5q-21 -12 -42 -27l-20.5 -15.5t-17.5 -15.5l-17 -15.5zM21 351q-2 -2 -2.5 -3l-1.5 -3t-2 -3q3 5 7 9q3 4 7 8.5t9 9.5t8.5 9.5l7.5 9.5q2 2 3 3.5t2 2.5l2 2q-2 -1 -3 -2q-2 -1 -2.5 -2.5t-2.5 -3.5q-7 -6 -16 -18q-10 -10 -16 -19zM-35 140q3 6 7.5 14
t9.5 18l24.5 44.5t30.5 48.5q4 7 8 13t9 12t8.5 11.5t8.5 11.5l16 21t16 18q7 8 12.5 15.5t10.5 12.5q5 6 9 10q-1 -1 -2 -3l-7 -7l-11 -11.5l-14 -15.5q-8 -8 -16 -17.5l-17 -20.5l-8 -11.5t-9 -11.5t-9 -12l-8 -12l-16 -25.5l-15 -24.5t-12.5 -23.5l-10.5 -21.5
q-11 -21 -15 -33l-6 -12zM101 120q4 3 7 5.5t5 4.5q3 3 4 5q-2 -2 -5 -4q-2 -2 -5.5 -4.5l-7.5 -5.5t-8.5 -6t-9.5 -7t-10 -7t-11 -7q-11 -7 -22.5 -11.5t-20.5 -7.5q-6 -2 -8 -3q-3 -1 -7 -1q-2 -1 -5 -1q-1 0 -1 -1h1q1 0 2 0.5t3 0.5q4 0 7 1q1 0 9 2q2 0 10 2q2 2 5 2.5
t6 2.5q6 2 11.5 5l11.5 6q11 7 21 14.5t18 14.5zM94 -147l5.5 13t4.5 10l4 8q-1 -4 -4 -8l-5 -10t-7 -13q-3 -7 -7 -15l-8 -16q-5 -9 -9 -18.5t-9 -18.5l-8 -19.5l-8 -18.5l-7.5 -17t-6.5 -16t-4.5 -13.5t-3.5 -10.5t-2 -9l3 9q2 5 4.5 10.5t4.5 13.5l6.5 15t8.5 17l8 18
t9 19t8.5 19t8.5 18l7.5 17t6.5 16zM171 43q5 11 9.5 20t7.5 16q4 8 6 14l-7 -14q-3 -7 -8 -15.5t-10 -19.5l-24 -51q-7 -14 -13.5 -28.5l-13.5 -29.5l-14 -29.5t-13 -28.5q-7 -14 -12.5 -27.5t-10.5 -24.5l-9 -20l-7 -16q-4 -8 -6 -14q2 6 6 14q6 13 18 36l11 23.5l13 26.5
t13.5 29t13.5 29q8 15 14.5 30l12.5 29q13 26 23 51z" />
    <glyph glyph-name="u" unicode="u" horiz-adv-x="488" 
d="M483 340q4 7 14.5 1t20.5 -17t16.5 -24t2.5 -20q-22 -38 -57.5 -86.5t-77 -91.5t-85.5 -72.5t-83 -29.5q-18 0 -33 9t-25.5 22.5t-16 28.5t-4.5 26q1 9 8 32.5t19 56.5q-26 -36 -52 -67.5t-51.5 -55.5t-50 -38t-46.5 -14q-11 0 -26.5 7.5t-29.5 21.5t-23 34t-7 46
q1 17 15.5 54t35 83l44 96l43.5 93l33.5 74t14.5 40q1 8 6.5 8t13 -6t16.5 -16t16 -20.5t11.5 -20t4.5 -14.5t-13 -31l-31.5 -64l-40 -82l-40 -84t-31.5 -71t-14 -42q25 0 60 33.5t73.5 83.5t77 109l70 109l53 83.5t26.5 33.5q13 0 21.5 -10t14 -23.5t7.5 -26.5t2 -20
q-1 -5 -12 -33.5l-27 -68.5l-34 -86l-33 -85t-23.5 -64.5t-4.5 -25.5q24 0 52.5 17.5t58.5 48t61 71.5t60 88zM307 346q-5 -11 -6 -16q-1 -4 -2 -7l3 6q2 3 3.5 7.5t3.5 9.5t5 10.5t5 11.5q2 7 5 13.5l6 13.5q2 7 5 13.5t5 12.5q4 13 9 24q2 5 3 9t2 7q1 4 2 6l-3 -6
q-2 -3 -3.5 -7l-3.5 -9t-4.5 -10.5t-4.5 -11.5q-3 -7 -5.5 -13.5t-5.5 -13.5q-2 -7 -5 -13.5t-5 -12.5q-5 -14 -9 -24zM59 119q-4 -3 -6 -5.5t-4 -4.5t-4 -3l1 1q-1 0 3 2q2 2 4.5 4t5.5 5q4 3 7.5 6t7.5 7l7.5 7.5t7.5 8.5q17 17 27 32q2 3 4.5 6t4.5 5q2 3 3 5
q-1 -1 -3 -4q-2 -2 -4.5 -5t-4.5 -6l-13 -15l-15 -17q-16 -18 -29 -29zM-66 180q2 5 4.5 10.5t5.5 10.5q2 6 5 12.5l6 13.5q4 6 7 13t7 15q7 14 13.5 29.5t14.5 30.5q8 16 15 31.5t14 29.5q7 15 12.5 28.5l10.5 25.5l9.5 21t6.5 17q2 3 2.5 6t1.5 5q1 3 2 4l-7 -14
q-4 -7 -8.5 -16.5t-10.5 -20.5q-5 -12 -11.5 -25.5l-13.5 -27.5q-8 -14 -15 -29.5t-15 -30.5l-14 -31.5l-14 -30.5l-11.5 -28l-10.5 -26q-9 -24 -14 -39q-2 -4 -2 -6.5t-1 -4.5q-1 -3 -1 -4q0 2 1 4l2 4l3 6q1 4 2.5 8zM112 108q2 2 2.5 3t1.5 2l2 2l-6 -6q-4 -3 -8 -7.5
t-10 -9.5l-5 -5t-6 -5q-3 -3 -6.5 -6t-6.5 -6l-15 -12l-15 -12q-5 -2 -8.5 -5t-7.5 -5q-2 -2 -4.5 -2.5t-4.5 -2.5q-2 -1 -8 -3q-2 -2 -4 -2t-4 -1q-6 -2 -8 -3h-4q-2 0 -2.5 -0.5t-1.5 -0.5h-8q-2 0 -3.5 0.5t-3.5 0.5q-2 1 -3 1t-3 1q-1 0 -5 2q-2 0 -4 2l-3 1.5l-3 1.5
q-1 1 -2 1l2 -1l3 -1.5t3 -2.5l4 -2q1 -1 5 -3l6 -2t7 -1h8h4q3 0 4 1q3 0 9 2q2 0 8 2q3 2 9 4q2 2 4 2.5t4 2.5q5 2 9 5t8 5l8 6l8 6q3 3 6.5 6t7.5 6l24 24q5 5 9 9.5t7 7.5zM215 265q2 2 2.5 4t1.5 4t2 3q-1 -1 -2 -3t-2 -3.5t-3 -3.5q-3 -5 -7.5 -11.5t-9.5 -14.5
l-24 -36q-7 -11 -14.5 -20.5l-15.5 -20.5l-15.5 -20.5t-15.5 -18.5l-15 -18l-7.5 -7.5t-6.5 -7.5l-22 -22q-2 -2 -4 -3t-3 -2q-2 -1 -2 -2q0 1 2 2q1 1 3 2t4 3q3 2 10 9q8 6 13 12q8 6 15.5 14l15.5 17l15.5 19.5l15.5 20.5q15 18 30 41q7 10 12.5 19.5l10.5 17.5l9 14.5z
" />
    <glyph glyph-name="t" unicode="t" horiz-adv-x="328" 
d="M329 340q5 10 16.5 5t22.5 -17t18 -26t3 -21q-21 -40 -49.5 -89t-64 -91.5t-77.5 -71.5t-91 -29q-17 0 -42 9t-49 30t-41 54.5t-17 82.5q0 20 12.5 64.5t32.5 101.5l44.5 121l48.5 124q-20 -2 -39 -2h-36q-26 0 -38 14.5t-15 31.5t0.5 31.5t9.5 14.5h28.5t43 0.5l46.5 1
t38 1.5l59 145t21 60q0 17 13 15.5t28.5 -13.5t28.5 -29t13 -32q0 -5 -14 -37l-43 -102q48 3 87.5 4t57.5 1q21 0 31.5 -5.5t15.5 -14.5t5.5 -21t0.5 -24q0 -13 -9.5 -16t-23.5 -3q-48 0 -99.5 -4t-102.5 -9l-54.5 -137.5t-52 -142.5t-38.5 -128t-15 -95q0 -24 13 -24
q41 0 81 28.5t76 70t66 88.5t50 85zM158 717q-3 -8 -4.5 -11t-2.5 -6t-2.5 -7t-5.5 -13h7q3 9 4.5 13t2 6.5t1.5 5.5t4 10q7 17 12 31.5t10 24.5q2 5 3 8.5t2 6.5q1 4 2 6q-1 -2 -2 -5q-2 -2 -3.5 -6l-3.5 -9q-5 -11 -10.5 -24.5t-13.5 -30.5zM26 381l-11 -32t-8 -25l-6 -21
q1 1 2 5q1 2 2.5 6.5t3.5 9.5q4 10 9 24t12 31l17 41.5l20.5 51.5l21.5 54l20 50l2 6l2 6q-2 -1 -8 -1q-1 -2 -1.5 -4t-1.5 -4q-5 -12 -11 -28t-13 -32.5l-13 -32l-10 -26.5l-15 -42t-14 -37zM1 69q2 -4 6 -8l3 -3q-1 1 -2 3t-2.5 4.5t-3.5 5.5q-2 2 -3.5 5.5t-3.5 6.5
q-2 4 -4 7.5t-4 8.5q-2 4 -3.5 7.5t-3.5 7.5q-4 7 -6 14q-1 3 -2 5.5t-1 4.5q-1 1 -1 3v1v-4q0 -2 0.5 -4.5t1.5 -6.5q1 -3 1.5 -6.5t2.5 -7.5t3.5 -8t3.5 -8q4 -8 8.5 -15.5t9.5 -12.5zM30 350q2 3 3 6.5t3 8.5l9 21l4.5 11.5t5.5 12.5q2 6 4.5 12.5l4.5 11.5l4 11.5
l4 10.5l7 21l-10 -20l-4 -10.5l-4 -10.5q-2 -6 -5 -12t-5 -13l-9 -24q-2 -6 -4 -11l-4 -10t-3 -9t-2 -7q-1 -4 -2 -6z" />
    <glyph glyph-name="v" unicode="v" horiz-adv-x="471" 
d="M471 340q5 9 16 3t21.5 -17.5t18 -24.5t5.5 -17q-12 -24 -26.5 -45t-36.5 -36.5t-51.5 -24.5t-71.5 -9q-19 0 -46 22q-27 -37 -57.5 -71.5t-62 -61t-62 -42.5t-57.5 -16q-15 0 -35 15.5t-38 39.5t-30.5 53.5t-12.5 58.5t12.5 69.5t31.5 83.5t42.5 85.5t44.5 76t38 54.5
t24 21q10 0 21.5 -9.5t21 -22t15.5 -25.5t6 -19q0 -5 -13 -23.5l-33 -47t-43 -65t-43 -76.5t-33 -82t-13 -82q0 -13 7 -13q26 0 53.5 15.5t55.5 41.5t54.5 59t50.5 68q-2 8 -3 15.5t-1 15.5q0 17 7.5 42.5t19.5 53.5t26.5 55.5t28 49.5t24.5 36t16 14q12 0 24 -8t21 -20
t14.5 -25.5t5.5 -24.5q0 -5 -4.5 -15.5t-11.5 -25t-16.5 -32t-18.5 -36.5q2 -16 1.5 -31t-6.5 -27q-8 -18 -18.5 -36.5l-22.5 -38.5q3 -9 14 -9q22 0 41 11.5t35 28t28.5 36t21.5 35.5zM-41 184q1 7 3 18q2 5 3.5 11t3.5 13q2 6 4 13t5 14q2 8 5 15t6 15q4 8 7 16t7 16
t7.5 16t7.5 16l15.5 32.5t15.5 30.5q5 8 8.5 14.5l7.5 13.5l7.5 13t6.5 12l12.5 21t10.5 16q2 3 3.5 5.5t2.5 4.5l2 4l-2 -4q-1 -1 -7 -9q-2 -4 -5 -7.5t-6 -8.5l-6 -10t-7 -11q-3 -5 -6.5 -11.5t-8.5 -13.5q-4 -6 -7.5 -13t-8.5 -15q-8 -14 -16 -30l-16 -32
q-4 -8 -7.5 -16.5t-6.5 -16.5q-9 -17 -14 -32q-3 -8 -6 -15t-5 -15t-4 -14.5l-4 -13.5q-2 -6 -3 -12t-3 -11q-1 -11 -3 -19q-1 -5 -1 -8v-5v-4q1 1 1 4v5t1 8zM-14 261q9 26 20 49l19 41l20 40q-1 -1 -2 -3t-1.5 -4t-2.5 -4q-2 -5 -6 -12.5l-9 -16.5q-9 -17 -19.5 -40.5
t-19.5 -48.5q-5 -13 -9 -25.5t-7 -24.5l-4 -23.5t-2 -21.5q0 -13 1 -18q0 -5 0.5 -8t1.5 -6q1 -6 3 -9q0 -1 1 -2v-1v1l-1 2t-1 4t-1 5t-1.5 6t-0.5 8q-1 5 -1 18q0 10 2 21.5t5 23.5t6.5 24.5t8.5 24.5zM140 89q2 2 4 3.5t4 3.5l3 3l-3 -3q-3 -3 -9 -6q-12 -10 -28 -19
q-8 -5 -16 -8q-2 -1 -4 -1.5t-4 -1.5q-4 -2 -7 -2q-2 -1 -3 -1t-3 -1h-5q-1 -1 -3 -1h-1h4q3 0 5 1q4 0 6 1q4 1 7.5 1.5t8.5 2.5q8 3 16 8q5 2 8.5 5t7.5 5q3 2 6 5t6 5zM158 136q0 -1 -1 -1q-1 -1 -2 -1t-2 -1q-2 -2 -5 -4.5t-7 -5.5l-8 -6l-9 -7l-10.5 -6.5l-10.5 -6.5
q-3 -2 -5.5 -3t-5.5 -3t-11 -6q-5 -2 -9.5 -4t-9.5 -3q-2 -2 -4.5 -2t-4.5 -1t-6 -1q-2 -1 -5 -1h-1h1q1 0 2 -0.5t3 -0.5h7q2 1 4 0.5t5 0.5q2 1 4.5 1t5.5 1q6 1 11 4q11 4 23 11q6 4 11 7q2 2 5 4t5 4l9 7.5t7 7.5q4 3 6 6.5t4 5.5zM345 519l-2 -4l-1 -1l1 1q2 2 3 4
q2 2 3.5 4.5t3.5 5.5t3.5 6l2.5 5q1 1 1 2t1 2q0 1 1 1q-1 0 -1 -1q-1 -1 -1 -1.5t-1 -1.5q-2 -2 -4 -5l-4 -6t-3.5 -6zM306 446l8 16t7 15l6 11.5t5 9.5q3 4 4 8q0 -1 -1 -2q-2 -2 -4 -6t-5 -9t-7 -11l-8 -14.5l-8 -15.5q-5 -8 -9 -17t-9 -18q-4 -10 -8 -19t-7 -18
q-4 -8 -6.5 -16t-4.5 -16q-4 -13 -4 -24q-1 -3 -1 -7v-2v2q0 1 0.5 3t0.5 4q2 6 3 10q1 3 1.5 6.5t1.5 6.5q5 16 12 32q4 9 7.5 18t8.5 18q7 16 17 35zM432 267l-3 -3l-4 -4t-5 -4q-11 -11 -29 -20q-4 -3 -8 -4q-3 -2 -9 -4q-5 -2 -8.5 -2.5t-7.5 -1.5q-2 -1 -6 -1
q-2 -1 -5 -1q-2 0 -2.5 -0.5t-1.5 -0.5h-1h5h4.5t6.5 1q8 0 17 3l9 3.5l9 3.5t8.5 5t7.5 6t7 6t6 5q2 3 4 5l4 4z" />
    <glyph glyph-name="x" unicode="x" horiz-adv-x="564" 
d="M564 337q6 12 19 9.5t24.5 -13t18.5 -24t2 -23.5q-4 -9 -16.5 -33.5t-31 -56.5t-41.5 -66.5t-48.5 -63.5t-52.5 -47.5t-53 -18.5q-59 0 -103 35t-76 90l-48 -50t-43 -39.5t-36.5 -26t-28.5 -9.5q-10 0 -24 7.5t-26.5 18.5t-21 23.5t-8.5 21.5t3 11.5t8 2.5t11 -2t13 -2
q35 0 77.5 32.5t87.5 83.5q-22 54 -36 110.5t-21 106.5q-9 -20 -19 -44.5l-20.5 -48l-20 -43.5t-15.5 -31q-4 -8 -14.5 -2.5t-20 16t-16 23.5t-3.5 21q2 5 10.5 24l20.5 45.5l26.5 56.5l28 56t24.5 45t17 24q2 2 3 2q12 0 26.5 -4.5t26.5 -12t20 -17.5t8 -21
q0 -67 9.5 -125.5t25.5 -107.5q43 56 83 115.5l72 108l54 80t28 31.5q7 0 14 -8t13 -20t9.5 -25.5t3.5 -24.5q0 -6 -21 -39.5t-55.5 -81.5l-78.5 -105l-89 -111q26 -51 55 -79t55 -28q16 0 35 16t38.5 41t38.5 55.5l35 58.5t27.5 50.5zM96 513l-1 -1q-1 -1 -1.5 -2t-1.5 -2
l-4 -6t-5 -8l-11.5 -21l-12.5 -24l-11.5 -25l-9.5 -21q-5 -11 -6 -16l-3 -6l1 1q2 2 3 4q3 6 9 15q5 8 11.5 20l12.5 24l11.5 25t9.5 22q4 9 6 15zM90 103q3 2 4.5 4.5t3.5 4.5l3 3l-4 -2q-2 -1 -4.5 -2.5t-5.5 -3.5l-6.5 -4.5t-7.5 -4.5q-2 -2 -4 -2.5t-4 -2.5
q-2 -1 -4.5 -2t-4.5 -2t-4.5 -2t-4.5 -2l-4 -2l-4 -2q-6 -2 -9 -2q-2 -1 -3.5 -1.5t-3.5 -1.5q-2 0 -3.5 -0.5t-3.5 -0.5q-2 -1 -5 -1q-2 -1 -3 -1h-1q0 -1 1 -1h3h13q5 0 8 1q3 0 9 2l9 3.5l9 3.5q8 4 18 10q4 3 7 6t6 5zM164 169q1 2 4 5l2 2q-2 -1 -3 -2q-2 -1 -5 -4
q-3 -2 -7 -5.5t-8 -8.5l-14 -14l-4 -6l-2 -2q1 0 2 1q3 3 6 5q3 3 7 6t8 8l7.5 7.5t6.5 7.5zM140 330q1 -4 3 -8q1 -2 1 -3q-1 1 -1 3t-0.5 4t-0.5 5q-2 5 -3 11.5t-3 14.5q-2 7 -3 14t-3 12q-1 2 -1 4t-1 4t-1 3v-3q0 -5 1 -9q1 -10 5 -26l3.5 -14.5t3.5 -11.5zM182 210
q-5 11 -8.5 20.5t-7.5 18.5q-5 13 -8.5 23.5t-5.5 18.5q-2 4 -2.5 7t-1.5 5q-1 3 -1 4q0 -1 1 -4q1 -2 1 -5.5t2 -7.5l4.5 -18.5t6.5 -24.5q6 -20 15 -42zM372 18q1 0 2 -0.5t2 -0.5h1h-1q-1 0 -2 0.5t-2 0.5q-2 1 -5 1t-7 1q-2 1 -4.5 1t-4.5 1q-6 2 -10 3l-11 4.5t-12 5.5
q-10 5 -25 15l-12 10.5t-13 10.5q-12 12 -23 26.5t-21 29.5q-4 8 -7 11q-1 -2 -5 -6l6 -9q10 -16 21.5 -30t24.5 -27q11 -11 26 -21q7 -5 13.5 -8l12.5 -6q4 -2 7 -3l6 -2l6 -2t5 -2q3 -1 6 -1t5 -1q3 -1 9 -1q5 -1 12 -1zM472 133q2 2 3.5 4.5t2.5 4.5l2 4q-1 0 -1 -1
q-1 -1 -1 -1.5t-1 -1.5q-1 -2 -2.5 -3.5t-3.5 -4.5l-5 -5t-5 -6l-12 -12l-12 -12l-11 -11l-10 -10q1 0 3 2q2 1 4 3t5 4l11.5 9.5t12.5 11.5q5 5 11 13q6 6 9 12zM506 204q3 5 5 10t4 8q2 4 4 6q-1 -2 -4 -6q-5 -7 -11 -17q-3 -5 -7 -11l-8 -12l-9.5 -13.5l-9.5 -13.5
l-9.5 -13.5t-9.5 -12.5q-11 -12 -18 -21l-8 -8q-3 -5 -6 -6l-6 -6q1 0 2 1l4 4q2 2 3.5 3t3.5 3t4 3.5t4 3.5l10 10t10 11l10 12.5l10 13.5l18 27q4 6 7.5 12.5t6.5 11.5z" />
    <glyph glyph-name="z" unicode="z" horiz-adv-x="378" 
d="M374 338q6 11 17 5.5t21.5 -18t17 -27t3.5 -20.5q-38 -77 -80.5 -137.5t-86.5 -112.5q0 -44 -17 -97.5t-44 -107t-61 -104t-68 -89t-65 -62t-52 -23.5q-11 0 -27.5 6t-32.5 16t-27.5 23t-11.5 28q0 48 28.5 97t74.5 103t104.5 114.5t118.5 131.5q-2 22 -8.5 30.5t-15 8.5
t-18 -7t-18.5 -17q-20 -35 -35 -57.5t-19 -22.5q-6 0 -18.5 6.5t-25.5 16t-23 20t-10 18.5q0 5 13 28.5t32.5 55.5l42 69.5l42 70.5t32.5 57t13 31q0 6 -15 13.5l-38 18.5l-26.5 -52.5l-25 -45.5l-19 -33.5t-9.5 -16.5q-5 -9 -14.5 -2t-18.5 20.5t-14.5 28t-1.5 21.5
q10 16 26 47.5l36 67.5q-36 21 -63.5 51t-27.5 72q0 47 18.5 95t45 87t54.5 63.5t48 24.5q10 0 27 -9t33.5 -23t28 -31.5t11.5 -35.5q0 -29 -8 -65.5t-21 -75.5t-30 -79l-34 -77q21 -9 42 -17t37.5 -19t27 -26t10.5 -36q0 -8 -6 -24.5t-16 -38.5l-23 -48.5l-27 -53.5
q14 -8 28.5 -22t26.5 -31q39 49 75 103t67 115zM175 701l-2 -10.5t-3 -11.5q-2 -11 -5 -22t-5 -19q-2 -5 -2.5 -8.5t-1.5 -5.5q-1 -3 -1 -5q1 2 2 5q1 2 2 5t3 8t3 9.5t3 9.5t3 11t3 11q2 6 2.5 12t2.5 11q1 5 1 10t1 10v14v5v-1q0 -1 -0.5 -2t-0.5 -2q0 -2 -0.5 -5.5
t-0.5 -8.5q-1 -5 -1.5 -9.5t-2.5 -10.5zM62 693q-3 -5 -4.5 -9t-3.5 -7q-2 -4 -2 -7l3 6q2 3 4 7t5 9t6.5 10l7.5 11q6 8 9 11l9 12q3 2 5.5 5t5.5 5q2 3 5 5.5t5 4.5q3 2 6 3.5t5 3.5q3 2 5.5 3t5.5 3l9 3q2 1 4 1t4 1h5q1 0 2 1h-2q-1 0 -2 -0.5t-3 -0.5h-8q-2 -1 -5 -1.5
t-5 -1.5q-3 -2 -5.5 -2.5t-5.5 -2.5l-6 -4l-6 -4q-3 -3 -11 -9q-4 -3 -10 -11q-4 -3 -10 -11l-9 -12q-4 -6 -7 -11.5zM5 485q2 -2 3.5 -3t2.5 -2t2 -1q-1 0 -2 1l-5 5q-1 1 -2 1.5t-2 2.5l-4 4q-1 2 -2 2.5t-2 2.5q-2 2 -4 6t-4 7.5t-4 7.5q-2 3 -4 9q-2 3 -3 9q0 3 -2 9
q0 2 -0.5 5t-0.5 5q-1 5 -1 10.5v10.5t0.5 10t1.5 10t1.5 10t2.5 10q1 5 2 9t3 9q1 5 2 8.5t3 7.5q1 7 5 14q1 4 3 10q1 3 3 7q1 1 1 2q0 -1 -1 -2q-2 -4 -3 -7l-5 -10q-1 -3 -2.5 -6t-2.5 -7q-2 -4 -3 -7.5t-3 -8.5t-3 -9t-2 -9q-2 -8 -4 -20q-1 -5 -1.5 -10.5t-0.5 -10.5
q-1 -5 -0.5 -10.5t0.5 -10.5q1 -3 1 -5.5t1 -4.5q0 -4 2 -10q1 -4 3 -10q2 -2 2 -4t2 -4q4 -9 9 -15q1 -2 2 -3t2 -3q2 -2 3 -2.5t2 -2.5q2 -1 2.5 -2t1.5 -2q2 -1 4 -3zM-19 541q-2 7 -2 15v17q0 8 0.5 16.5t1.5 14.5q0 3 0.5 6t0.5 5v4v-1q0 -1 -0.5 -1.5t-0.5 -1.5
q-1 -2 -3 -10q0 -5 -2 -15q-1 -5 -1 -8.5v-8.5v-9t1 -9q0 -6 2 -14q1 -4 2 -6l2 -4t1 -4q-1 2 -1 4t-0.5 4t-0.5 6zM68 473q18 34 35 70t30.5 70.5t21.5 65t8 54.5q0 18 -9 18q-13 0 -32.5 -20t-38 -51.5t-31.5 -69t-13 -72.5q0 -22 7.5 -37.5t21.5 -27.5zM76 -79
q-4 -4 -6 -8q-1 -2 -2 -3l10 10q5 4 10 9.5l10 11.5l10.5 12.5l8.5 10.5q4 6 6 8l3 3q-1 -1 -3 -2l-7 -7l-10 -10.5t-11 -11.5l-10 -12zM-53 -230l20 24l19 23l19 21.5t17 18.5q8 9 14 16.5t11 12.5l9 11q0 -1 -2 -3l-8 -8l-11.5 -12l-14.5 -15q-4 -5 -8 -9.5t-9 -9.5
t-9.5 -10l-9.5 -11l-20 -23l-20 -24q-5 -6 -9 -12.5t-9 -12.5l-9 -13l-8 -12l-3.5 -7t-3.5 -6q-3 -4 -7 -12l-6 -12l-2 -6l-2 -6q-4 -10 -6 -20q-2 -5 -2 -9t-1 -8q-1 -3 -0.5 -5.5t0.5 -4.5q-1 -2 -1 -3v-1v1q0 1 0.5 1t0.5 2v4.5t1 5.5q1 4 1 7.5t2 8.5q3 10 7 21
q1 3 5 11q2 3 3 5.5t3 5.5q1 4 2.5 6.5t3.5 5.5q2 4 4 7l4 6l8 12l9 13q5 6 9 12zM-13 -338q13 8 33.5 31t43 55t45 71t40.5 79q-53 -58 -95.5 -113.5t-66.5 -122.5z" />
    <glyph glyph-name="M" unicode="M" horiz-adv-x="818" 
d="M905 789q4 0 8.5 -9.5t8.5 -21.5t7 -24t3 -16q0 -2 -12.5 -26.5l-33.5 -65l-48 -93l-56.5 -110.5l-59 -118.5l-55.5 -116t-46 -103.5t-30 -81q-2 -8 -13.5 -2.5t-24.5 16t-23 21.5t-10 14l16 58t17 51.5t25.5 59l40.5 81.5l62.5 119l91.5 171q-146 -119 -241 -222.5
t-152 -180t-82 -120t-31 -43.5t-16 8t-20 17.5t-17 18.5t-7 12q12 22 35 68l49.5 101.5l54.5 115.5l50.5 110.5t37 86t14.5 43.5q-63 -58 -122.5 -126t-111.5 -135.5t-95.5 -130l-75 -110.5l-50.5 -77t-21 -29q-4 0 -13.5 7.5t-19.5 17.5t-18 20.5t-8 17.5q51 88 114.5 178
t130.5 172.5t132 154.5t119 125.5t92 84t51 30.5q10 0 19 -9.5t16.5 -21.5t12 -23.5t4.5 -15.5q0 -2 -6 -16l-15.5 -35.5l-21.5 -48.5l-25 -55l-68 -148l192 179l71.5 66l63.5 57.5l46.5 41t20.5 15.5q4 0 7.5 -3.5t6.5 -7.5q4 -4 6 -10l8 8q8 8 15 8zM52 258l3.5 7t3.5 5
q2 3 3 5q-1 -2 -3 -5q-2 -2 -4.5 -5t-4.5 -6q-3 -6 -12 -16q-5 -9 -13 -20q-3 -5 -6 -9.5t-6 -9.5q-4 -5 -6.5 -9t-4.5 -8q-3 -4 -4.5 -7t-3.5 -5q-2 -3 -2 -5q1 1 3 4q2 2 4 5t4 7q3 4 6 7.5t6 8.5t6.5 9.5t6.5 9.5q4 5 7 10l6 10t6 9t5 8zM309 569l18.5 20.5l14.5 16.5
l12 14q-2 -1 -4 -3t-4 -4.5t-5 -5.5q-14 -12 -35 -35l-10.5 -12l-11.5 -12l-12 -13.5l-13 -13.5l-25.5 -30l-26.5 -31l-25.5 -31.5l-24.5 -30.5l-22.5 -29t-20.5 -26l-16.5 -22t-12.5 -18q-3 -4 -4.5 -6.5t-3.5 -4.5q-2 -3 -2 -4l12 14q5 7 13 16.5l18 21.5l21 25.5l23 28.5
l24.5 30.5t26.5 30.5l26 31.5l25 29.5l24 28.5t21 24.5zM440 508q2 6 3 8t1 3l-5 -10q-2 -5 -5.5 -11.5l-7.5 -14.5t-8 -17t-9 -19q-5 -11 -9 -21.5t-9 -21.5l-9.5 -21.5l-8.5 -20.5q-5 -11 -8.5 -20.5l-6.5 -17.5q-4 -8 -6.5 -14.5l-4.5 -11.5q-1 -3 -3 -7q-1 -2 -1 -3
l5 10q2 5 5.5 11t7.5 14q5 8 9 17t9 19l9.5 21l9.5 21t9 21.5l8 21.5q5 11 8.5 20.5l6.5 17.5q4 8 6 14.5t4 11.5zM661 589l13.5 13l12.5 12l11.5 11.5l10.5 10.5l9 9t6 7l6 6q-1 0 -2 -1q-3 -3 -5 -4l-17 -14q-5 -5 -11 -10t-13 -10l-12.5 -12l-13.5 -12t-13.5 -12.5
l-12.5 -12.5q-7 -6 -12.5 -11.5l-10.5 -10.5t-8.5 -9t-6.5 -7q-2 -2 -2.5 -3t-1.5 -2l-1 -1l1 1q1 1 2 1.5t3 2.5q3 3 7.5 6t9.5 8t11.5 10t12.5 11q7 5 13.5 11zM763 671q2 2 4 4.5t4 4.5l3 3q-2 -1 -4 -3q-1 -1 -9 -7q-5 -5 -12 -11l-15 -13l-14 -13.5l-12 -11.5
q-2 -3 -4 -4.5t-4 -3.5l-3 -3q1 0 3 2t4.5 3.5t5.5 4.5q5 5 12 11t15 12l14 13.5zM639 274q2 5 3 9t3 7q2 4 3 7l-3 -6q-2 -3 -4 -7.5t-4 -9.5t-5 -10.5t-6 -12.5l-6 -12.5l-6 -13.5l-6 -13.5t-5 -13.5q-3 -6 -5.5 -12l-4.5 -11t-3 -9.5t-3 -7.5l-3 -6l3 6q2 3 4 7t4 9
t5 10.5t6 12.5l6 12.5l6 13.5t5.5 14t5.5 13l5.5 13zM664 357q2 3 2.5 5t1.5 4l2 4q-1 -1 -2 -3l-2 -4t-3 -5q-3 -7 -8 -15t-10 -19t-11 -23l-13 -26l-12.5 -27.5t-13.5 -28.5l-6 -14t-6 -15l-6 -14l-6 -14l-9.5 -26.5t-9.5 -23.5q-3 -12 -6 -21q-2 -5 -3 -8.5t-2 -7.5
q-2 -4 -2 -6t-1 -4t-1 -4q0 2 1 4t1.5 4t2.5 6q3 6 6 15l4 10l4 10l10.5 23.5t10.5 26.5l12.5 28l12.5 28l25 56.5l22 49.5l9 19.5t6 15.5z" />
    <glyph glyph-name="W" unicode="W" horiz-adv-x="707" 
d="M845 808q6 0 16.5 -10.5t20.5 -24t14.5 -26.5t-1.5 -19q-115 -121 -198 -221.5t-141 -181t-94.5 -141.5t-57.5 -101.5l-31 -61t-14 -20.5q-7 0 -21 7t-28 16.5t-24.5 20t-10.5 16.5q0 15 5.5 42.5t14 63t20 76l23.5 80.5q27 93 63 203q-91 -101 -161.5 -195.5
t-119.5 -168l-76.5 -117.5t-31.5 -44q-5 0 -21 7t-33.5 16.5t-31 20.5t-13.5 19q6 43 23 97.5t40.5 115t51.5 123.5l56.5 122l56 111l49.5 91t36.5 61.5t18.5 22.5q7 0 18.5 -8t22.5 -19.5t19 -23t8 -17.5q0 -4 -16 -31.5l-40.5 -70.5l-54.5 -96.5l-58.5 -109t-52 -109
t-34.5 -96.5q11 17 36 51l59 77.5l73.5 93.5l80 99.5l78.5 95.5l68.5 81l50 56t23.5 21q7 0 14 -6.5t12.5 -16t8.5 -21.5t3 -23q0 -7 -11 -41l-27.5 -82l-36 -103l-36 -104t-27.5 -85.5t-11 -46.5q88 128 170 236l71.5 92.5l71 87t64.5 72t53 47.5zM143 519q-2 -2 -2 -3.5
t-1 -3.5t-1 -3q0 1 1 3t1 3t2 3q2 5 5 10.5l7 12.5q4 8 7.5 16t8.5 17l10 18.5l10 18.5l19 38t17 32q3 7 6 12.5t5 10.5q3 5 5 9q-2 -4 -5 -8q-2 -4 -5.5 -10l-7.5 -13l-8.5 -15l-9.5 -17l-10 -18t-10 -19l-9.5 -19t-9.5 -18t-8.5 -17.5t-6.5 -16.5q-4 -7 -6 -13t-4 -10z
M69 459q1 4 2 6.5t2 4.5l2 4q-4 -7 -8 -15q-4 -7 -8.5 -16.5l-10.5 -21.5q-5 -13 -11.5 -27l-13.5 -29l-13.5 -32l-13.5 -33t-13 -33.5l-12 -32.5l-9.5 -31l-8.5 -28q-8 -28 -11 -42q-2 -10 -2 -12q-1 -3 -1 -4q0 1 1 4q1 2 1 5t2 7q2 8 5.5 18t8.5 23q4 13 9.5 27.5
t10.5 30.5l12.5 32l13.5 33q6 17 12.5 33.5t13.5 31.5q6 16 12 30t11 27t9.5 22.5t7.5 17.5zM352 592l-3 -3l-4 -4t-4 -5l-12 -14t-15 -19l-17.5 -21.5l-20.5 -24.5l-21.5 -27l-21.5 -27l-21 -28t-21 -27l-36 -48l-14 -20t-11 -15l-9 -13l3 3q2 2 7 10l11.5 14t14.5 19
l37.5 47.5l41.5 54.5zM324 212l4 16l4 16q2 7 3 12.5t2 9.5q2 6 2 7v2q-1 -4 -3 -8q-4 -10 -8 -22q-2 -7 -5 -15t-5 -16q-3 -9 -5.5 -18l-5.5 -19l-4 -18.5t-4 -17.5q-2 -9 -3 -17t-3 -16q-2 -7 -2 -12.5t-1 -10.5q-1 -3 -1 -7v-2q1 0 1 2q0 4 1 7q2 6 6 22q4 14 8.5 32
t9.5 36q2 10 4.5 19t4.5 18zM376 369q2 6 3.5 11t2.5 9l2 8q-1 -4 -3 -8t-3.5 -9t-3.5 -11q-3 -14 -9 -29q-5 -15 -9 -33q-3 -8 -5.5 -16.5t-4.5 -16.5t-3.5 -15.5t-3.5 -13.5q-2 -7 -3 -12t-2 -9t-1 -8l2 8q1 5 6 20l8.5 29l9.5 33q2 9 5 17.5t5 16.5t3.5 15t3.5 14z
M630 534q2 2 3 4.5t2 4.5t2 3q-1 -1 -2 -3l-7 -7l-9 -11.5l-10 -13.5q-5 -6 -9.5 -13t-8.5 -12q-2 -3 -3 -5l-2 -4t-2 -3l3 3q2 2 3 4t3 4l9 11t10 13l9.5 13.5t8.5 11.5zM831 777l3.5 3.5t2.5 3.5t2 3l-9 -9l-24 -24l-16 -16.5l-17 -18.5l-18 -20.5l-19 -21.5q-5 -5 -9 -11
t-8 -11q-5 -5 -9 -10.5l-8 -10.5l-15.5 -20.5t-13.5 -18.5q-7 -8 -11.5 -15.5t-8.5 -12.5q-3 -3 -5 -7q-1 -2 -2 -3l30 36l31 36.5l35 42.5l18 21.5l18 20.5q8 11 16 20l15 17l12.5 14.5z" />
    <glyph glyph-name="hyphen" unicode="-" horiz-adv-x="465" 
d="M237 227q43 5 81 7.5t68 3t49 -1.5t23 -5q3 -3 5 -7.5t1.5 -9t-3 -7t-6.5 -1.5q-63 3 -118.5 0.5t-103.5 -8.5q-3 -17 -4.5 -32.5t-2.5 -29.5q0 -3 -5.5 -2t-11.5 3.5t-11 5.5t-5 4q1 11 1.5 23t2.5 23q-79 -12 -124.5 -25t-47.5 -12q-3 3 -6 13t1 15q43 13 89 22.5
t92 16.5q7 42 17.5 81.5t20.5 70.5q11 36 23 68q-43 -46 -69.5 -84.5t-42 -66.5t-21.5 -44t-8 -16t-7 2t-10.5 4.5t-10 5t-4.5 3.5l13.5 40.5l19 58.5l16.5 54t7 28q-28 -33 -51 -71.5t-39.5 -71.5t-26 -54.5t-10.5 -21.5q-2 0 -6.5 1.5t-9.5 4t-9.5 5.5t-4.5 6
q19 47 46.5 95.5t54.5 88.5t48.5 65.5t27.5 26.5q3 0 8.5 -2.5t10.5 -6t8.5 -7t3.5 -4.5t-5 -17.5l-11 -36.5q-7 -23 -15 -52l53 68l37.5 47t19.5 22q1 0 5 -4q1 -2 3 -3q1 1 2 3q2 4 5 4q1 0 5.5 -2.5t9 -6t8 -7t3.5 -5.5q0 -1 -9 -24.5t-21.5 -61t-26 -84.5t-22.5 -95z
M453 536q2 0 7 -2t10.5 -5.5t9 -7t1.5 -5.5q-10 -11 -23.5 -34.5t-26.5 -48.5t-23 -46l-12 -25q-4 -7 -9 -10q-3 -1 -4 0q-10 -29 -14 -47t-5 -28.5t-1 -14.5t-1 -4q-2 0 -7 1.5t-10.5 4t-10 5t-4.5 4.5t3 16t8 30l12 42q-6 14 -9 40t-4 51.5t-1 45v21.5q0 5 6 7
q5 1 16.5 -6.5t12.5 -11.5q0 -2 -0.5 -12.5t-1 -26t0 -34t2.5 -36.5q4 9 16 32t25.5 46l24 41t12.5 18z" />
    <glyph glyph-name="m" unicode="m" horiz-adv-x="660" 
d="M657 341q4 7 15 1t22 -17.5t18.5 -24.5t4.5 -20q-19 -38 -50 -86.5t-68.5 -91.5t-79 -72t-81.5 -29q-14 0 -30.5 10t-30.5 25t-24 31t-10 28q0 24 13.5 59t34 75.5l43.5 85t42 86.5q-79 -79 -134 -151t-90.5 -127.5t-53.5 -88.5t-23 -33q-6 0 -18 6.5t-25 17t-22.5 23.5
t-9.5 26q0 8 14.5 38.5l36.5 73.5l47.5 94l48.5 100q-89 -92 -144.5 -162.5t-88.5 -118.5t-48.5 -73t-23.5 -25q-9 0 -21 9t-22.5 20.5t-18 22.5t-7.5 16q0 2 9.5 24.5l24.5 57.5l34.5 79.5l39.5 90.5l39.5 90.5l34.5 80.5l24.5 59.5t9.5 27.5q0 12 11 10t23.5 -11
t23.5 -21.5t11 -21.5q0 -5 -8.5 -27.5t-23 -56.5l-32 -75l-35.5 -82l76 87l73 80.5l59.5 62.5t35.5 33q2 2 4 2q8 0 18.5 -8t20 -20.5t16 -27t6.5 -26.5q0 -6 -4.5 -20.5t-12.5 -34.5l-18.5 -44.5l-21.5 -50.5l64 74l61.5 70.5t50 54.5t29.5 27q1 0 1 0.5t2 0.5l2 -1
q2 0 4 -1q6 -3 15.5 -10.5t18.5 -19t15.5 -27.5t6.5 -35q0 -15 -11 -43.5t-27.5 -63.5l-35.5 -73.5l-35.5 -73.5t-27.5 -63.5t-11 -43.5q24 0 53 20t58.5 54t58.5 77.5t54 90.5zM340 428q-2 -4 -2.5 -7t-1.5 -5q-1 -3 -1 -5q1 1 2 4q1 2 2 5t3 7q3 8 7 17t6 19q3 10 3 21
q-1 3 -1 5.5t-1 4.5q-2 6 -3 8q-3 8 -6 11q-1 1 -1 3q0 1 -1 1v-1q0 -2 1 -3q2 -2 2.5 -5t2.5 -7t2 -8q1 -3 1 -9q0 -5 -0.5 -10t-1.5 -10q-2 -5 -3 -9.5t-3 -9.5t-3 -9t-3 -8zM-19 293q-5 -11 -8.5 -20t-5.5 -15q-3 -7 -5 -13q2 6 6 13q3 6 6.5 14.5t8.5 19.5l10.5 23
l11.5 26l12 27l12 28l12 28t11 28q6 14 10.5 26t9.5 23l12 36q1 3 2 5l2 4t1 4q-2 -6 -5 -13q-2 -6 -5.5 -15t-8.5 -20l-10 -23t-11 -25q-5 -14 -11 -28l-12 -28l-24.5 -56zM-50 199q2 4 4.5 8.5t4.5 9.5l4.5 11t5.5 11l9 21l4 10t4 9t3 8t2 6q1 3 2 5q-1 -2 -3 -5t-6 -13
q-5 -8 -9 -18q-2 -5 -5 -10.5t-5 -11.5l-9 -21l-4 -10t-4 -9q-2 -5 -3 -8.5t-2 -5.5q-1 -3 -2 -5q1 2 3 5q2 2 3 5t3 8zM-18 243l6.5 14.5l7.5 15.5l8 16.5l8 17.5l7.5 17.5t6.5 16.5q4 8 6.5 16t5.5 15q2 7 4 12.5t3 9.5q1 2 1 3.5t1 2.5q0 1 1 2q0 -1 -1 -2t-1.5 -2.5
t-1.5 -3.5l-4.5 -9l-5.5 -11l-6.5 -14.5l-7.5 -15.5t-7.5 -16.5l-7.5 -17.5t-7.5 -18t-7.5 -17t-6.5 -15.5t-5.5 -14.5t-4.5 -12t-3.5 -10t-3 -6t-1 -2q2 4 5 8q2 4 4.5 8.5zM187 419q8 8 13.5 15.5t10.5 12.5l9 11l-10 -10q-5 -5 -11 -12t-14 -15l-16.5 -18.5l-18.5 -20.5
l-20 -22l-20 -22l-39 -45q-10 -11 -18 -21.5t-16 -18.5q-8 -9 -13.5 -16.5t-10.5 -12.5l-3 -4.5t-3 -3.5l-3 -3l9 11q5 5 11 12t14 15l35.5 39l39.5 45l39.5 45zM211 283q6 13 9 21l4 8q-1 -4 -4 -8q-2 -4 -5 -9t-6 -11q-7 -11 -15 -29q-5 -8 -8.5 -16.5t-8.5 -16.5
q-5 -9 -9 -17.5l-8 -16.5l-7.5 -15.5l-6.5 -14.5l-9 -21q-2 -4 -3 -8l4 8q3 7 10 20l15.5 29.5l16.5 33.5q5 8 8.5 17t8.5 17l7.5 15t6.5 14zM366 152q2 3 2.5 6t1.5 5q1 3 2 4q-1 0 -1 -1t-0.5 -1.5t-0.5 -1.5q-2 -2 -6 -10l-6 -15q-2 -5 -3 -9.5t-2 -9.5t-1.5 -9.5
t-0.5 -9.5q0 -9 3 -16q1 -4 2 -6.5t2 -4.5l3 -3q-1 0 -1 1t-0.5 1t-0.5 2q-1 2 -3 10t-1.5 16.5t2.5 18.5q1 5 2 9t2 9q4 10 5 15zM409 426q6 8 12.5 15l12.5 14q6 8 11.5 14l10.5 12q5 5 8.5 10t6.5 8q2 2 2.5 3t1.5 2l2 2l-6 -6q-3 -3 -7.5 -8t-9.5 -10l-11 -11t-12 -13
q-6 -8 -12.5 -14.5t-12.5 -14.5l-13 -15t-13 -14q-5 -8 -10.5 -14l-10.5 -12l-8.5 -10.5t-6.5 -7.5q-4 -4 -6 -7l6 6l7.5 7.5t9.5 10.5l10.5 11t11.5 14l12.5 14zM469 485l11.5 14t10.5 12q2 2 3.5 4.5t3.5 4.5l3 3l-3 -3q-2 -2 -4.5 -3.5t-4.5 -3.5l-11 -11.5t-12 -14.5
l-11.5 -14t-10.5 -12q-6 -8 -7 -10q-2 -2 -2 -3l11 11l11 11.5t12 14.5zM413 250q4 9 8.5 18l9.5 19q5 9 9 18.5t9 18.5l8 16t7 16l5.5 12.5t4.5 10.5t4 9q-1 -5 -4 -9q-2 -5 -5 -10l-7 -12l-16 -32q-5 -9 -9.5 -18l-9.5 -19q-5 -9 -9 -18.5t-9 -17.5l-15 -33
q-4 -8 -6 -13.5t-4 -9.5l-4 -8q1 4 4 8q2 4 5 9.5l7 12.5l8 16t9 16z" />
    <glyph glyph-name="a" unicode="a" horiz-adv-x="503" 
d="M503 339q3 3 10.5 -3t15 -16.5t13.5 -22.5t6 -20q0 -10 -11 -34t-29.5 -54.5t-43 -64t-51 -61t-53 -45.5t-50.5 -18q-13 0 -29 11t-30.5 26t-24 31t-9.5 27v8q-21 -21 -42.5 -39.5t-42 -32.5t-39 -22.5t-33.5 -8.5q-24 0 -48.5 16.5t-45 40t-33.5 49.5t-13 46
q0 40 19.5 86t51.5 91t72 86.5t81 73t79 50.5t65 19q32 0 53 -22t31 -48t10 -48t-9 -22q-10 0 -14.5 8.5t-9 19t-12.5 19t-25 8.5q-24 0 -57 -18t-69.5 -48t-72 -68.5t-63.5 -79.5t-45.5 -81.5t-17.5 -73.5q0 -27 23 -27q21 0 47 15.5t52.5 40t53.5 54.5l50.5 58.5t41.5 53
l29 38.5q8 13 12 13t15 -10.5t22.5 -24t20.5 -26.5t9 -18q0 -3 -6.5 -17l-15 -33.5l-18.5 -41t-17 -40t-10 -30.5t3 -12q19 0 40.5 16.5t42.5 41.5t40.5 55l36 57l28 47t16.5 25zM226 507q4 2 7 4t5 4q3 2 5 3q0 -1 -1 -1t-2 -0.5t-2 -0.5q-2 -2 -5.5 -3.5l-8.5 -3.5
q-4 -2 -8.5 -4.5t-9.5 -6.5l-10.5 -6t-10.5 -7l-9.5 -7.5l-9.5 -7.5l-9 -7.5t-7 -6.5l-6.5 -6.5l-4.5 -4.5l-4 -4q1 2 4 4l12 9l17 13l20 15q5 4 10 7t10 7q5 3 9 6t9 5zM-25 271q5 10 11.5 19.5l13.5 19.5l15.5 20l15.5 20t16.5 19.5l17.5 19.5q17 19 36 36.5l38 33.5
l18 15.5t18 13.5q9 7 18 13l17 11q18 12 31 18q3 2 6.5 3t6.5 3q4 2 12 4q4 1 10 3q3 1 7 1q2 0 2.5 0.5t1.5 0.5h2h-6q-2 0 -3.5 -0.5t-3.5 -0.5q-2 -1 -5 -1t-5 -1l-6 -2t-7 -2q-3 -2 -6.5 -3t-6.5 -3q-8 -3 -16 -7t-16 -9q-17 -10 -35.5 -23t-38.5 -29l-38 -33t-37 -37
q-17 -19 -34 -40l-15.5 -20l-14.5 -20q-14 -20 -25 -40q-6 -10 -10 -20q-2 -5 -4.5 -9.5t-4.5 -9.5q-4 -9 -6.5 -17.5t-4.5 -16.5q-2 -4 -2.5 -7.5t-1.5 -6.5q-1 -4 -1 -7t-1 -6q-1 -5 -1 -9.5v-7.5v-7v2q0 3 1 5v7q1 2 1 4.5t1 5.5q0 6 3 12q2 10 4 15q4 15 12 33l9 18
q2 5 5 9.5t6 9.5zM99 108q-2 -1 -4 -3l-1 -1l1 1q2 2 4 3q3 2 6 4.5t8 5.5q4 3 8.5 7t9.5 9q5 4 10 9l10 10t9.5 10t8.5 10q5 5 8.5 9.5t7.5 8.5q3 4 5.5 8t4.5 6q2 3 4 5l-5 -5l-5 -5t-6 -7q-4 -4 -7.5 -8.5t-8.5 -9.5t-9.5 -10t-9.5 -10l-19 -19l-9 -9t-8 -7q-5 -4 -8 -7z
M179 86l9 7.5t7 6.5l6 6q-2 -2 -6 -5q-3 -2 -7.5 -5.5l-9.5 -7.5q-5 -5 -11 -9.5l-13 -9.5l-13.5 -10t-14.5 -10q-4 -2 -7.5 -5t-7.5 -5q-3 -2 -6.5 -4t-7.5 -4t-7.5 -3.5t-7.5 -3.5q-3 -2 -6.5 -2.5t-6.5 -1.5q-2 -1 -6 -1q-2 -1 -6 -1h-9q-2 0 -3.5 0.5t-2.5 0.5h-2h2
q2 -1 3 -1t3 -1q2 0 4.5 -0.5t4.5 0.5h6q4 0 7 1t6.5 1.5t6.5 2.5q4 1 7.5 2.5t7.5 3.5t7.5 4t7.5 4t7.5 5t7.5 5q8 5 14.5 10.5t13.5 10.5t12.5 9.5t10.5 9.5z" />
    <glyph glyph-name="r" unicode="r" horiz-adv-x="373" 
d="M373 333q6 10 19 8.5t25 -10t19.5 -21t2.5 -23.5t-20 -36t-37.5 -57t-50 -66.5t-56.5 -62.5t-57 -46.5t-52 -18.5q-6 0 -21.5 7t-31.5 21.5t-28 35.5t-12 50q0 38 16 81t35.5 83.5l35.5 74t16 51.5q0 4 -15.5 12.5t-29.5 13.5l-40 -79l-40 -79q-7 -14 -18 -9t-21 17.5
t-15.5 28.5t-0.5 25l29.5 64l30.5 64q-17 9 -33 20t-28 26t-19.5 34.5t-7.5 44.5q0 30 11.5 64.5t29.5 68t40.5 64t44 53.5t40 37t29.5 14q12 0 30.5 -10t36 -25.5t30 -35.5t12.5 -41q0 -16 -9.5 -47t-26 -73t-39 -91.5t-49.5 -102.5q17 -7 36.5 -16.5t36 -21t27 -25
t10.5 -28.5q0 -10 -10 -35.5l-23.5 -57.5l-29 -67t-26.5 -64t-15.5 -47.5t4.5 -18.5q17 0 38.5 16t44 41t44 55.5t39.5 58.5l31 50zM4 512q-1 0 -1 1l-2 4q-2 2 -3.5 5l-3.5 7q-4 7 -7 19q-1 3 -1 5.5t-1 5.5q0 3 -0.5 6t-0.5 6v11q1 4 1 12q1 5 1.5 10t1.5 10q2 4 2.5 7.5
t1.5 6.5q0 1 0.5 2t0.5 2v1q-1 0 -1 -1t-0.5 -2t-0.5 -2q-1 -2 -2 -5.5t-3 -8.5q-1 -2 -1 -4.5t-1 -4.5q-2 -6 -2 -11q-1 -3 -1 -11q-1 -4 -1 -12q0 -4 2 -12q0 -4 2 -12q2 -5 4 -9.5t4 -9.5q2 -4 4 -7t4 -5zM34 730q3 5 5.5 10t5.5 10l12 18q2 4 5 8t5 8q5 8 9 13.5t7 10.5
l6 9l-2 -2q-1 -1 -2 -2.5t-3 -3.5q-3 -5 -8 -10t-10 -13q-3 -3 -6 -7l-6 -8l-12 -18q-4 -5 -7 -9.5t-6 -9.5l-12 -21q-2 -5 -5 -10.5l-6 -10.5q-2 -5 -4.5 -10.5t-4.5 -10.5l-4 -10.5l-4 -10.5q-4 -11 -5 -18q-2 -5 -2.5 -9t-1.5 -7q-1 -5 -1 -13q-1 -2 -0.5 -4t-0.5 -4v-2
q0 -1 1 -1v3q0 4 1 8l3 12q1 5 5 15l3.5 9l3.5 9l4 10l4 10l10 20l11 21zM41 555q0 -20 8 -33t24 -24q30 62 55 119t42 101t24.5 70t1.5 26t-20 -12.5t-31 -33.5t-35.5 -47.5t-33.5 -55.5t-25 -57.5t-10 -52.5zM120 563l9.5 21l9.5 21t9 21l8 21q2 5 4 9.5t4 9.5q3 10 6 18
q4 16 8 27q0 2 0.5 4t0.5 4t1 2v1q-1 -5 -4 -10q-2 -5 -5 -11.5t-6 -14.5q-6 -17 -14.5 -37t-18.5 -41l-18 -42l-16 -36q-9 -18 -16 -35h1l6 9q2 5 5.5 10.5t7.5 13.5q8 13 18 35zM94 157q0 -1 -1 -3t-3 -8l-2 -12.5t-2 -14.5q0 -17 3 -27q1 -6 3 -9q1 -2 1 -3q-1 1 -1 3
t-0.5 4t-0.5 5q-1 6 -1 12.5v14.5q1 7 1.5 14t1.5 12q0 7 1 9v3zM124 236q0 2 0.5 3.5t0.5 3.5q0 1 1 2q-1 -1 -1 -2q-1 -1 -1 -2.5t-1 -3.5l-4 -10t-4 -12t-4.5 -14.5t-4.5 -16.5q-1 -4 -2 -8.5t-2 -9.5l-3 -18q-1 -5 -1.5 -9.5t-0.5 -9.5q-1 -5 -0.5 -9t-0.5 -9q1 -5 1 -9
t1 -8q1 -2 1 -4t1 -4q0 -3 2 -7q0 -3 2 -7q1 -2 1.5 -2.5t1.5 -2.5q1 -3 2.5 -5t2.5 -4l4 -4q0 -1 1 -2h1h-1l-1 2q-2 2 -3 5q-4 4 -5 9q-1 1 -1 2t-1 3q-2 4 -2 6q-1 2 -1 4t-1 4q0 2 -0.5 3.5t-0.5 3.5q-1 4 -1 8v9v9t1 9q0 5 0.5 9t1.5 9t1 9.5t2 9.5q1 5 1.5 9t2.5 8
q2 9 4 16.5l4 14.5q3 16 6 22z" />
    <glyph glyph-name="A" unicode="A" 
d="M688 803q4 0 10.5 -10.5t12.5 -23.5t10 -25.5t4 -16.5q0 -2 -13.5 -34.5l-36 -83.5l-51 -116l-59 -132l-60 -131.5l-53 -114.5l-39 -80.5t-18.5 -30.5q-5 0 -16 8t-22 18.5t-19.5 21t-8.5 14.5q0 1 6.5 15.5l17.5 38l26 55.5l32 68q-30 -1 -64 -3t-69 -5t-70 -6.5
l-67 -6.5l-69.5 -88l-51.5 -69l-33 -45t-15 -16q-5 0 -14.5 8.5t-18.5 20.5t-15.5 24t-6.5 19q0 11 24 46t65 85q-11 -1 -17.5 -1.5t-7.5 -0.5q-1 1 -2 11.5t-1.5 23.5t0 24.5t3.5 14.5q2 2 30 7.5t73 11.5l97.5 106.5l107 109l108.5 103.5t102.5 89.5t89 66.5t68.5 35
q7 0 9 -4q1 -2 0 -4q3 0 7 1q8 2 15 2zM504 694q-4 -3 -6 -5l-4 -4l-4 -4q1 1 4 3q2 2 4.5 4l6.5 5l15 11t17 14q5 3 9 6.5t8 6.5q5 3 8.5 6t6.5 5q4 2 6.5 4t4.5 4q1 1 1.5 1t1.5 1q1 0 1 1q-1 -1 -4 -2q-2 -2 -5 -3.5l-7 -3.5t-7.5 -4.5t-8.5 -5.5q-4 -4 -8 -7t-9 -6
l-9 -7.5t-8 -6.5q-4 -4 -7.5 -7t-6.5 -6zM258 457l29 28.5l30 28.5l59.5 57l51.5 51l20.5 20t16.5 15l14 14q-1 -1 -4 -3q-6 -4 -11 -9q-7 -7 -17 -15t-21 -19l-26 -23t-28 -26l-29 -28l-31 -28l-59 -59l-13.5 -13.5t-12.5 -13.5t-12 -13t-11 -12q-6 -6 -10.5 -11t-9.5 -10
q-8 -11 -14 -17l-12 -15q1 2 3 4t4.5 4t5.5 6l36 36zM340 310l27 2t24 2l24 2h-7h-17h-24q-6 -1 -13 -1t-14 -1q-8 -1 -14.5 -1.5t-13.5 -0.5q-6 -1 -12.5 -1.5t-11.5 -1.5t-9.5 -1.5t-7.5 -0.5q-4 -1 -6 -1h7h7.5t9.5 1q5 0 11 0.5t13 0.5q6 1 13 1.5t14 0.5zM395 67
q0 1 1 3t1.5 4t2.5 5q3 5 6 12t6 15t5.5 15.5l4.5 13.5q1 2 1.5 4.5t1.5 4.5t1 4l-2 -4l-2 -4t-2 -5q-3 -5 -6 -12t-6 -15t-5.5 -15.5t-4.5 -12.5q-2 -8 -2 -10q-1 -2 -1 -3zM516 310q1 2 2 4.5t2 4.5t1 3l-6 -12q-6 -11 -15 -30l-10 -20.5t-10 -22.5t-11 -24.5t-11 -25.5
t-10.5 -25.5l-10.5 -24.5l-9.5 -23l-8.5 -21q-5 -10 -8 -18l-5 -13l-3 -9q-1 -2 -1 -3q0 1 1 3t2 3.5l3 4.5q2 5 6 13t9 17q8 20 20 43l10.5 24.5l11.5 25.5q5 13 10.5 25.5l10.5 24.5l9.5 23.5t8.5 20.5l7 18t5 14zM454 333l56 116.5l50 106.5l35.5 79t13.5 36
q-120 -88 -217 -179.5t-172 -176.5q61 7 122 11.5t112 6.5zM589 737q11 8 19.5 15.5l14.5 12.5q7 6 13 10l-4 -2q-2 -2 -4.5 -3.5t-5.5 -3.5l-16 -11.5l-20 -14.5l-23.5 -17.5t-25.5 -20.5l-28 -22.5l-28 -22.5l-13.5 -12l-13.5 -13l-13.5 -11.5t-12.5 -11.5l-12 -12
t-12 -11l-10 -11.5l-10 -10.5l-17.5 -18t-12.5 -14q-3 -3 -4.5 -5.5t-3.5 -4.5l-3 -3l3 3l9 9q3 2 6 5.5t8 7.5q4 4 8.5 8t9.5 9l10.5 10t10.5 11l12 10.5l13 11.5q6 6 12.5 11.5l13.5 11.5l27 24l27.5 23.5l27.5 22.5l25 21z" />
    <glyph glyph-name="B" unicode="B" horiz-adv-x="590" 
d="M556 617q0 -42 -14.5 -75.5t-39.5 -59t-57 -43.5t-67 -31q48 -14 77.5 -54.5t29.5 -126.5q0 -40 -18 -72.5t-46 -58t-62 -43.5t-65.5 -29.5t-57 -17t-35.5 -5.5q-30 0 -48 11.5t-27 27.5t-11.5 32t-2.5 24t4 7.5t11.5 -5t18 -9.5t23.5 -5q25 0 55 8.5t60.5 22.5
t59.5 32.5t51 38.5t35.5 39.5t13.5 36.5q0 19 -16.5 34.5t-44 26.5t-62.5 17t-72 6q-18 0 -35 -3t-31 -6.5t-24.5 -6.5t-14.5 -3t-8.5 9.5t-8.5 20.5q-33 -71 -55 -129t-22 -87q0 -15 2.5 -29t4 -24.5t1 -17t-6.5 -6.5q-5 0 -17 8.5t-24 24.5t-21.5 40t-9.5 54q0 32 21 90
t52.5 126.5t69.5 140l71 130.5q-44 -11 -55 -11q-8 0 -12.5 12t-7 28t-3.5 30.5t-1 19.5q0 2 12.5 6t33.5 9.5t47.5 10.5l53.5 10q17 27 20 27q7 0 15 -5.5t16 -13.5q28 3 50 3q29 0 63 -8t63 -28.5t48.5 -57t19.5 -93.5zM42 343q1 2 1 3.5t1 3.5q0 2 1 3q0 -1 -1 -3
q-2 -4 -3 -7l-12 -24l-15.5 -36t-14.5 -42q-1 -5 -2 -11t-2 -11q-2 -6 -2 -11.5t-1 -10.5v-11q1 -3 1 -10q1 -5 1.5 -9.5t2.5 -8.5q1 -8 5 -15l2 -6t2 -5q2 -6 3 -7l1 -2l-3 9q-3 10 -6 27q-1 4 -1 8.5t-1 9.5v9v10l3 21l2 11.5t3 10.5l6 21q2 5 3.5 10.5t3.5 10.5
q4 10 7 19t6 17t5 14.5t4 11.5zM244 64q4 1 7.5 2.5t5.5 2.5q3 1 5 2q-2 0 -5 -1q-2 -1 -5.5 -2t-7.5 -2q-8 -2 -19 -3.5t-22 -2.5q-5 -1 -10.5 -1h-10.5h-10q-4 1 -9 1q-3 1 -8 1q-2 1 -3 1t-3 1h-4q-1 0 -1 1q0 -1 1 -1t1.5 -0.5t2.5 -0.5q2 -1 3 -1t3 -1t3.5 -1t3.5 -1
t4.5 -1t4.5 -1h10q6 -1 11.5 -0.5t11.5 0.5q5 1 10.5 1.5t10.5 1.5q5 2 10 3t9 2zM402 170q2 2 3 3.5t2 2.5l2 2l-7 -7q-4 -3 -9 -7.5t-12 -9.5q-3 -2 -6 -4.5t-7 -5.5t-8 -5.5t-8 -5.5q-5 -3 -9 -6t-9 -5q-5 -3 -9 -6t-9 -5t-9.5 -5t-9.5 -5t-9.5 -4t-9.5 -4t-9.5 -4
t-8.5 -4q-5 -2 -9 -3l-8 -2q-4 -2 -7.5 -2.5t-6.5 -2.5q-3 -1 -6 -1t-5 -1q-6 -2 -7 -2h-3h3q4 0 7 1q2 1 5 1t6 1q10 2 15 4l8 2t9 3l18 6q5 2 9.5 4.5t9.5 4.5q11 5 19 10q5 2 9.5 5t9.5 6q5 2 9 5t9 6l15 12l7.5 5.5t6.5 5.5l11 9.5t8 7.5zM362 785q-2 0 -3 -0.5t-2 -0.5
h-2h7q3 0 8 -0.5t10 -1.5q3 0 6 -0.5t6 -0.5q8 -2 14 -2q7 -2 14 -3.5t14 -4.5q7 -1 14 -5q5 -2 13 -6q4 -2 6.5 -3.5t5.5 -3.5q6 -3 10 -7q9 -6 14 -11q1 -2 2 -2.5t2 -1.5l1 -1l-1 1q-2 2 -3 4q-2 2 -5 5.5t-8 7.5q-2 2 -5 4t-5 4q-3 2 -6 3.5t-6 3.5t-6.5 3t-6.5 3l-15 6
q-7 2 -14 3.5t-15 3.5q-4 1 -7 1t-6 1q-4 0 -7 0.5t-6 0.5h-18zM344 771q-6 -2 -7 -2q-2 -1 -3 -1h10q10 2 21 0h22h9q-1 1 -2 1q-4 0 -7 1q-5 1 -10.5 1.5t-11.5 0.5h-11t-10 -1zM174 456q81 6 146 27t110 48.5t69 57t24 53.5q0 21 -19 34t-45 20.5t-54 10.5t-46 3
q-21 0 -58 -8l-58 -110z" />
    <glyph glyph-name="C" unicode="C" horiz-adv-x="506" 
d="M526 375q3 9 14.5 12t24 -1t21 -15t4.5 -29q-5 -26 -25.5 -61.5t-51.5 -73.5t-71 -75t-85 -66.5t-92.5 -47.5t-94.5 -18q-23 0 -52.5 17.5t-55.5 47.5t-44 69.5t-18 82.5q0 47 18.5 109t49 127.5t70 129t82.5 113.5t86 81t80 31q17 0 36 -14t35 -34t26.5 -44t10.5 -43
q0 -27 -9 -66t-20.5 -74.5t-23 -60.5t-16.5 -25t-16 7.5t-22.5 17t-20.5 19.5t-9 16q0 4 7 21.5l16.5 42l19 51.5t14.5 50t2.5 38t-16.5 15q-20 0 -51.5 -30t-68 -78t-73 -108.5t-66.5 -121.5t-48.5 -116.5t-18.5 -93.5q0 -20 0.5 -37.5t6.5 -30t20 -20t40 -7.5
q48 0 93.5 16t86 41.5t76 57.5t62 64.5t44 62.5t23.5 51zM37 307q2 5 3.5 11t3.5 12l4 12t4 13l20 49q3 7 6 13t6 13l6 12t6 13q13 25 26.5 48.5l27.5 46.5l13.5 22l12.5 21l13 20l12 18l21.5 31t17.5 24l12 15q3 4 4 6l-5 -5q-2 -2 -5 -6l-7 -9l-18.5 -23.5t-22.5 -30.5
l-12.5 -17.5l-13.5 -19.5l-14 -20.5l-14 -21.5q-29 -45 -54 -96q-14 -26 -24 -51l-10 -25.5l-10 -24.5q-2 -7 -4 -13l-4 -12l-6 -24l-3 -12q-1 -2 -1 -5t-1 -6t-1 -5.5t-1 -5.5t-1 -5.5t-1 -5.5q0 -2 -0.5 -5t-0.5 -5q0 -7 -1 -10q0 -5 -0.5 -9t0.5 -9v-16q0 -4 0.5 -7.5
t0.5 -6.5q0 -4 1 -5v-6q2 -6 2 -7q0 -2 0.5 -3t0.5 -2v-2v2q0 1 -0.5 2t-0.5 3q0 4 -1 8v10q-1 5 -1 14v16q0 4 0.5 8.5t1.5 9.5q0 2 0.5 4.5t0.5 5.5q1 2 1 4.5t1 5.5q0 2 0.5 5t0.5 5q1 3 1.5 5.5t1.5 5.5t1 5.5t1 5.5zM57 323q3 10 6.5 20.5t8.5 21.5l8 21l8 20
q5 10 8.5 19t7.5 17l12 24l5 10q-2 -4 -5 -9q-2 -5 -6 -11t-8 -14l-8 -16.5l-9 -18.5l-8 -20t-9 -21q-8 -22 -14 -42q-2 -5 -3 -10l-2 -10q-2 -5 -2.5 -9t-1.5 -9q-2 -9 -3 -15q-1 -5 -1 -12q-1 -4 -1 -8v-3v3q0 4 1 8q1 2 1 5t1 6q1 4 2 7.5t2 7.5q1 5 2 9t2 9q2 5 3 10
t3 10z" />
    <glyph glyph-name="D" unicode="D" horiz-adv-x="662" 
d="M420 807q52 0 94.5 -17t73 -52t47 -89t16.5 -129q0 -64 -29 -127.5t-75 -121.5t-103.5 -108.5t-114.5 -87t-107.5 -57.5t-83.5 -21q-11 0 -26 8.5t-29 20.5q2 -11 1 -17.5t-7 -6.5q-7 0 -20 7.5t-25.5 23t-22 39t-9.5 56.5q0 28 12 68t32 88t46 100.5l54.5 105l57 102.5
l54.5 92l-54.5 -19t-30.5 -8q-9 0 -16.5 9.5t-13.5 21.5t-9.5 24.5t-3.5 18.5q0 4 16.5 13t44 19.5t64 20t76.5 15.5q13 21 15 21q15 0 32 -15q11 1 22 1.5t22 0.5zM168 470q-4 -8 -9 -16.5t-10 -18.5l-10 -20l-10 -21l-9.5 -21t-9.5 -20t-8.5 -19t-7.5 -17l-5.5 -15
t-4.5 -12q-2 -6 -2 -7q-1 -2 -1 -3q1 5 4 10l4.5 11.5t6.5 14.5t8 17t9 19q9 20 20 40l19.5 40.5l17.5 35.5l17 35q-2 -4 -5 -9q-2 -5 -6 -10.5t-8 -13.5zM31 196l10.5 34t12.5 34l13.5 33.5t14.5 32.5l13.5 30t11.5 27q6 12 10.5 22t8.5 18q4 9 8 15q-1 -2 -3 -4t-6 -10
t-9.5 -17.5t-11.5 -21.5q-7 -12 -14 -26t-14 -30q-8 -16 -15 -32.5l-14 -33.5t-12.5 -34.5l-10.5 -34.5l-2 -8l-2 -8q-2 -10 -4 -16q-1 -8 -2 -15t-2 -15q-2 -29 3 -44q1 -3 3 -7q0 -2 1 -2.5t1 -2.5l2 -2v-1v1q0 1 -0.5 1t-0.5 2q-2 2 -2 5q-2 2 -2 6q-1 5 -1.5 9.5
t-0.5 9.5q0 6 0.5 12t1.5 13l2 14t3 15q3 17 9 31zM87 66q34 0 85 21.5t107.5 58t112.5 86.5t101.5 106.5t73.5 117.5t28 120q0 42 -13.5 69.5t-37 44t-55 23.5t-67.5 7q-8 0 -16.5 -0.5t-17.5 -1.5l-50.5 -77l-65 -105.5l-69.5 -120t-63.5 -122.5t-46 -112.5t-17.5 -88.5
v-13t1 -11q6 -2 10 -2zM441 235q2 3 4.5 5.5l4.5 4.5t3 4l-4 -4q-3 -2 -10 -9l-28 -28l-15.5 -15t-13.5 -12q-7 -7 -10 -9q-2 -2 -3 -2l-1 -1l1 1l4 2q2 1 4.5 3t6.5 4q8 6 14 12q4 3 7.5 6.5t8.5 7.5l15 15.5t12 14.5zM510 341q6 8 7 9l2 4l-9 -13l-12 -14.5l-15 -18.5
t-18 -21l-21 -23l-24 -24l-6 -6t-7 -6l-13 -11q-6 -6 -12.5 -11.5l-13.5 -11.5l-13.5 -10l-12.5 -10l-13.5 -9.5l-12.5 -8.5l-12 -9q-3 -2 -6 -3.5t-5 -3.5q-6 -3 -10.5 -6.5t-9.5 -6.5q-9 -4 -16 -9l-6 -3l-4 -2l-4 -2l4 2l4 2l6 3l16 8l10 6t11 6q3 2 6 3.5t6 3.5l6 4l6 4
q6 5 12.5 9t13.5 9q6 5 13 10t13 11q7 5 13.5 10.5l13.5 11.5l13 12l12 12q7 6 12.5 12l11.5 12q22 24 39 45l14 19.5t11 14.5z" />
    <glyph glyph-name="E" unicode="E" horiz-adv-x="579" 
d="M668 793q2 -2 1.5 -16t-3.5 -30t-7 -28.5t-9 -12.5t-35.5 1.5t-76 3t-99.5 2t-106 -2.5l-52.5 -113t-51.5 -121q22 -1 54 -1.5l62 -1t53 -1t26 -0.5q9 0 13 -3t2 -14q0 -5 -1.5 -13.5l-3 -17t-4 -16.5t-4.5 -11q-4 -7 -6 -10t-15 -3q-5 0 -29.5 0.5t-56.5 0.5h-66.5
h-59.5l-59.5 -155l-47.5 -129q24 1 56 1t65.5 -0.5l66 -1t57.5 -0.5q59 0 97.5 -5t41.5 -12q1 -3 0.5 -17t-2 -29t-5 -27.5t-8.5 -12.5t-33.5 2l-68 5t-82.5 5t-77 2q-35 0 -73.5 -1t-70.5 -3q-3 -15 -6 -15q-7 0 -38 13h-18.5t-9.5 2q-3 3 -1 20q-7 10 -7 17q0 5 13 41.5
t35 92l50 125l57.5 140.5l58 138l51.5 119q-18 -2 -27.5 4.5t-10.5 31.5q-1 18 -3 27.5t-3.5 14.5t-1 7.5t5.5 7.5q2 2 26 3t62 2q7 10 8 10q9 0 19 -10q35 0 74.5 0.5t79 0l76 -1t64.5 -1t45.5 -1.5t18.5 -2zM22 139q1 4 2 7t2 5q1 3 1 4q-1 -1 -2 -4l-2.5 -5t-3.5 -6
l-6.5 -15.5t-6.5 -17.5q-4 -9 -5.5 -18t-3.5 -16q-2 -4 -2 -7t-1 -5q-1 -3 -1 -4q0 1 1 4q1 2 2 4.5t3 6.5q3 14 11 33q3 10 6 18.5t6 15.5zM168 21q-3 -1 -7 -1q-2 0 -2 -1h9h24q8 0 16 -0.5t18 -0.5q9 0 18.5 -0.5t19.5 -0.5q10 -1 20 -1t19 -1q9 0 17.5 -0.5t16.5 -0.5
h13.5t10.5 -1h9q-1 1 -2 1q-4 0 -7 1q-9 1 -24 3q-8 2 -16 2.5t-18 1.5q-9 1 -18.5 1.5t-19.5 0.5q-11 1 -20.5 1h-18.5q-10 0 -18 -0.5t-16 -1.5q-14 0 -24 -2zM149 427q1 4 2 7t2 5q1 3 1 5q-1 -1 -2 -4q-1 -2 -2 -5t-3 -7l-7 -16t-8 -19l-7.5 -19t-5.5 -17q-2 -4 -3 -7
t-2 -5q-1 -3 -1 -5l8 16l7 16t8 19l7.5 19t5.5 17zM238 669q1 4 2 7.5t2 5.5q1 3 1 5q-1 -1 -2 -4q-1 -2 -2.5 -5.5t-3.5 -7.5q-3 -8 -8 -19.5t-12 -25.5l-13 -30l-15 -33t-15.5 -35.5l-15.5 -37.5l-15.5 -38l-14.5 -36l-13.5 -34.5l-12.5 -30.5l-9 -26t-7 -20l-6 -18l27 62
l27 64l31 74l14.5 37.5t15.5 35.5q8 18 14 34t12 30t10.5 26t8.5 20zM569 775q3 0 6 1h-6q-3 0 -6 0.5t-8 0.5t-9.5 0.5t-10.5 0.5h-23h-23q-5 0 -10 -0.5t-10 -0.5t-8.5 -0.5t-5.5 -0.5h-5q2 -1 5 -1h14h10t10 -1h23h23q5 0 10 0.5t10 0.5h14zM650 785q2 0 3 -0.5t2 -0.5h2
q-1 1 -2 1q-3 0 -5 1q-4 0 -9.5 0.5t-11.5 1.5q-7 0 -14.5 0.5t-15.5 0.5q-8 1 -16.5 1h-16.5h-17.5t-16.5 1q-8 0 -15.5 -0.5t-14.5 -0.5t-11.5 -0.5t-8.5 -0.5h-8h8q4 0 8.5 -0.5t11.5 -0.5t14.5 -0.5t15.5 -0.5h16.5t17.5 -1h63q6 -1 11.5 -1h9.5z" />
    <glyph glyph-name="F" unicode="F" horiz-adv-x="498" 
d="M752 785q5 -5 7 -20t1.5 -30.5t-3.5 -28t-7 -12.5q-9 0 -49 6t-119 6q-81 0 -143.5 -1t-107.5 -3l-38 -102l-49 -129q19 0 42 0.5t43.5 0.5t35 -0.5t16.5 -1.5q2 -2 1.5 -12.5t-3 -23t-7.5 -24.5t-11 -16q-5 -3 -21.5 -5t-38.5 -3t-46.5 -1h-44.5l-56.5 -143l-49.5 -125
l-36.5 -88.5t-16.5 -33.5q-4 0 -16.5 6.5t-26 15.5t-24 18t-10.5 13q0 1 13 34.5l34.5 87l49 122.5l56.5 141l57.5 141l51.5 125q-18 0 -20 2t-3.5 16t-1.5 30.5t1 31t4 17.5q2 2 18.5 2.5t44.5 1.5l11 22.5t6 8.5q5 0 15.5 -9.5t20.5 -21.5q39 0 84.5 -0.5t91.5 -1.5l89 -2
t76.5 -3t55 -4t23.5 -4zM0 76q-1 -2 -1 -5v-2l3 6q2 4 3.5 7.5l3.5 8.5q2 4 2.5 8t1.5 8q2 4 2 5v2q0 -1 -1 -2t-3 -5q-3 -6 -6 -15q-2 -5 -3 -8.5t-2 -7.5zM34 120l11 30.5l9 25.5q2 6 3 10.5t2 8.5q2 4 2 5v2l-3 -6q-2 -4 -4 -8.5t-4 -9.5q-5 -11 -11 -25.5l-12 -29.5
l-10 -29.5l-9 -26.5q-2 -5 -3 -10t-3 -8q-1 -3 -1 -5q0 -1 -1 -2l1 1q1 1 3 5q2 3 4 8l4 10l11 25t11 29zM80 204q2 8 3 11t1 4l-2 -4q-1 -2 -2 -4.5t-2 -5.5q-3 -7 -6 -15l-6 -16l-5.5 -17l-4.5 -15q-2 -3 -2 -5.5t-1 -4.5q-1 -3 -1 -4q0 2 1 4l2 4l3 6q2 6 5 14l6 16
q3 9 6 17t5 15zM214 573q5 11 8 20.5t6 16.5q3 8 6 14q-2 -6 -6 -14l-7 -16l-9 -20t-10 -24.5t-11 -27.5l-12 -29l-12 -30l-12 -30l-12 -29l-10 -27.5t-10 -24.5q-10 -25 -14 -37q-3 -8 -5 -14q2 6 6 14q3 7 6.5 16t8.5 20t10 24.5t11 27.5l12 29l12 30q7 15 13 30t11 29
q6 14 10.5 27.5t9.5 24.5z" />
    <glyph glyph-name="G" unicode="G" horiz-adv-x="649" 
d="M649 390q8 -6 4.5 -18t-17 -24t-36 -21t-51.5 -9q-8 -1 -16.5 -1t-17.5 -1q-10 -23 -28.5 -56t-43.5 -68.5t-56 -70.5t-66 -63t-73.5 -45t-78.5 -17q-23 0 -52.5 14.5t-55.5 44.5t-43.5 75t-17.5 106q0 49 25.5 111t67 126t93.5 125t105 109t102 77t85 29q32 0 53 -13
t34 -31.5t18 -40.5t5 -40t-9.5 -44.5t-22 -51.5t-24 -42.5t-15.5 -17.5q-5 0 -13.5 4.5t-16.5 12t-14.5 17t-6.5 19.5q0 12 11 33t20.5 41t10.5 34.5t-20 14.5q-36 0 -80.5 -26.5t-89.5 -70.5t-87 -101t-74.5 -118t-52.5 -121t-20 -111q0 -16 2 -30.5t9.5 -25.5t22.5 -17.5
t42 -6.5q48 0 86.5 23t69.5 57t53.5 72t37.5 67q-30 -5 -45 -5.5t-26 -0.5t-19 13.5t-13 31t-7.5 34.5t-2.5 25q0 3 25 5t62.5 2.5t82 0t84 -2.5t68 -5t33.5 -7zM561 635q-2 -5 -4 -11q-1 -3 -2 -5q0 1 2 4l2.5 5l3.5 7q2 3 3.5 7l3.5 9q4 11 5 20q1 2 1 5t1 5v10v10
q-1 3 -1 8q-1 5 -2 8t-2 5l-2 4v-1q0 -1 0.5 -2t0.5 -2q1 -1 1 -2t1 -3v-7q1 -2 1 -8v-9q0 -3 -0.5 -5.5t-0.5 -4.5q0 -4 -2 -10q-1 -5 -1.5 -10t-2.5 -10t-3 -9t-3 -8zM360 726q2 2 4.5 4t4.5 4l3 3l-4 -2q-2 -2 -4.5 -3.5t-4.5 -3.5l-13 -10.5l-14 -11.5q-8 -6 -15 -12
t-12 -11l-11 -11q1 0 3 2q2 1 10 7q5 5 12 10.5l15 11.5t14.5 12zM255 650q-2 -3 -4 -4.5t-3 -3.5q-2 -2 -2 -3q0 1 2 3q4 4 8 7q5 5 12.5 11.5t15.5 14.5q5 4 9.5 8t9.5 9t10.5 9t10.5 9t11 9.5t12 9.5t12 9.5t13 8.5l13 9q3 2 6 4.5t7 4.5l6 4t7 4q3 2 6 3.5l7 3.5l12 6
q5 1 13 5q3 2 6 2t6 2q8 2 12 2q3 1 5.5 1.5t5.5 0.5h10q2 1 4 0.5t4 -0.5q3 -1 8 -1q3 -2 5.5 -2t4.5 -1t4 -1h-1q-2 0 -3 1l-4 2t-6 2q-2 1 -3.5 1t-3.5 1q-2 0 -4.5 0.5t-4.5 0.5q-7 0 -10 1q-3 0 -6 -0.5t-6 -0.5l-12 -3q-3 -1 -6.5 -1t-6.5 -2q-3 -1 -6.5 -2t-6.5 -2
q-3 -2 -6.5 -3t-6.5 -3l-7 -3.5l-7 -3.5q-3 -2 -6.5 -4t-6.5 -4q-4 -2 -7 -4t-7 -4l-12 -9l-13 -9.5t-12 -9.5l-12 -10t-11 -10l-11 -9.5t-10 -9.5l-9.5 -9.5l-8.5 -8.5q-8 -8 -14.5 -15.5t-11.5 -12.5zM52 370q2 5 5 10t5 10q9 19 15 30q4 6 5 8t2 2q-1 0 -2 -2t-5 -8
q-8 -12 -17 -29q-5 -9 -10 -19.5t-10 -23.5q-3 -6 -5 -12t-4 -13l-4 -12.5l-4 -13.5t-3 -13.5l-2 -13.5l-2 -13.5t-1 -13.5q-1 -6 -1 -12.5v-12.5q1 -5 1 -11t1 -11q1 -11 3 -18q1 -9 3 -15q1 -3 1 -5t1 -4q0 -2 1 -3q-1 1 -1 3t-0.5 4.5t-0.5 5.5q-1 3 -1.5 6t-1.5 8
q-1 4 -1 8.5t-1 9.5t-1 11v12q0 5 0.5 11.5t0.5 12.5q1 7 1.5 13t1.5 13t2.5 13.5t3.5 13.5t3.5 13.5t3.5 12.5q2 7 4.5 13t4.5 12t4.5 12zM247 23q1 1 2 1t2 1q1 0 2 1q-1 -1 -2 -1t-2 -0.5t-3 -0.5q-7 -3 -16 -6q-13 -4 -24 -5q-3 -1 -6.5 -1t-7.5 -1q-3 0 -6.5 -0.5
t-7.5 0.5q-4 -1 -7 -0.5t-7 0.5q-4 1 -7 1t-7 1l-12 3q-8 2 -11 3q-3 2 -9 4q-3 1 -7 3l-6 3l1 -1q1 -1 5 -3q1 -1 2.5 -1.5t3.5 -1.5q2 -2 4.5 -2.5t4.5 -2.5q3 -1 5.5 -2t5.5 -2q8 -2 13 -3q4 -1 14 -3h14q10 0 15 1q4 0 14 2q3 0 6 1l6 2q8 2 11 3q5 2 9.5 3.5t7.5 3.5z
M317 79q0 -1 -1 -1t-1.5 -0.5t-1.5 -0.5q-2 -2 -10 -8l-15.5 -8.5l-17.5 -9.5q-10 -5 -19 -9l-16 -7q-4 -2 -7 -2.5t-5 -1.5q-3 -1 -4 -2q2 0 5 1q2 1 5 1t7 2t7.5 3t8.5 3t9.5 4.5t9.5 4.5q12 5 18 10q5 2 8.5 5t6.5 5q8 6 10 8zM636 381q-1 0 -4 1t-11 3t-16.5 3t-18.5 1
q-19 2 -34 0q-5 -1 -11 -1q-3 0 -5 -1q2 -1 5 -1q2 0 4.5 -0.5t6.5 -0.5q7 -1 16 -2t18 -1q9 -1 18 -1h16h16z" />
    <glyph glyph-name="H" unicode="H" horiz-adv-x="671" 
d="M634 805q3 4 14.5 -6t24.5 -24.5t22.5 -28t8.5 -16.5q-1 -1 -14.5 -33l-35 -83.5l-49 -116.5l-56.5 -132.5l-57 -132.5l-50 -116l-35.5 -82.5t-14.5 -32.5q-3 -3 -16 5.5t-27.5 20.5t-25 23t-7.5 13q2 1 14.5 28.5l32.5 73l45 104.5l52 122q-20 -2 -48.5 -5.5t-61.5 -7
l-68.5 -7.5t-68.5 -7l-61.5 -129.5l-53 -113l-38 -80t-15.5 -31.5q-3 -3 -16 6t-27.5 21t-25 22.5t-7.5 12.5q1 1 12.5 24l30 61.5l42.5 89l50 106.5q-31 -2 -32 -1q-2 1 -2 14.5v29t1 28.5t3 15t22 3.5t52 4.5l61 131l53.5 114.5l38 81.5l14.5 31q3 4 14.5 -6t24.5 -24.5
t23 -28t9 -16.5q-1 -1 -11.5 -24l-28.5 -60.5l-41.5 -87l-48.5 -104.5q35 2 70.5 4.5t67.5 4t57.5 3t39.5 2.5l53.5 125.5l45.5 107.5l32 75.5zM73 240l9 18l12 23q6 14 13 28.5l15 31.5q2 4 3.5 7.5t3.5 7.5q-6 0 -8 -1q-4 -8 -5 -11q-16 -35 -26 -61q-6 -13 -10.5 -24
t-8.5 -19q-2 -4 -2.5 -7t-1.5 -5q-1 -3 -2 -4zM131 340l3.5 9t3.5 8h-3q-2 -4 -3.5 -7.5l-3.5 -8.5l-6 -12.5t-7 -13.5q-3 -8 -6 -14.5t-5 -13.5l-6 -12t-5 -11t-3.5 -9.5t-3.5 -7.5q-2 -4 -3 -7l3 6q2 3 4 7.5t5 9.5l6 10.5t6 12.5q4 13 12 27zM228 581q2 4 3 7t2 5
q1 3 2 4l-2 -4q-1 -2 -2.5 -4.5t-3.5 -6.5l-9 -18.5l-11 -23.5q-7 -13 -14 -28l-15 -31q-4 -8 -7.5 -16.5l-7.5 -17.5q2 0 4 0.5t4 0.5q3 8 6.5 15t6.5 15l14.5 31.5l12.5 28.5t10 24.5zM435 399q5 1 8 1.5t6 1.5t6 1h-6q-3 0 -6.5 -0.5t-8.5 -0.5q-5 -1 -10 -1.5t-11 -0.5
q-5 -1 -11.5 -1.5t-12.5 -1.5t-12.5 -1.5t-11.5 -1.5l-11.5 -2t-10.5 -1q-5 -1 -9 -1.5t-6 -1.5q-4 -1 -5 -1h6h6.5t8.5 1t10 1.5t11 0.5l24 3q7 1 13 1.5t12 1.5l10.5 2t10.5 1zM410 240q0 2 0.5 3t0.5 2t1 2q0 -1 -1 -2t-3 -5q-2 -3 -3.5 -7.5t-4.5 -10.5q-13 -24 -25 -56
q-7 -15 -13 -30t-10 -27l-3.5 -10.5t-3.5 -8.5q-1 -3 -1 -5q0 -1 -1 -2q0 1 1 2t1 2t2 3l9 18q6 11 12 25.5t13 29.5l12 31l11 27q2 5 3 10t3 9z" />
    <glyph glyph-name="I" unicode="I" horiz-adv-x="280" 
d="M248 805q2 4 14 -6t25.5 -24.5t23.5 -28t9 -16.5q-1 -1 -13 -33l-31.5 -83l-44 -116l-50 -133l-49.5 -133l-43.5 -116l-31.5 -82.5t-13 -32.5q-3 -3 -16.5 6t-28 21t-25 22.5t-7.5 12.5q2 1 14.5 33.5l32.5 84.5l45 118.5l51 135.5l50.5 135.5l44 118.5l31.5 83.5
t12 32.5zM12 62q1 1 2 4q2 6 4 11q4 7 7.5 15.5t5.5 17.5q4 9 7 17.5t5 15.5q2 8 3 11t2 4l-2 -4q-1 -2 -2.5 -4.5t-2.5 -5.5q-2 -7 -6 -15.5t-7 -17.5l-6 -17.5t-6 -15.5q-1 -5 -3 -11q-1 -3 -1 -5zM53 126q5 11 8.5 22t7.5 22q5 11 8.5 22.5t7.5 22.5q5 11 8 20.5l6 18.5
q2 8 4.5 15.5t3.5 12.5q1 3 3 7q1 2 1 3l-1 -2l-2 -4l-2 -4q-2 -5 -5 -11.5l-7 -15.5q-2 -8 -6 -17.5l-9 -20.5l-8 -22t-9 -22l-8 -22l-8 -22q-3 -11 -6.5 -21t-5.5 -19q-4 -8 -6 -15t-4 -12l-1.5 -4.5t-0.5 -3.5v-3q-1 1 0 3q0 1 4 7q2 5 4.5 12t7.5 15l6.5 17.5t8.5 20.5z
M135 307q0 2 0.5 3t0.5 2t1 2q0 -1 -1 -2t-3 -5q-2 -3 -3.5 -8t-3.5 -10q-10 -23 -23 -57q-6 -16 -10.5 -31t-8.5 -27q-2 -7 -3 -11.5t-2 -8.5q-1 -3 -1 -6q0 -1 -1 -2q0 1 1 2t1 2t1 3q2 4 4 8.5t4 10.5q6 11 11.5 26l11.5 31l10 31l9 27q2 6 2.5 11t2.5 9z" />
    <glyph glyph-name="J" unicode="J" horiz-adv-x="544" 
d="M514 806q4 0 15.5 -10t23.5 -22.5t22 -24t10 -14.5q0 -2 -9.5 -34t-27 -84t-42.5 -118t-55.5 -134t-65.5 -133.5t-72.5 -117t-77.5 -82.5t-80 -31q-18 0 -43 11.5t-49 34.5t-41.5 59t-20.5 86q-1 32 12 75t30.5 81.5t33 65t19.5 26.5t13.5 -8t19 -18t16.5 -19.5t7 -12.5
t-14.5 -25t-31.5 -55t-30.5 -73t-11.5 -80q2 -38 12.5 -59.5t35.5 -21.5q32 0 66 31.5t67.5 83.5t66 118.5t61.5 135.5t54 135.5l43.5 118.5l30 83.5t13.5 31.5zM42 91q2 -2 2.5 -3l1.5 -3t2 -3q0 1 -1 3q-2 4 -3 7q-2 2 -3 5t-3 6q-2 4 -3 7.5t-3 7.5l-6 18q-2 5 -2.5 10
t-2.5 10q0 5 -1 11t-1 11q0 8 -1 11v12l1 11q2 8 2 11q0 11 3 22q2 5 2.5 10t1.5 10t1.5 9t2.5 9q4 10 5 15q0 5 2 11q1 2 1 4t1 4q0 2 1 3q0 -1 -1 -3q-2 -4 -3 -7q-2 -5 -4 -11.5t-6 -14.5q-4 -9 -5 -17q-2 -5 -3 -10t-3 -10l-2 -11.5t-1 -10.5q-1 -3 -1 -6t-1 -6l-1 -12
v-11q1 -4 1 -12q0 -6 1 -11.5l2 -11.5q0 -2 1 -5t2 -5q1 -4 3 -10q2 -5 3.5 -9.5t3.5 -8.5q2 -5 4 -8.5t4 -6.5q4 -6 6 -11zM44 268l6 21.5t4 18.5q2 5 2.5 8.5t1.5 5.5q1 3 2 5q-1 0 -1 -1q-1 -1 -1 -1.5t-1 -1.5q-2 -2 -3.5 -5.5t-3.5 -7.5t-3 -8.5t-3 -9.5t-3.5 -11
t-3.5 -11q0 -6 -1 -12t-3 -11q-1 -5 -1 -10t-1 -10v-14v-5v1q0 2 1 4t2 5.5t1 8.5q2 8 4.5 19t4.5 22zM222 87q2 2 3.5 4.5t3.5 4.5q1 2 2 3q-6 -5 -11 -10l-11 -11t-13 -11q-4 -2 -7.5 -5t-7.5 -5t-7 -4t-7 -4q-3 -2 -5.5 -3t-4.5 -2q-1 -1 -2 -1t-1 -1q0 1 1 1t3 1
q4 0 10 3q3 1 7 3q4 3 8 4q4 2 7.5 5t7.5 5q3 3 6.5 6t6.5 6t5.5 6t5.5 5zM331 313q2 3 2.5 5.5t1.5 4.5l2 4q-3 -6 -7 -13q-4 -6 -8.5 -15t-9.5 -20l-6 -11.5t-6 -12.5q-8 -12 -14 -25q-3 -8 -7 -14.5t-9 -13.5l-7.5 -13.5t-8.5 -14.5l-8 -13.5t-9 -13.5q-2 -3 -4.5 -6
t-4.5 -7l-9 -12l-9.5 -11.5l-8.5 -10.5q-3 -2 -5.5 -5t-4.5 -5q-3 -2 -5.5 -4t-4.5 -4t-4 -3.5t-4 -3.5l-9 -6q-4 -3 -7.5 -4.5t-7.5 -3.5q-3 -2 -5.5 -2.5t-4.5 -1.5q-2 0 -2 -0.5t-1 -0.5h-1h1q1 0 3 1t4.5 1t6.5 2q3 2 7 3t9 4l4 2t5 3q6 4 9 7q2 2 4.5 4t5.5 4
q2 2 5 4.5t5 4.5q3 2 5.5 5t4.5 5q3 3 5 6t5 6q6 8 10 12l4.5 6.5l4.5 6.5q5 7 9 13.5l8 13.5q5 8 8.5 14.5t8.5 13.5l7.5 14.5l7.5 13.5q3 7 6.5 13.5t6.5 13.5q3 6 5.5 12t4.5 12q6 11 9.5 20t6.5 16z" />
    <glyph glyph-name="K" unicode="K" horiz-adv-x="566" 
d="M657 729q0 -1 -17 -20.5l-46 -50.5l-68 -71.5l-83 -84l-91 -87l-92 -81.5q9 -31 25.5 -63t35.5 -63t39.5 -59.5l36.5 -50.5l26.5 -37t10.5 -19q0 -7 -10 -12t-22.5 -8.5t-25.5 -5t-19 -1.5q-4 0 -15 13t-26.5 34t-33 49t-33.5 58t-29.5 60t-20.5 56q-9 -7 -18 -13
t-17 -12l-44 -100.5l-37 -82.5t-26.5 -55.5t-11.5 -20.5q-5 0 -15.5 8t-22 18.5t-20 20.5t-8.5 14q0 2 13.5 33l35.5 81.5l50 114.5l57 131l57 131.5l50 116l35.5 85t13.5 37.5q0 7 2 10.5t10 3.5q6 0 16.5 -9t21 -20.5t18 -22.5t7.5 -15q0 -2 -11.5 -30l-30 -73l-43 -103
l-51.5 -120q75 68 142.5 137l119.5 124.5l84 90.5t35 35t11 -10t15.5 -22.5t13.5 -24t6 -14.5zM11 80q5 9 10.5 20.5t10.5 24.5q5 12 9.5 24l8.5 22l5 15q0 2 0.5 2.5t0.5 1.5t1 2l-1 -1q-1 -1 -1.5 -2t-1.5 -2q-1 -3 -3 -6.5t-4 -8.5q-5 -9 -10.5 -20.5t-10.5 -23.5
l-9.5 -24.5l-8.5 -21.5q-2 -5 -3 -9t-2 -7q-1 -2 -1 -5q0 -1 -1 -1l1 1q1 1 1 2t1 3q4 6 8 14zM76 200q1 3 2 5.5t2 4.5t1 4l-2 -4l-2 -4t-3 -5q-3 -6 -6.5 -14t-7.5 -16q-3 -8 -6.5 -16t-5.5 -15q-2 -3 -2.5 -5.5t-1.5 -4.5q-1 -3 -1 -4l7 14q3 6 6.5 14t7.5 16t7 16t5 14z
M198 516l16 39l16 37t14.5 35t12.5 31q5 14 10 26.5l8 20.5q4 10 5 13t2 5q-1 -1 -2 -4q-1 -2 -2.5 -5.5t-3.5 -7.5q-4 -8 -9.5 -20l-11.5 -26q-7 -14 -14 -31t-15 -34l-16.5 -37t-16.5 -39l-16 -38l-16 -37t-14.5 -35t-12.5 -31l-10.5 -27l-7.5 -20q-2 -5 -3 -8.5t-2 -5.5
q-1 -3 -2 -4q1 1 2 4t6 13q4 8 9.5 20l11.5 26q7 14 14 30.5l15 34.5l16.5 37zM496 608q-4 -5 -6.5 -8.5t-4.5 -5.5l-5 -5l5 5l5 5t8 7q4 5 8 9l9 9l10 10.5l10 10.5l10 10.5l10 10.5t9 9.5t8 9.5q3 4 6 7.5t5 5.5l5 5q-2 -1 -5 -4l-13 -13q-4 -4 -8 -8.5t-9 -9.5
q-11 -9 -20 -20q-5 -6 -10 -11l-10 -10t-9 -10t-8 -9zM428 514l28.5 28l29.5 29l28 30l28 29l24.5 27.5t22.5 24.5t19.5 20.5t13.5 16.5l5 6.5t4 4.5l4 4l-14 -14l-35 -35l-49.5 -51l-56.5 -58l-28 -29l-28 -29l-50 -50l-20 -19.5t-15 -15.5q-7 -8 -13 -14l14 12l16.5 14.5
t20.5 19.5l24 23z" />
    <glyph glyph-name="L" unicode="L" horiz-adv-x="578" 
d="M491 94q2 -2 1 -16t-4.5 -30t-8 -28.5t-9.5 -12.5q-3 0 -21.5 1l-47.5 2.5t-66 2.5t-76 1t-79 -1.5t-74 -5.5q-11 -2 -19.5 -3l-16.5 -2q0 -1 -1 -1h-3q-19 0 -25 10q-16 7 -30 17.5t-14 22.5q0 5 13.5 40t36 88l51 119.5l59 135.5l60.5 134l54 116t40 82t20 31
q10 0 20.5 -9.5t19.5 -20.5q11 -13 21 -30q-39 -72 -79.5 -159l-78 -175l-69.5 -168l-55 -137q32 1 72.5 1h82.5t82.5 -0.5t72 -1t51 -1.5t20.5 -2zM179 423q2 6 4.5 11.5t4.5 9.5t3 8l-4 -8l-4.5 -9l-5.5 -11q-2 -7 -5.5 -14l-7.5 -15q-3 -8 -6.5 -16.5l-7.5 -17.5
q-4 -8 -7.5 -16.5t-6.5 -16.5q-4 -8 -7 -15.5l-6 -14.5q-2 -7 -4 -12t-4 -9t-3 -8l4 8t4 8.5l5 11.5t6.5 14t6.5 15q4 8 7.5 16.5l7.5 17.5q8 18 14 34q7 14 12 29zM94 258q4 8 9 19l11 25l13.5 30l15.5 34l16 35l16 37l16 37.5l16 35.5t15 33.5l13 30.5t10.5 25.5t8.5 19.5
q4 10 5 13t2 5q-1 -2 -2 -5l-2.5 -5l-3.5 -7q-5 -8 -10 -19t-12 -25t-14 -30l-15 -33l-16.5 -35.5l-16.5 -37.5l-16 -37.5l-16 -35.5t-14.5 -33.5l-12.5 -30.5t-10 -26t-8 -20q-2 -5 -2.5 -8t-1.5 -5q-1 -3 -2 -5q1 2 2 5t6 13zM250 38q2 -1 6 -1h17q5 -1 11 -1h13
q7 -1 13.5 -1h14.5h14t13 -1q7 0 13 0.5t12 0.5h23q-2 1 -6 1h-7.5t-9.5 1h-11.5t-13.5 1h-13t-14 1h-28h-24q-5 0 -9.5 -0.5t-7.5 -0.5h-6zM452 21q-3 0 -7 1q-3 1 -8 1t-10 1t-11.5 1t-13.5 1h-15t-15 1h-29h-26q-6 0 -10.5 -0.5t-7.5 -0.5h-7h7q3 0 7.5 -0.5t10.5 -0.5
q5 0 11.5 -0.5t14.5 -0.5q7 0 14 -0.5t15 -0.5z" />
    <glyph glyph-name="N" unicode="N" horiz-adv-x="691" 
d="M690 793q4 0 13.5 -8.5t18.5 -19.5t16 -23t7 -19q0 -3 -11 -30t-30 -69l-43.5 -96l-51 -112l-52 -116l-47 -108.5l-37 -89.5t-20.5 -59q-2 -7 -8.5 -6.5t-14.5 3.5q0 -22 -2 -24q-3 -3 -15 -0.5t-26 7.5l-26.5 9.5t-15.5 6.5t-5 12t-4.5 33t-6 63t-7.5 102
q-2 30 -2.5 68.5t-0.5 81.5t1 87.5t3 87.5q-33 -67 -64 -136.5l-57.5 -133.5l-49 -120l-39 -98l-26.5 -66t-12 -24q-4 0 -16 5t-25 12.5t-23.5 17t-11.5 18.5q0 4 13.5 38.5l36 88l51.5 120.5l59.5 136l59.5 134.5l52.5 117l38.5 82.5t17 31q4 0 15 -7q1 3 3 3q5 0 16.5 -7
t23 -16t21 -18t9.5 -13t-0.5 -30.5t-1 -70.5t-1 -103.5t-0.5 -130.5q0 -54 2.5 -105.5t5.5 -98.5l49 113l57 129l57.5 129l51.5 112.5l38 79.5t17 30zM80 186l3.5 8.5t2.5 6.5q1 4 2 6l-10 -20q-2 -5 -4.5 -10t-4.5 -11t-5 -12t-5 -12t-5 -12.5t-5 -11.5l-4 -11.5l-4 -10.5
q-5 -9 -6 -15q-1 -4 -2 -6l3 6q2 3 3.5 6.5l3.5 8.5t4.5 10t4.5 10q2 6 5 12t5 12l5.5 13t4.5 12zM127 330q1 6 3 9q1 2 1 4l-6 -12q-2 -6 -5.5 -14t-8.5 -18l-10 -22t-10 -24l-11.5 -26l-11.5 -27q-5 -14 -10.5 -27l-10.5 -26l-9.5 -24.5l-8.5 -21.5l-7 -19.5l-5 -14.5
q-2 -3 -2.5 -5t-1.5 -4t-1 -3l6 12q3 6 6.5 14t8.5 18q10 21 20 46q5 12 11 25t11 27l11.5 27.5l10.5 26.5t9 24.5t9 21.5q7 21 12 33zM279 517q2 3 2.5 5t1.5 4l2 4l-2 -4l-2 -4t-3 -5l-17 -34q-5 -11 -11.5 -23t-12.5 -26l-12.5 -28l-13.5 -29q-7 -14 -13 -28.5l-12 -28.5
l-11 -26.5t-10 -23.5t-8.5 -20t-5.5 -16q-3 -8 -5 -14q2 5 6 13l7.5 15t9.5 20l10.5 23.5l11.5 26.5l13.5 28l12.5 28l13.5 29l12.5 28l11 26.5t10 23.5q10 22 15 36zM356 91q0 -4 0.5 -7t0.5 -5q0 -3 1 -4v4q0 2 -0.5 5t-0.5 8q-2 15 -3 42q-1 14 -1.5 28.5t-2.5 31.5
q-1 17 -1.5 34.5t-0.5 34.5q-1 17 -1.5 34.5t-1.5 34.5q0 17 -0.5 32t-1.5 28t-1 24v19v16q-1 -7 -1 -16v-43v-28.5t1 -31.5q0 -17 0.5 -34.5t1.5 -34.5q1 -36 3 -69q1 -17 2 -32t3 -28q1 -14 2 -24.5t2 -18.5zM707 672l15 36q1 3 2 5.5t2 4.5t1 4l-2 -4l-2 -4t-3 -5
q-3 -7 -7.5 -16t-9.5 -20t-11.5 -23.5t-12.5 -26.5q-7 -14 -13.5 -29l-13.5 -30l-13.5 -29.5l-12.5 -28.5l-11.5 -27.5t-10.5 -24.5t-8.5 -20.5t-6.5 -15.5l-3 -6l-2 -4t-1 -4q1 1 2 3l5 10q7 13 18 36l11 23.5l13 26.5l13 29l14 29q7 15 13 30t13 29l11.5 27.5t10.5 24.5z
" />
    <glyph glyph-name="O" unicode="O" horiz-adv-x="665" 
d="M459 797q15 0 43.5 -9.5t56.5 -32t49 -59.5t21 -92q0 -63 -19 -132.5t-52 -137t-76.5 -128t-91.5 -106.5t-98.5 -73t-96.5 -27q-37 0 -71 16.5t-60.5 42t-42 54.5t-15.5 55q0 57 27.5 122.5t65.5 125.5q-2 12 -3 26t-1 28q0 12 16 41.5t43 65.5t63.5 75t76.5 71.5
t82.5 53t82.5 20.5zM60 278q2 5 2.5 8.5t1.5 6.5q1 4 2 6l-2 -6q-1 -3 -2.5 -6t-3.5 -8t-3.5 -10t-3.5 -11l-4 -12t-4 -13q-2 -6 -3 -12.5t-3 -12.5q-1 -6 -1.5 -11.5t-1.5 -10.5v-9q-1 -4 0 -7v-6v6q0 3 0.5 7t1.5 9l2 10.5t3 11.5q1 6 2.5 12t3.5 12q2 7 3.5 13t3.5 12
q3 12 6 21zM76 355q2 6 3 8t1 3q-1 -1 -2 -3t-1.5 -4t-2.5 -4l-14 -28q-2 -5 -4 -9.5t-4 -9.5t-5 -10.5t-5 -11.5l-4 -12l-4 -12l-4 -12t-4 -13q-2 -6 -3 -12.5t-3 -12.5q-3 -14 -3 -26q-1 -4 -1 -12t1 -12q1 -5 1.5 -10.5t2.5 -10.5l3 -9l2 -4l2 -4q2 -4 3.5 -6.5t3.5 -5.5
q3 -5 6 -6q0 -1 1 -2q0 -1 1 -1q-1 1 -2 3t-2 3.5t-3 3.5q-1 3 -2.5 6l-3.5 7q0 2 -1 3.5t-1 3.5l-3 9q-1 5 -1.5 10t-1.5 11v11q0 2 0.5 3t0.5 3v6l2 12l2 12q2 7 3 13t3 12q2 7 3.5 13t3.5 12l9 24q3 10 8 22q2 5 3.5 9.5t3.5 9.5q7 19 12 30zM227 424q-24 -24 -47.5 -60
t-42.5 -75.5t-32 -78.5t-16.5 -70t5.5 -50.5t33 -19.5q51 0 103 23t100 64t89.5 97t72 122t48 139t17.5 149q0 45 -25.5 59t-66.5 1.5t-92.5 -49t-102.5 -92.5q11 -5 24.5 -16t25.5 -23.5t20.5 -24.5t8.5 -18q0 -8 -5.5 -7t-19.5 -2t-37.5 -17t-59.5 -51zM393 137
q-2 -1 -4 -3t-4.5 -4t-5.5 -4l-15 -12q-5 -3 -9 -6l-9 -7l-18 -12q-5 -3 -8.5 -5.5t-7.5 -4.5l-7 -3.5t-5 -3.5q-3 -2 -4 -3q2 1 5 2q4 1 12 6q4 2 8 4.5t9 4.5q4 3 8.5 6t9.5 6l9 7t8 7q9 6 15 12l10 10zM410 141q2 2 3.5 4t3.5 4q1 2 2 3q-1 -1 -2 -3q-2 -2 -3.5 -4
t-3.5 -4l-11.5 -11l-14.5 -14q-17 -15 -40.5 -31.5t-49.5 -30.5q-26 -15 -53.5 -23.5t-50.5 -9.5q-11 -2 -20 0q-2 0 -4 0.5t-4 0.5q-2 1 -4 1t-4 1q-6 1 -9 3h-3q-1 0 -1 1q0 -1 1 -1h3l4 -2t5 -2q2 -1 3.5 -1t3.5 -1q2 0 4.5 -0.5t4.5 -0.5q5 -1 10 -1h10q22 0 51 8
q27 9 55 23q24 14 50 32q11 8 21 16.5t18 16.5q18 17 25 26zM555 375q4 10 5 13t2 5q-1 -2 -3 -5q-3 -5 -6 -12l-4 -8t-4 -9t-4.5 -9.5t-4.5 -9.5q-10 -21 -18 -36q-5 -8 -6 -12q-1 -3 -2 -5q1 1 3 4q2 2 3.5 5l3.5 7l4.5 7t4.5 9l5.5 9.5t4.5 9.5t4.5 10t4.5 10l3.5 9
t3.5 8z" />
    <glyph glyph-name="P" unicode="P" horiz-adv-x="603" 
d="M364 812q36 0 75.5 -18t73 -49.5t55.5 -75t22 -95.5q0 -40 -24.5 -85.5t-69.5 -86.5t-107.5 -72t-137.5 -40q5 1 10 1.5t10 2.5q6 1 13 2.5t14 3.5q8 2 15 4.5l15 5.5q5 2 8.5 3t7.5 3t7.5 3.5l8.5 3.5q8 3 15.5 7l15.5 8q8 5 15.5 9t14.5 9l15 9t14 9l12.5 10t11.5 10
q6 5 11 10l10 10l9 9t7 8q3 5 6 8.5t5 6.5q6 8 7 9l2 4q0 -1 -2 -3l-4 -4t-4 -5q-6 -8 -12 -14q-4 -4 -8 -7.5t-9 -8.5t-10.5 -9t-10.5 -9q-6 -5 -12.5 -9.5t-12.5 -9.5q-7 -5 -14 -9t-14 -9l-15 -9t-15 -8l-15.5 -8l-15.5 -8q-4 -2 -7.5 -3.5l-8.5 -3.5l-15 -6l-15 -5.5
t-14 -4.5q-8 -2 -14.5 -4l-12.5 -4q-7 -2 -12.5 -3t-10.5 -3q-11 -2 -18 -3l-10.5 -1.5t-5.5 -0.5h-19q-9 0 -17.5 5.5t-16.5 14.5l-53 -125.5l-39.5 -97l-26 -62.5t-12.5 -22q-5 0 -14.5 8t-20 19t-18 22t-7.5 17q0 5 13.5 38.5l35.5 85l50.5 116.5l59 132.5l60 132.5
l54.5 118q-16 -11 -21 -11t-14 9t-17.5 21t-14.5 24t-6 19q0 4 10.5 11t28.5 15t41.5 16t49.5 13q8 15 10 15q4 0 17 -11q10 1 19.5 1.5t18.5 0.5zM125 257q4 9 7 17l5 13q3 6 4 11q-2 -5 -5 -11q-2 -5 -5.5 -12.5l-7.5 -16.5t-8 -19.5t-9 -21.5l-10 -23l-10 -24l-10 -24
l-10 -23q-5 -12 -8.5 -22.5t-7.5 -19.5t-7 -17l-5 -13q-3 -6 -4 -11q2 5 5 11l5 12.5t8 16.5q4 9 8 19.5t9 21.5l10 23l10 24l10 25l10 23t8.5 21.5t7.5 19.5zM147 363q2 5 3.5 10t3.5 8q1 4 2 7q-1 -3 -3 -7q-2 -3 -4 -7.5t-4 -9.5t-5 -11.5l-6 -13.5q-2 -7 -5 -13.5
t-6 -14.5t-6 -15l-6 -14q-2 -7 -4.5 -13.5l-4.5 -11.5q-2 -6 -3 -10.5t-3 -7.5q-2 -4 -3 -7q1 3 3 7q2 3 4 7.5t4 9.5t5 11.5l6 13.5q4 13 11 28q3 8 6 15l6 14q2 7 4.5 13.5zM209 369q42 0 97.5 17.5t104.5 52t83 85.5t34 117q0 17 -8.5 34t-26.5 30t-44.5 21t-62.5 8h-13
t-12 -1q-51 -98 -94 -190l-79 -173q5 -1 9.5 -1h11.5z" />
    <glyph glyph-name="Q" unicode="Q" horiz-adv-x="639" 
d="M441 -81q39 -38 60 -53.5t30 -20.5t10.5 -4.5t2.5 -3.5t-6 -12.5t-18.5 -16t-24 -12.5t-21.5 -3q-16 4 -41 26q-3 3 -6 6.5t-7 7.5l-12.5 14.5t-12.5 15.5q-7 8 -13 16t-11 16l-11 15l-10 14l-9 10.5t-6 8.5q-4 4 -5 8q0 -1 1 -2t1.5 -2.5t2.5 -3.5q4 -10 12 -22
q7 -14 18 -30q2 -2 2.5 -3t2.5 -3l-49.5 59.5t-47.5 63.5q-16 -7 -33 -8t-34 -1q-29 0 -61.5 13t-61.5 37l-3 3q-2 2 -4.5 4t-4.5 5l-6 6q-4 6 -7 9q-4 6 -7 9q-4 8 -7 12l-3 6l-2 3l-1 3q-4 10 -6 14t-2.5 8t-2.5 8t-2 8q-1 2 -1 4t-1 4q-1 5 -1.5 9t-1.5 8q0 5 -0.5 9
t-0.5 9v18v10l1 9q1 5 1 9t1 9l3 18q1 5 1.5 9t2.5 9q2 10 4 17l4 16t5 16q2 8 4.5 15t4.5 14q2 6 4.5 12l4.5 11l3.5 10.5t3.5 8.5t2.5 7t1.5 5q1 3 2 4l-8 -16q-2 -4 -4 -8.5t-4 -9.5t-5 -10.5t-5 -12.5t-5 -13.5t-5 -14.5l-6 -16t-5 -16q-1 -5 -2 -9t-2 -9t-2 -9t-2 -9
l-3 -18q-1 -5 -1 -9.5t-1 -9.5l-1 -9v-9q0 -5 -0.5 -9.5t0.5 -9.5t1 -9t1 -9q0 -5 1 -9t2 -9t1.5 -9t2.5 -8t3 -8t3 -8t3 -7t3 -7h1q-14 22 -21.5 48t-7.5 55q0 53 20.5 117.5t54 129.5t77 126.5t90 109t92 76t83.5 28.5q32 0 65 -19t59.5 -48t43 -65t16.5 -69
q0 -57 -18.5 -132.5t-52.5 -153.5t-81.5 -149t-105.5 -119q29 -43 52.5 -74.5t40.5 -48.5zM41 293q0 2 0.5 2.5t0.5 1.5v2v-2q0 -1 -0.5 -1.5t-0.5 -2.5q-2 -3 -2.5 -7t-2.5 -9q-1 -5 -2 -11l-2 -12q-3 -14 -3 -27q-1 -7 -1 -13.5v-13.5q0 -6 0.5 -12t0.5 -11q2 -12 3 -17
l2 -6v2q0 1 -0.5 2t-0.5 3q-1 3 -1 16q-1 5 -1 11v12q0 7 0.5 13.5t0.5 13.5q1 7 1.5 13.5t1.5 12.5l3 23q2 12 3 17zM523 522q-1 -5 -2 -9.5t-2 -9.5q-2 -5 -2.5 -10t-2.5 -10l-6 -21q-6 -21 -13 -40.5l-12 -34.5q-3 -8 -5.5 -13.5t-4.5 -10.5q-2 -6 -3 -7l-1 -2q2 3 5 8
q2 4 4.5 10t6.5 14q3 8 6.5 16.5t6.5 18.5q2 5 3.5 9.5t3.5 9.5t3.5 10.5t3.5 10.5t2.5 10.5t2.5 10.5t2.5 10t2.5 10q1 5 2 9.5t2 9.5q0 5 0.5 9t1.5 9q0 4 0.5 7.5t0.5 6.5q1 4 0.5 6.5t0.5 5.5v10q-1 -1 -1 -3v-7q0 -7 -1 -12q-1 -3 -1 -6.5t-1 -7.5q-1 -5 -1.5 -8.5
t-1.5 -8.5zM293 123q33 28 62.5 66t54.5 80.5t45 87t34 87t21.5 79.5t7.5 65q0 39 -4 64.5t-10 40.5t-14 21.5t-17 6.5q-40 0 -83 -28t-85 -74t-80 -104t-66.5 -118.5t-45.5 -118t-17 -101.5q0 -19 -0.5 -39.5t4 -37.5t15.5 -28t34 -11q37 0 76 17q-25 36 -40 60t-16 27
q-4 12 6 13q3 1 16 2.5t28 2.5t27 0t14 -5q6 -14 33 -55zM474 -197h-1q-2 0 -4 2q-5 1 -11 8l-15 15t-16 18l-15 18q-4 4 -7 8l-6 8q-3 3 -5.5 6t-4.5 5q-2 3 -3 4q1 -2 3 -5q2 -2 3.5 -5t4.5 -7t6 -7.5l7 -8.5q3 -5 6.5 -9.5t8.5 -9.5l7.5 -9t8.5 -8q4 -5 7.5 -8t7.5 -6
q9 -7 13 -8q1 -1 4 -1h1zM83 49q-1 0 -3 2q1 0 3 -2z" />
    <glyph glyph-name="R" unicode="R" horiz-adv-x="580" 
d="M380 818q48 0 89.5 -13t72.5 -40.5t47.5 -70t13.5 -101.5q-2 -40 -25.5 -75t-59.5 -65q2 2 4.5 4t4.5 4q5 5 9 9.5t9 9.5q8 8 16 21q4 5 7.5 10.5t6.5 11.5q4 6 6.5 12t4.5 12l2 6l2 6l3 12q1 2 1 5t1 6q0 2 0.5 5t0.5 5q0 5 0.5 9.5t-0.5 8.5q0 11 -1 14q-2 8 -2 9v3
v-12q1 -3 0.5 -6t-0.5 -8q0 -4 -0.5 -8t-0.5 -9q-1 -3 -1 -5.5t-1 -5.5q-1 -2 -1 -5t-2 -5q-1 -3 -1.5 -5.5t-1.5 -5.5l-2 -6t-2 -5q-4 -11 -11 -23q-3 -6 -6.5 -11.5t-7.5 -10.5t-7.5 -10.5t-8.5 -10.5q-4 -5 -8 -9l-9 -9t-9 -8.5t-8 -8.5q-5 -3 -8.5 -6.5t-8.5 -6.5
q-4 -3 -7.5 -6t-6.5 -5q-3 -3 -6 -5t-5 -4t-3.5 -3t-3.5 -2t-3 -2q-35 -20 -73.5 -36.5t-74.5 -29.5q8 -42 19.5 -78.5t25.5 -66.5q30 -61 51 -93.5t34.5 -48t19.5 -21t6 -11.5t-8 -13t-20 -12.5t-26 -9t-26 -3.5q-8 0 -21.5 16.5t-29.5 43.5t-33.5 62t-33 72t-27.5 73
t-17 66q-12 -2 -22.5 -4t-19.5 -4l-50.5 -112.5l-43.5 -94.5t-31.5 -65.5t-15.5 -24.5q-6 0 -17.5 6t-22.5 15t-19 18t-8 15q0 2 16 38l41 92l57 125.5l63.5 139.5l60.5 134l49 108q-42 -19 -63.5 -38.5t-27.5 -19.5q-5 0 -11.5 7t-12 18.5t-9 25t-2.5 27.5q0 5 21 20
t56 31.5t80 29t93 12.5zM73 269q3 8 5.5 14l4.5 11t4 9q-2 -4 -5 -9q-2 -5 -5 -10.5t-6 -13.5t-7 -16t-8 -18q-5 -9 -9 -19t-9 -20l-8 -20t-8 -19q-5 -10 -8.5 -18.5t-6.5 -16.5t-5.5 -13.5t-4.5 -10.5l-3 -9q1 4 4 9q2 5 4.5 10.5t6.5 13.5t7.5 16t8.5 18l8 18.5l9 20.5
q5 10 8.5 19.5t8.5 19.5l7.5 18t6.5 16zM293 799q-6 -2 -7 -2q-2 -1 -3 -1q1 1 3 1q4 0 7 1q6 2 12 2q6 1 15 3q8 2 17.5 2.5t19.5 1.5q5 0 11 0.5t11 0.5t11 -0.5t11 -0.5t11 -0.5t11 -1.5t10.5 -1.5t10.5 -2.5l10 -2l10 -2q5 -2 9 -2.5t8 -2.5q10 -4 14 -6l6 -2t5 -2
q3 -2 7 -4q1 -1 2 -1q-1 0 -2 1q-4 2 -7 4q-2 2 -4.5 2.5t-5.5 2.5q-4 2 -7 3t-8 3q-4 2 -8 3t-9 3t-9.5 3t-9.5 3q-5 1 -10.5 1.5t-11.5 1.5q-5 1 -10.5 1.5t-11.5 1.5h-22h-11t-11 -1q-11 -1 -20.5 -2t-17.5 -3l-15 -3q-8 -2 -11 -3zM344 52q-3 5 -6 11t-8 14
q-2 4 -4.5 7.5t-4.5 8.5t-4.5 9.5t-4.5 9.5q-5 10 -9.5 20l-9.5 21q-10 21 -18.5 41.5l-15.5 36.5l-5.5 14.5l-4.5 11.5q-2 2 -2 3.5t-1 3.5t-1 3q1 -5 3 -10q3 -11 9 -27q4 -8 7 -17t8 -20l8 -20.5t9 -21.5l10 -21l10 -20t9.5 -18t9.5 -16l8.5 -14t6.5 -10l6 -9l-1 2
q-3 2 -4 7zM298 162q-4 6 -5 8t-1 3q0 -1 1 -3t1 -4t2 -4l4.5 -11.5t5.5 -12.5q2 -6 5.5 -12t5.5 -11q2 -3 4 -7q1 -2 2 -3q-2 5 -4 11l-4.5 11l-5.5 13zM410 400q10 4 13 6t5 3q-2 -1 -5 -2q-2 -1 -6 -2t-8 -3t-8.5 -4t-9.5 -4l-21 -9l-40 -17q-10 -4 -18 -8q2 0 5 1
q2 1 5.5 2t8.5 3q4 2 9 3.5t10 3.5l21 9l21 9q10 4 18 9zM562 652q1 17 -11 32t-34.5 26t-53 17.5t-66.5 6.5q-11 0 -20 -0.5t-18 -1.5l-20 -46l-33 -76.5l-42 -97.5l-47 -109q45 14 104.5 37.5t113 55t90.5 71t37 85.5z" />
    <glyph glyph-name="S" unicode="S" horiz-adv-x="642" 
d="M521 475q-8 0 -19.5 8t-22 19t-18 22t-7.5 16t10 19t19.5 36.5t14.5 54t-5 72.5q-45 0 -88 -26t-77 -63.5t-54.5 -79.5t-20.5 -73q0 -4 20 -10t50 -17t65.5 -28.5t65.5 -43.5t50 -62.5t20 -86.5q0 -39 -15.5 -74t-42.5 -63.5t-64.5 -49.5t-81.5 -33q2 1 8 3q5 3 10.5 5.5
t10.5 5.5l20.5 11.5l17.5 10.5t14 9.5l11 8.5l9 6l-2 -1l-4 -2l-4 -2q-5 -3 -12 -6.5t-15 -8.5t-17.5 -10t-20.5 -10q-5 -2 -10.5 -5t-11.5 -5q-3 -1 -11 -5l-12 -4q-5 -2 -11 -3.5t-12 -3.5t-12 -2.5t-12 -1.5t-11.5 -1.5t-10.5 -1.5t-10 -1h-10h-17h-6q-58 4 -94 30
t-56 59.5t-27 67.5t-7 56q0 23 4 45.5t10.5 40t15 28t17.5 10.5t16 -4.5t12.5 -11t8 -13.5t2.5 -11q0 -7 -8.5 -20l-18 -28l-18 -29.5t-8.5 -24.5q0 -11 7.5 -27t28 -32t56 -27t92.5 -11q56 0 104 18.5t83 44.5t54.5 54t19.5 46q0 12 -13 25t-32.5 25t-44 23.5t-47 21
t-41 15.5t-26.5 9q-12 4 -29 18t-32 33.5t-25.5 41.5t-10.5 40q0 22 12.5 53.5t34.5 66t51.5 68t63 60t69 43t70.5 16.5q25 0 44.5 -18.5t33 -45.5t21 -57.5t7.5 -55.5q0 -24 -7.5 -53t-18 -54t-22.5 -42t-20 -17zM533 518q-2 -6 -2 -5q-1 -1 -1 -2l1 1q1 1 1.5 2t2.5 3
q2 4 5 7q1 3 5 11q3 3 4 5q1 3 3 7q1 3 2.5 6.5t2.5 7.5q2 4 3 7.5t2 8.5q2 4 2.5 8t1.5 8q2 5 2 9t1 8q1 5 1 8.5t1 8.5v15t-1 14q0 6 -1 11t-2 9q-1 2 -1 6v2v-8v-20q-1 -7 -1 -14t-1 -15q-2 -8 -2.5 -16t-2.5 -16l-2 -8l-2 -8l-2 -8l-2 -8q-2 -4 -2.5 -7t-2.5 -7
q-2 -7 -5 -12l-2 -6t-2 -5l-2 -4zM248 9h-7h-9t-11 1h-12t-15 1q-5 0 -15 2q-4 1 -7.5 1t-7.5 1t-7.5 2t-7.5 2t-7.5 2t-7.5 2q-7 2 -13.5 5t-11.5 5q-5 3 -9.5 5t-7.5 4l-6 3l1 -1q2 -2 4 -3q3 -2 7.5 -4.5l9.5 -5.5t11 -6t14 -5q4 -2 7.5 -2.5t7.5 -2.5l15 -3q4 -2 8 -2
t8 -1q4 0 7.5 -0.5t7.5 -0.5q5 -1 15 -1h12q6 1 11 1t9 1h7zM319 448q-2 1 -3.5 1t-3.5 1q-2 0 -3 1l2 -1q4 -2 8 -3l12 -5t15 -7l36 -18q5 -3 10.5 -5.5t10.5 -6.5q5 -2 10 -5.5t10 -6.5l9.5 -7.5l9.5 -7.5q2 -2 4.5 -3.5t4.5 -3.5l4 -4l4 -4q5 -3 8 -8l3.5 -3.5l3.5 -3.5
q9 -10 12 -16q7 -9 9 -14q5 -7 6 -11l5 -10q0 1 -1 3q-2 4 -3 8q-2 5 -6 11q-2 4 -4 7t-4 8q-2 4 -5 7.5t-6 7.5q-3 3 -7 9q-5 3 -8 8q-3 2 -9 8q-2 2 -4 3.5t-5 3.5l-9.5 7.5l-9.5 7.5q-5 3 -10 6.5t-10 6.5t-10.5 5.5t-10.5 5.5q-5 2 -10 4.5t-10 4.5t-9 4t-9 4
q-8 4 -15 6.5t-12 4.5zM284 606q-2 -3 -2.5 -5.5t-1.5 -4.5t-1 -3q1 0 1 1l1 2l2 4t3 5q2 2 4 4.5t4 5.5l9 12l9.5 11.5l8.5 10.5l3.5 3.5t2.5 3.5t2 3q-1 -1 -3 -2t-3.5 -2.5l-3.5 -3.5l-4.5 -4.5t-4.5 -5.5l-5 -5t-5 -6l-4.5 -6.5l-4.5 -6.5t-3.5 -6t-3.5 -5zM403 702
q13 8 25 13q5 3 11 5q-1 0 -3 -1t-8 -3q-2 -1 -5 -2t-7 -3q-3 -2 -6.5 -3.5t-7.5 -3.5q-5 -2 -8.5 -5t-8.5 -5l-18 -12l-9.5 -7.5l-9.5 -7.5t-9 -8t-9 -8q-5 -5 -8.5 -9l-7.5 -9l-7.5 -9t-6.5 -9q-4 -5 -7 -9.5t-6 -9.5q-3 -4 -5 -8t-4 -9q-2 -4 -4 -7.5t-4 -6.5
q-2 -4 -2.5 -7t-2.5 -5t-2 -3.5t-1 -3.5t-1 -3l1 2l4 8q1 3 5 11q2 4 4.5 7t4.5 7q4 8 10 17q3 4 6 8.5t6 9.5q4 4 7.5 8.5l7.5 9.5q4 4 7.5 8.5t8.5 8.5q5 5 9 8.5l9 7.5q4 5 8.5 8t9.5 7q4 4 8.5 7t8.5 6q5 2 8.5 5t8.5 5z" />
    <glyph glyph-name="T" unicode="T" horiz-adv-x="383" 
d="M424 778h-41q5 -1 11 -1q5 0 12.5 -0.5t17.5 -0.5q9 -1 19.5 -1t21.5 -1q12 0 24 -0.5t24 -0.5q13 0 25 -0.5t23 -0.5h42h9q-1 -10 -3.5 -21.5t-6.5 -21.5t-8.5 -17t-8.5 -7t-23.5 0.5t-50.5 1.5t-70.5 2t-83.5 1q-10 -22 -27.5 -64l-39 -95.5l-46.5 -115l-49.5 -122.5
l-47 -117l-40 -99l-28 -69t-11.5 -27q-3 -3 -17 6t-28 21t-25 22.5t-8 12.5q2 1 16 35.5l36 90l49 125l55.5 141l56 138.5l49.5 117q-36 0 -70.5 -1.5t-66.5 -3.5l-38 -5.5t-28.5 -1.5t-18 7.5t-6.5 22.5t-2 26.5l-3.5 18t-1 12t6.5 8.5q2 1 25 2t59.5 1.5t84 0.5h97.5
q4 8 4 9q3 4 18 -9q55 0 108.5 -0.5t95.5 -1t68 -1t28 -1.5q3 -3 1 -20q-2 0 -5 0.5t-5 0.5q-9 0 -19.5 0.5t-22.5 0.5q-11 1 -23 1t-25 1h-24t-24 1h-41zM103 255q5 12 9 23q2 5 4 9l-4 -8t-4.5 -10l-5.5 -13q-7 -12 -15 -32l-8 -18t-9 -19l-8 -18.5l-8 -18.5t-7 -17
t-6 -15q-3 -8 -5.5 -13t-4.5 -10l-3 -9q1 4 4 8q2 4 4.5 9.5t6.5 13.5l6.5 15l7.5 17q5 9 8.5 18t8.5 19l8 18.5l8 18.5t7 17t6 15zM171 439q5 11 8 20t6 16t6 13q-2 -6 -6 -13q-7 -14 -16 -35l-10.5 -23l-11.5 -26l-12.5 -28t-12.5 -29q-7 -14 -13 -28l-12 -28l-11 -26.5
t-10 -23.5l-9 -19.5t-6 -15.5q-4 -8 -5 -14q2 6 6 13q3 6 7 15l9 20l10.5 23l11.5 26l12.5 28.5l12.5 28.5q7 14 13 28.5l12 28.5l11 26z" />
    <glyph glyph-name="U" unicode="U" horiz-adv-x="555" 
d="M539 798q7 0 20 -6.5t26 -16t21.5 -19.5t5.5 -16l-27 -67.5t-43 -101l-55 -120.5t-63.5 -127.5t-68 -122t-68 -103.5t-65 -71.5t-57.5 -26.5q-11 0 -38 10t-55 33t-49.5 62t-21.5 96q0 23 9 61t24.5 85t35 99.5t40.5 103.5l41.5 97.5l37.5 82t28.5 56.5t14.5 21
q10 0 23 -8t24.5 -18.5t19.5 -20.5t8 -14q0 -3 -16.5 -36l-41.5 -85l-53.5 -116t-53.5 -130t-41.5 -127t-16.5 -106q0 -37 7 -58t24 -21q25 0 56.5 31.5t65 83t68 117t67 134l61.5 134l51.5 117l37 83t17.5 31.5zM213 721q-5 -9 -8.5 -19t-8.5 -20t-8.5 -19.5t-8.5 -19.5
q-4 -9 -7 -17.5l-6 -16.5t-5.5 -13.5t-4.5 -10.5l-3 -9q6 15 14 33l15 33.5l17 38.5q5 10 8.5 19.5t8.5 19.5l7.5 17.5t6.5 16.5l5.5 13l4.5 11t4 9q-2 -4 -5 -9q-2 -5 -5 -10.5t-6 -13.5q-3 -7 -7 -15.5zM37 306q8 26 17.5 53l19.5 55l21.5 54l21.5 53l19.5 48.5l17.5 43.5
l14.5 37.5l11.5 28.5l3.5 10.5t3.5 8.5q1 4 2 7q-1 -3 -3 -7q-2 -3 -4 -7.5t-4 -10.5l-12 -28.5l-16 -36.5q-8 -20 -18.5 -43l-21.5 -49l-21.5 -52.5l-21.5 -53.5l-19 -55.5t-17 -54.5q-4 -13 -7 -26t-5 -25q-2 -13 -4 -24.5t-3 -22.5q-2 -25 1 -41q0 -2 0.5 -4t0.5 -4
q0 -4 2 -8q0 -4 1 -7.5t2 -6.5t2.5 -6l2.5 -5t2 -3.5t2 -3.5q2 -4 3 -5l1 -1l-1 1q-1 1 -3 5q-1 2 -3 8q-1 2 -2 4.5t-2 5.5q-1 4 -2 7t-1 7q-1 2 -1 4t-1 4v9q-1 8 -1 18t2 21q1 11 3 22.5t4 24.5l6 24.5t7 26.5zM438 389l-5 -10q-2 -5 -6 -12t-8 -15q-5 -8 -10 -17.5
l-11 -20.5q-5 -11 -11.5 -21.5t-12.5 -21.5l-12 -21.5l-12 -21.5l-11.5 -19.5l-10.5 -17.5t-8.5 -14.5t-6.5 -11.5q-4 -5 -6 -10q2 5 6 10q3 5 7.5 11t9.5 14l11 17t12 20l12 20.5l12 21.5q7 11 13 22t11 22t10 20.5l9 17.5q5 9 8 16l5 12z" />
    <glyph glyph-name="V" unicode="V" horiz-adv-x="567" 
d="M642 795q4 0 14 -10t20 -22.5t18 -24.5t8 -15q0 -2 -17.5 -26.5l-48 -65l-71.5 -94l-87.5 -113l-96 -121l-98 -118l-93.5 -105t-81 -82.5q-6 -5 -17.5 4.5t-20.5 25.5q-1 -7 -1.5 -11t-0.5 -6q0 -8 -15 -8t-33 4.5t-33 11t-15 11.5q0 34 10.5 85.5t27 112.5t38.5 127.5
l45 130.5l45.5 122t41.5 101.5t31.5 69.5t15.5 26q4 0 14 -6.5t20 -15l19 -16t12 -9.5q5 -4 9 -8.5t-1 -11.5q-47 -89 -83.5 -181t-63 -177.5t-44 -158.5t-27.5 -124q79 84 150.5 168.5l133 162l111 144.5l85.5 116.5l56 78t23 28.5zM10 169l6 24l6 23q2 11 5 21t5 19l10 40
q-1 -1 -1 -3q-1 -2 -1 -4t-1 -4q-2 -5 -4.5 -12t-4.5 -16q-3 -9 -6 -19l-6 -21l-6 -23l-6 -24q-2 -12 -5 -24t-5 -23l-2 -11.5l-2 -10.5t-1.5 -9.5t-1.5 -9.5q0 -5 -0.5 -9t-0.5 -8t-0.5 -7t-0.5 -6v-11v3q0 4 1 8q0 2 0.5 5.5t0.5 7.5q1 4 1.5 7.5t1.5 8.5q0 5 1 10l2 10
l2 10.5l2 10.5q2 11 5 23zM68 332q2 7 3 13t2 10l2 8l-10 -30l-4.5 -15t-4.5 -16t-5 -17t-5 -19q-2 -9 -5 -18t-5 -17q-2 -9 -3.5 -17t-3.5 -15t-2.5 -12.5t-1.5 -9.5q-1 -3 -1 -7q0 -2 -1 -2q1 4 2 9q2 10 6 22l8.5 31l9.5 35q5 19 10 36zM584 613q1 2 3 4l4 4t5 6
q2 3 5 6.5t6 7.5q3 5 6 8.5t6 8.5l7 9l6 8q2 5 5 8.5t5 6.5t3.5 6t3.5 5q2 3 3 5q-1 -2 -3 -4l-4.5 -4.5t-4.5 -5.5q-2 -4 -5 -7t-6 -8l-6 -8l-7 -9q-3 -5 -6 -8.5t-6 -8.5q-3 -4 -5.5 -8l-4.5 -7zM634 649l15 20.5l13 17.5t10.5 15.5t8.5 12.5q4 6 7 10l-8 -10l-9.5 -11.5
t-11.5 -14.5l-29 -38l-16 -21t-17 -22l-16 -22l-16 -22t-14.5 -21t-12.5 -18q-7 -9 -11.5 -16t-8.5 -12q-4 -6 -7 -10l8 10l9 11.5t12 14.5q15 18 29 38q8 11 16.5 21.5t16.5 21.5l16 22.5z" />
    <glyph glyph-name="X" unicode="X" horiz-adv-x="524" 
d="M710 712q0 -2 -28.5 -23.5t-80 -64l-123.5 -107t-158 -154.5q5 -86 13 -150t16 -107t14.5 -66.5t8.5 -29.5q3 -8 -11.5 -11t-33 -1.5t-35.5 6.5t-18 13q-13 63 -22 128t-14 131l-124 -144l-132 -167q-5 -7 -9 -6t-10 6q-3 2 -11.5 10.5t-17.5 19t-16.5 20.5t-7.5 15
q0 3 25.5 35t69.5 83l102 116.5l124 135.5q-5 113 -4.5 214.5t0.5 180.5q0 2 5 5t9 3q6 0 15.5 -4t19.5 -9.5l18.5 -10.5t12.5 -7q7 -4 8.5 -6t1.5 -18q-2 -73 -3 -137.5t1 -122.5l92 91.5l90.5 84.5t86.5 73t78 57q5 3 13 -8.5t16 -27t13.5 -30t5.5 -16.5zM-53 61l23 27.5
l27 32.5q7 8 13.5 16.5l12.5 16.5l13 15l11 13l9 11l7 9q4 4 6 8l-7 -7q-5 -7 -17 -20l-24 -27l-13.5 -16l-13.5 -16t-13.5 -16.5l-12.5 -16.5q-7 -8 -12.5 -15l-10.5 -14l-8.5 -11.5l-6.5 -8.5q-4 -4 -6 -8q2 3 6 7q5 7 17 20zM21 67q2 2 3 3.5t2 3.5t2 3q-1 -1 -3 -2
q-4 -4 -6 -7q-4 -4 -8 -9.5t-9 -11.5t-9 -11.5t-7 -10.5q-3 -3 -5 -7q-1 -2 -2 -3q1 0 2 2q1 1 2.5 3t3.5 4q9 9 18 21q5 6 9 11.5t7 10.5zM84 210q3 4 5.5 8t4.5 6q2 3 4 5q-1 -2 -4 -5l-12 -12l-7.5 -9.5t-8.5 -9.5t-9 -10.5t-9 -10.5t-9 -11t-8 -11q-5 -5 -8.5 -10
l-6.5 -9l-10 -15q-3 -4 -4 -5l5 5l5 5t7 8q3 4 7 8.5t9 9.5q7 10 18 21l8 11.5t9 10.5q4 5 7.5 10t6.5 10zM243 434q0 -2 1 -3v11q0 5 -0.5 12.5t-0.5 17.5v19.5t-1 21.5v48q0 13 -0.5 25t-0.5 23v22.5t-1 19.5q0 9 -0.5 17t-0.5 13v11q-1 -5 -1 -11q0 -5 -0.5 -13t-0.5 -17
t-0.5 -19.5t-0.5 -22.5v-48q1 -12 1 -24v-24q2 -25 3 -41q1 -20 3 -30v-8zM259 676v28v25q-1 5 -1 9.5v7.5v7q-1 -3 -1 -7v-17q-1 -6 -1 -12v-13v-28v-28v-13.5t1 -11.5v-17q0 -4 1 -7v7v7.5t1 9.5v25v28z" />
    <glyph glyph-name="Y" unicode="Y" horiz-adv-x="427" 
d="M466 784q5 0 18 -9.5t25.5 -21.5t19 -23.5t-1.5 -16.5q-21 -18 -51 -54l-63.5 -80l-66.5 -91l-61 -88l-47.5 -70.5l-24.5 -37.5q-8 -13 -15 -18t-12 -7q-6 -2 -12 1q-42 -80 -61.5 -132t-27 -82t-8.5 -42t-7 -12t-18.5 6.5t-26 15.5t-23.5 18.5t-10 15.5q0 3 4.5 15.5
t12 30.5l16.5 40.5l19 45.5l53 120q-9 28 -10.5 73.5t1 97t7.5 104t10.5 95t10 70.5t5.5 31q2 8 6 13t14 5q7 0 18.5 -7.5t22.5 -18t19 -21t8 -15.5t-5.5 -39.5t-12.5 -84t-12.5 -108t-5.5 -112.5q9 18 33.5 54l56 80l66 89.5l64 83.5t50 62t23.5 24zM103 530q0 9 -0.5 16
t-0.5 12v10h-1q-2 -18 -3 -37q-2 -17 -2.5 -38.5t-1.5 -43.5q-1 -23 -0.5 -44.5t2.5 -38.5q0 -5 2 -15q0 -3 0.5 -6t0.5 -6q2 -6 2 -7v-3l1 1v2q0 2 -0.5 3.5t-0.5 4.5v12q-1 4 -1 15q0 8 0.5 17.5t0.5 20.5v21.5t1 21.5v44q1 11 0.5 20.5t0.5 17.5zM119 649v4q-1 -1 -1 -3
t-0.5 -4.5t-0.5 -4.5q-2 -12 -3 -27q-1 -7 -1 -14v-12v-12q1 1 1 3q0 5 1 9l3 26q1 8 1 14.5v11.5v9zM456 675l27 36q5 7 10 13l-12 -12q-5 -7 -12.5 -15t-15.5 -19l-19 -23l-21 -26l-22 -28l-22 -29l-21.5 -30l-20.5 -29t-18.5 -27.5t-16.5 -24.5q-3 -6 -6.5 -11.5
l-6.5 -10.5q-2 -5 -4.5 -9l-4.5 -7q-2 -4 -3.5 -6.5t-2.5 -4.5q-1 -3 -2 -4q0 2 2 4q1 2 3 4t4 6q2 3 5 7t6 9t6.5 10l7.5 11q4 5 8 11l9 13q5 6 9.5 12.5t9.5 14.5l21.5 28.5l21.5 28.5l21.5 29.5l21.5 28.5l20.5 26.5z" />
    <glyph glyph-name="Z" unicode="Z" horiz-adv-x="604" 
d="M624 815q3 3 11 -8.5t16.5 -27.5t15 -30.5t6.5 -18.5t-47 -45.5t-124.5 -121t-175.5 -198t-200 -276.5q69 7 136.5 9t121.5 0.5t89.5 -5.5t41.5 -9q3 -3 2.5 -16t-3.5 -27t-8 -25t-11 -11q-122 5 -209.5 1.5t-144.5 -8.5t-85 -9.5t-31 -1.5q-4 3 -5.5 18.5t-2.5 31.5
q-19 7 -19 21q0 8 32 60.5t97 140t164 204t234 253.5q-60 2 -141 -1.5t-171 -21.5q-9 -2 -13.5 0t-5.5 11q-1 4 -2 13.5t-2 21l-2 23t-2 19.5q0 4 33.5 10.5t91.5 11.5t135.5 6t165.5 -6zM511 796h-3q-5 0 -9 1q-6 1 -14 1.5t-19 0.5q-10 0 -21.5 0.5t-24.5 -0.5
q-13 0 -26 -0.5t-27 -1.5t-27 -1.5t-26 -2.5t-24.5 -3t-21.5 -3t-18 -3t-14 -2q-8 -2 -9 -2h-3q20 1 44 3q20 2 46 3.5t53 3.5q14 1 27 1.5t26 1.5q7 0 13 0.5t11 0.5q6 0 11.5 0.5t10.5 0.5q11 0 19 0.5t14 0.5h12zM373 85q-2 -1 -4 -1h-2h2q1 0 1.5 -0.5t2.5 -0.5
q3 0 7 -0.5t9 -0.5q9 -1 21 -1.5t25 -1.5t25 -1.5t21 -1.5q5 -1 9 -1t6 -1h6q0 1 -1 1q-3 0 -4 1q-3 1 -6.5 2t-8.5 2q-5 2 -10.5 2.5t-11.5 1.5t-12 1.5t-13 0.5q-27 2 -46 0q-5 0 -9 -0.5t-7 -0.5zM78 163l7.5 9.5l7.5 9.5q7 11 15 21.5l16 21.5t15 22t15 22q8 10 14 20
t12 18q12 16 18 27q4 6 5 8t2 3h-1l-28 -36l-28 -37l-31 -42q-8 -11 -15 -22t-15 -22l-13.5 -20.5t-11.5 -18.5q-10 -15 -17 -28l-3 -4.5t-2 -3.5t-1 -3h1q1 1 2 3q2 4 5 7q2 2 4 5t4 7q2 3 5 6.5t6 8.5q6 7 12 18zM270 393q8 9 13 16.5t10 12.5q4 6 9 11l-9 -11
q-5 -5 -10.5 -12t-13.5 -16l-33.5 -41l-38.5 -47l-18 -25l-18 -24l-15.5 -23t-13.5 -21q-3 -5 -6 -9t-5 -9q-2 -4 -4 -7.5t-4 -6.5t-3 -5l-2 -4t-2 -3q1 1 2 3l2 4t3 5t4.5 6t4.5 8q6 9 12 17q6 10 14 21l16 22q8 12 17.5 24l19.5 24q9 13 18.5 25l18.5 23t17 22z" />
    <glyph glyph-name="dotlessi" unicode="&#x131;" horiz-adv-x="241" 
d="M240 343q3 5 12 2.5t18.5 -11t17.5 -22.5t8 -30q0 -11 -10.5 -36t-29 -56.5t-43.5 -65t-54.5 -61t-61.5 -45.5t-64 -18q-10 0 -28.5 8t-37 22t-32.5 31.5t-14 37.5q0 22 11 62t28.5 87l37.5 96l37.5 89t30.5 66.5t15 29.5q6 7 17.5 0t22.5 -20.5t19 -29t8 -26.5
q0 -4 -11.5 -32.5l-28.5 -68l-36 -84.5l-34 -83t-22.5 -63t-0.5 -25q39 0 73 26.5t62.5 64.5t51.5 80.5t38 74.5zM-60 143q2 7 6 17l7 19l9 25q2 7 5 14.5t5 15.5l6 16t7 16q6 17 13 35t15 36l14 36l14 35q4 8 5.5 12t2.5 7t2 6.5t4 10.5q6 14 10 25l7 19q2 4 3 7t2 5
q1 3 2 5h-1l-8 -16q-4 -8 -8.5 -19t-10.5 -24l-21.5 -48.5t-23.5 -57.5q-15 -36 -27.5 -71t-21.5 -64l-7.5 -25.5t-5.5 -19.5q-2 -5 -2 -8t-1 -5q-1 -3 -1 -4zM-13 238l3.5 12t3.5 10q2 4 3 9q-1 -4 -3 -8t-4.5 -9.5t-4.5 -12.5q-6 -14 -12 -30l-12 -36l-6 -18t-5 -18
l-4 -16t-3 -16q-2 -7 -2 -12.5v-10.5q0 -4 2 -6q0 -1 1 -2q-1 1 -1 2q-1 1 -1 6q0 9 3 23q2 7 4 15l4 16l12 36q2 9 5 18t6 17q3 9 6 16.5t5 14.5zM163 140q3 3 6.5 7l7.5 9t7 10t7 10t7 10l6 10l6 10t5 9t3.5 8t3.5 6q1 3 2 5q-1 -2 -3 -5q-2 -2 -4 -5.5t-4 -7.5
q-6 -8 -12 -18l-6 -10t-7 -10t-7 -10t-7 -10q-3 -5 -6.5 -9t-6.5 -8l-9 -12q-2 -3 -4 -4l4 4q5 3 11 11zM243 248l3.5 9t3.5 7l3 6l-3 -6l-4.5 -6.5t-4.5 -8.5t-5.5 -10.5t-6.5 -11.5t-6.5 -12l-7.5 -13l-15 -24q-3 -6 -6.5 -11t-6.5 -10t-5.5 -8.5t-4.5 -5.5q-1 -2 -3 -4
l-1 -1l1 1q1 1 1.5 1t2.5 2q2 3 5 6t6 8t6.5 10t7.5 10l15 24l7.5 13t6.5 12l6 12t5 11z" />
    <glyph glyph-name="zero" unicode="0" horiz-adv-x="671" 
d="M462 829q16 0 45.5 -10t59 -33.5t51 -62t21.5 -96.5q0 -66 -20 -138.5t-54 -142.5t-79.5 -133.5t-95.5 -111.5t-102.5 -76.5t-101.5 -28.5q-39 0 -74.5 17.5t-62.5 43.5t-43.5 57t-16.5 58q0 29 7.5 61.5t21 66t31 67t37.5 64.5q-2 13 -3 27t-1 29q0 13 16.5 43.5
t45 68.5t66 79t80 74.5t86.5 55t86 21.5zM45 287q2 5 3 9t2 7q1 4 2 6l-3 -6q-3 -6 -6 -15q-2 -5 -3.5 -10.5t-3.5 -11.5l-4 -12.5l-4 -13.5q-4 -13 -6 -26q-2 -7 -2.5 -12.5t-1.5 -10.5v-10q0 -2 -0.5 -3.5t0.5 -3.5v-6v6q1 3 1 7t1 9t2 11t3 12t3.5 12.5t3.5 13.5
t3.5 13.5t3.5 12.5t3 11.5t3 10.5zM62 367q1 2 1.5 4.5t1.5 4.5t1 3q-1 -1 -2 -3t-1.5 -4t-2.5 -4q-2 -6 -6 -13.5t-8 -16.5q-2 -5 -4.5 -10t-4.5 -10t-5 -11t-5 -12t-4.5 -12t-4.5 -13l-4 -12.5l-4 -13.5t-3.5 -13.5t-3.5 -13.5q-1 -7 -2 -13t-1 -13q0 -3 -0.5 -6.5
t0.5 -6.5v-12q1 -11 5 -22q1 -4 3 -10l2 -4l2 -4l3.5 -7t3.5 -5q2 -3 3.5 -4.5t2.5 -3.5l2 -2q-1 1 -2 3l-4 8q-2 2 -3.5 5l-3.5 7l-3 9q0 3 -2 9l-2 10.5t-1 10.5v12v6q0 2 0.5 3t0.5 3q0 7 1 13t3 13t3 13t3 13t4 13t4 13q5 14 8 25q2 6 4.5 11.5t4.5 11.5q3 9 8 20l7 18z
M220 440q-25 -26 -49.5 -63.5t-44.5 -78.5t-34 -82t-17 -73.5t6 -53t34 -20.5q54 0 108 24t104 66.5t93 101.5t75 128t50.5 145.5t18.5 155.5q0 46 -26.5 61t-69.5 2t-96 -51t-107 -97q11 -5 25.5 -16.5t27 -24.5t21.5 -25.5t9 -19.5q0 -8 -6 -6.5t-21 -2t-39.5 -17.5
t-61.5 -53zM394 140q-2 -1 -5 -3q-2 -2 -5 -4.5t-6 -4.5q-3 -3 -7 -6t-9 -6q-4 -4 -8.5 -7t-9.5 -7q-5 -3 -9.5 -6.5t-9.5 -6.5l-9 -5.5t-8 -5.5q-4 -2 -6.5 -3.5t-4.5 -3.5q-3 -2 -5 -3q2 0 5 2q2 1 5 3t8 4q4 2 8 4.5t9 4.5q5 3 9.5 6.5t9.5 6.5q5 4 9.5 7t9.5 7
q4 3 7.5 6.5t7.5 6.5l10 10zM411 143q2 2 3.5 4.5t3.5 4.5l3 3l-3 -3q-2 -2 -3.5 -4t-3.5 -4l-12 -11.5l-15 -14.5q-18 -16 -42 -33.5t-52 -32.5t-56.5 -24t-52.5 -10h-21q-3 1 -9 1q-2 1 -3.5 1t-3.5 1q-8 2 -10 3q-1 0 -1.5 0.5t-1.5 0.5h-1h1q1 0 1 -0.5t2 -0.5
q2 -1 4 -1.5t6 -2.5q1 0 7 -2q2 0 4.5 -0.5t4.5 -0.5q5 -1 10.5 -1h11.5q24 0 53 9q28 9 57 24l27 16t25 17q12 8 22 17l19 17t15 15t11 12zM563 389q2 4 2.5 7.5t1.5 5.5q1 3 2 5q-1 -2 -2 -5q-1 -2 -2.5 -5.5t-3.5 -7.5l-4 -8t-5 -9l-9 -21q-5 -11 -10 -20.5l-9 -17.5
q-5 -8 -6 -12q-1 -3 -2 -5q1 1 3 4q2 2 3.5 5l3.5 7t4.5 8.5l5.5 9.5q2 5 5 10t5 10t5 10t5 10t3.5 9.5t3.5 9.5z" />
    <glyph glyph-name="one" unicode="1" horiz-adv-x="363" 
d="M368 825q9 0 21.5 -10t24.5 -23t20.5 -25t8.5 -15q0 -2 -14.5 -35l-38.5 -86.5l-54.5 -121l-62.5 -138l-63.5 -137.5l-56.5 -119.5l-41.5 -84.5t-18.5 -32q-5 0 -19 7t-29.5 16.5t-27.5 18.5t-12 12q0 2 14.5 33.5l37 78.5l49.5 104l51.5 109.5l42.5 94.5t24 60l-86 -87
l-33 -32.5l-29.5 -27.5t-23.5 -19.5t-14 -7.5q-8 0 -21 9.5t-26 22t-22 24.5t-9 17q0 2 32 26t84.5 67.5t120.5 105.5t141 142q2 15 6 26q4 10 9.5 18.5t14.5 8.5zM98 516q-1 -1 -3 -2t-4 -2.5t-4 -3.5q-5 -4 -11.5 -8.5l-13.5 -9.5l-12 -10t-11 -10q-2 -2 -3.5 -3t-3.5 -3
l-3 -3q1 1 3 2t3.5 2l4.5 3l11.5 9l13.5 10l12 10l11 9zM154 572q7 5 12 10t9 8q4 4 8 7l-2 -2q-1 -1 -2.5 -1.5t-3.5 -2.5q-5 -4 -10 -8.5t-12 -9.5l-31 -24.5l-36 -27.5q-9 -8 -18 -15t-17 -14l-16 -13.5t-15 -11.5l-21 -18q-4 -4 -8 -7q4 2 8 6q9 7 23 17q7 5 15 11.5
l16 12.5l18 14t18 15l18 14t17 14l15.5 13.5zM94 47q3 6 6.5 12t6.5 14q4 7 7.5 14l7.5 15q3 8 6.5 15l7.5 15l6 13.5t6 11.5q2 6 4 10.5t4 8.5t3 7q-2 -3 -4 -7q-2 -3 -4.5 -8t-4.5 -10q-3 -5 -6.5 -11.5t-6.5 -13.5q-4 -7 -7.5 -14l-7.5 -15t-7 -15t-7 -15l-6 -13.5
l-6 -12.5t-4.5 -10.5t-3.5 -7.5q-2 -4 -3 -7q1 3 3 7q2 3 4.5 7.5zM361 601q2 5 3.5 10t3.5 8l3 6l-11 -24q-5 -12 -12.5 -28.5l-16.5 -36.5l-41.5 -91l-48.5 -105l-47 -105l-42 -91l-17.5 -36l-13.5 -28l-9 -18l-3 -6l3 6q2 3 4.5 7.5t5.5 10.5l14 27t17 36l43.5 90.5
l48.5 104.5l47 105.5l40 91.5l16.5 37z" />
    <glyph glyph-name="two" unicode="2" horiz-adv-x="607" 
d="M626 620q0 -23 -19.5 -54t-51.5 -66.5t-73.5 -74l-86.5 -77l-90 -74.5l-83 -67l-66.5 -55t-40.5 -38q50 3 107 3q49 0 111 -2.5t129 -10.5q7 -1 11 -17t5 -35.5t-0.5 -35.5t-4.5 -16t-25.5 2.5t-57 6t-78.5 6t-92 2.5t-94 -6t-83 -13t-61.5 -13t-28.5 -6t-11 14t-14 31.5
t-12 33.5t-5 20q0 6 11 8q4 1 11 0v6q0 2 0.5 5t0.5 5q0 1 26 22.5l69 56l97.5 80l111.5 94.5l111.5 99t97.5 94t69 79t26 55q0 9 -3 19t-12.5 19t-27 15t-46.5 6q-56 0 -97.5 -19.5t-71.5 -48.5t-50.5 -63t-34 -63t-21 -48.5t-12.5 -19.5q-7 0 -19.5 5.5t-24.5 13t-21 15.5
t-9 13q0 33 22.5 83.5t64 98.5t98.5 82.5t126 34.5q57 0 99 -26.5t69.5 -61.5t41 -68.5t13.5 -48.5zM271 774q2 2 4 2.5t4 1.5t3 2q-1 0 -3 -1l-4 -2l-4 -2l-6 -4t-7 -4t-7.5 -5t-7.5 -6q-5 -3 -9 -6.5l-9 -7.5t-9 -8l-9 -9t-9 -10t-9 -10l-18 -21l-8 -11.5l-8 -11.5
q-4 -5 -7 -11t-7 -12q-4 -5 -6.5 -11t-5.5 -11q-2 -5 -5 -10t-5 -10l-3.5 -9t-3.5 -8q-1 -5 -2 -8l-2 -6q-2 -8 -3 -10t-1 -3q0 1 1 3l3 9q2 4 6 14q2 4 3.5 8l3.5 9t5 10t5 10l6 10.5t7 11.5q7 12 14 22l8 11.5l8 10.5q5 5 9 11t9 11t9 9.5t9 9.5q4 5 8.5 9t8.5 9
q5 4 8.5 7.5t8.5 7.5q4 3 7.5 6t7.5 5t7 4t5 4zM424 393q-8 -7 -13 -12t-10 -9t-9 -8q0 1 2 2q1 1 3 2t4 3q5 4 10.5 9t13.5 11l33 30l18 16.5l18 17.5q10 9 19 18.5l17 17.5l15.5 17t13.5 16t11 13.5t9 10.5q2 2 3 3.5t2 3.5t2 3l-2 -2q-1 -2 -2.5 -3.5l-3.5 -3.5
q-4 -5 -9 -10.5t-12 -12.5q-6 -8 -14 -16l-16 -16q-8 -9 -17 -18l-18 -18l-18.5 -18l-17.5 -17l-17 -15.5zM192 200l-9 -7t-6 -5q-4 -3 -5 -5q2 1 6 4q6 4 15 12q10 7 21 16q6 5 12 9.5t12 9.5q7 5 13 10t11 10l11 9l10 8t8.5 7.5l5.5 5.5l5 5q-2 -1 -6 -4l-15 -12
q-5 -4 -10 -7.5t-11 -8.5l-12 -10l-12 -10t-12 -9.5t-12 -9.5q-5 -5 -10 -9.5t-10 -8.5z" />
    <glyph glyph-name="three" unicode="3" horiz-adv-x="610" 
d="M521 630q0 -28 -19 -58t-42 -56q-26 -30 -60 -58q22 -26 40 -55q15 -25 28 -56t13 -62q0 -43 -25.5 -93.5t-74.5 -94.5t-119 -73.5t-158 -29.5q-59 0 -99 17.5t-64.5 44.5t-35.5 57.5t-12.5 57.5t5 44.5t16.5 17.5q9 0 19 -12t18.5 -27.5t14.5 -30t6 -19.5t-1 -15t5 -20
t23 -17.5t53 -7.5q68 0 133 20.5t115.5 56.5t81 85t30.5 106q0 20 -13.5 28.5t-37.5 7t-56.5 -11t-69.5 -24.5q-6 -2 -18.5 9t-24.5 25.5t-20 27.5t-6 15t24.5 13t54 29t67.5 42.5t67 53.5t51.5 62.5t20.5 69.5q0 15 -16.5 27.5t-38.5 12.5q-45 0 -83.5 -16t-67 -36.5
t-44.5 -39.5t-16 -25q0 -12 6.5 -16.5t6.5 -10.5q0 -16 -14 -10.5t-31 21.5t-31 38t-14 39q0 11 19 35t53 48t79.5 42.5t98.5 18.5q29 0 58 -16t52.5 -43.5t38 -63t14.5 -74.5zM240 784q8 4 16 7.5l15 6.5q7 2 12.5 4.5t9.5 4.5l9 3q-1 -1 -2 -1q-2 0 -3.5 -0.5t-3.5 -0.5
q-10 -2 -23 -6q-4 -2 -7.5 -2.5t-8.5 -2.5q-4 -2 -8 -3.5l-9 -3.5l-8 -4t-9 -4t-9 -4.5t-8 -5.5q-9 -4 -17 -11l-15 -12q-4 -3 -7 -6t-7 -6q-3 -3 -5.5 -6t-5.5 -6q-5 -5 -9 -10t-6 -8l-3 -3l-2 -2t-1 -2q1 0 2 1l2 2l3 3q3 3 7.5 7t9.5 9q11 10 26 21.5t32 21.5q4 3 8 5.5
t9 4.5q4 2 8 4.5t8 4.5zM386 803q2 -1 4 -1h2l-1 1q-2 0 -4 2q-2 0 -6 2q-2 1 -4 1t-4 1t-4.5 1t-4.5 1h-11q-5 0 -11 -0.5t-12 -1.5q-11 -2 -22 -5t-19 -6q-5 -2 -8 -3.5l-5 -2.5q-3 -2 -4 -2h1q2 0 4 1q3 1 13 3q5 1 10 1.5t10 2.5l10.5 2l11.5 2q2 0 5 0.5t6 0.5
q3 1 11 1q3 1 10 1h9q4 -1 7.5 -1t5.5 -1zM148 10q2 0 2.5 0.5t1.5 0.5h2h-2q-1 0 -1.5 -0.5t-2.5 -0.5h-8q-3 -1 -10 -1q-2 0 -5 -0.5t-6 -0.5h-13q-4 1 -7.5 1h-6.5q-4 0 -7.5 0.5t-7.5 0.5q-13 1 -27 5q-14 3 -24 6q-12 3 -17 6l-6 3q2 -2 6 -4q3 -2 7 -3.5l9 -3.5
q2 -1 5 -1.5t6 -2.5q8 -2 13 -3q7 -2 13.5 -3t14.5 -2q4 -1 7.5 -1t6.5 -1h15h6.5t6.5 1q8 0 11 1q7 0 10 1q2 1 4 1t4 1zM426 194l-6 -8l-7 -9q-3 -5 -7 -9.5t-8 -9.5q-5 -5 -9.5 -10t-9.5 -10l-10 -10t-11 -10q-5 -5 -11 -9.5t-12 -9.5t-12 -9.5t-12 -8.5q-7 -5 -13 -8.5
t-12 -7.5q-6 -3 -12 -6.5t-12 -6.5q-8 -4 -11 -5q-8 -4 -11 -5l-10 -4t-9 -4q-9 -5 -15 -6q-4 -2 -6 -2.5t-4 -1.5t-4 -1q2 0 4 1q2 0 4 0.5l6 1.5q3 1 7 2t9 3t9.5 3.5t9.5 3.5l6 2l6 2q2 2 5 2.5t6 2.5q7 3 13 6l12 6q4 2 7 4l6 4q7 3 13 8l12.5 8.5t12.5 9.5t12 9.5
t11 9.5q6 5 11 11t10 11q10 10 18 21q5 5 8.5 10t6.5 10t6 9t5 9q2 4 4 7.5t4 6.5l6 12q-1 -1 -2 -3l-2 -4t-3 -5q-2 -2 -4.5 -5.5t-4.5 -7.5z" />
    <glyph glyph-name="four" unicode="4" horiz-adv-x="649" 
d="M412 311q13 0 29.5 -1.5t32 -3.5t27 -4.5t13.5 -4.5t2.5 -19t0 -36.5t-3 -34.5t-6.5 -14q-25 6 -51 9t-48 5q-26 2 -50 2q-14 -26 -30.5 -61.5l-32.5 -68.5l-28 -56t-17 -23t-18 9.5t-26.5 21.5t-24 22.5t-10.5 13.5q0 1 3 7.5l7.5 16.5l10.5 22.5l12 25.5q14 30 33 67
q-35 -1 -75 -3t-75 -4.5t-59.5 -4t-29.5 -1.5t-10.5 14t-10 32t-7 34t-2.5 20t4.5 6t9.5 3q6 1 15 1q-8 5 -12 10t-5.5 9.5t3.5 7.5q6 4 34 26.5l71 57l95.5 77l107 87l106.5 87l93 76l67 55t28 23.5q4 5 19.5 -6t31.5 -26.5t29 -29.5t13 -16q0 -4 -14.5 -28l-38 -60
l-53 -81l-59 -91.5l-56.5 -91t-45 -78.5zM160 456q-8 -8 -15 -13t-12 -10q-6 -5 -10 -9q4 4 10 8q5 4 12.5 9.5l16.5 12.5l18 15l21 16t22.5 17.5l22.5 18.5l22 18l22 18l21 17l18 15l15 13l12 10l10 8q-5 -4 -11 -8q-5 -4 -12 -9l-16 -12l-18 -15l-21 -16q-21 -18 -45 -36
l-22 -18.5t-22 -17.5l-20.5 -17zM357 600q-1 -1 -3 -2t-3.5 -2t-3.5 -3l-11 -8.5t-11 -9.5q-14 -10 -21 -19q-2 -2 -4 -3t-3 -3q-2 -2 -2 -3q1 1 3 2t7 6q5 3 10.5 7.5l11.5 9.5t11 10t10 9q3 2 7 6q1 2 2 3zM339 199q4 6 6 10h-8q-1 -2 -2 -3.5t-2 -3.5l-15 -31l-13 -28
t-10 -23.5t-8 -18.5q-2 -5 -3 -8t-2 -5q-1 -3 -1 -4l8 16l9 18l11 23l14.5 27.5zM439 565l-308 -257q27 2 56 3.5t54 1.5q29 0 57 -1zM400 311q2 5 5 9.5t5 9.5l17 30l15 27q15 24 23 40q2 3 3.5 6t3.5 5q1 3 2 4q0 -2 -2 -4t-8 -10q-5 -8 -11.5 -17.5l-14.5 -21.5
l-16.5 -26l-17.5 -29l-13 -23h9z" />
    <glyph glyph-name="five" unicode="5" horiz-adv-x="621" 
d="M608 807q7 0 12.5 -15.5t8.5 -34t2.5 -35t-4.5 -18.5q-2 -1 -16.5 -1.5t-36 -1t-49 -0.5h-55.5q-66 0 -148 1l-120 -215q36 3 73 3q45 0 80 -21t58.5 -55t36 -75.5t12.5 -81.5q0 -28 -23 -72.5t-70.5 -87t-121 -73t-173.5 -30.5q-40 0 -68 12t-47 30t-29.5 39t-15.5 39
t-5 30t2 12q4 0 11 -11.5t23 -25t42 -25t68 -11.5q54 0 100.5 14.5t85 38t68 52.5t49.5 57.5t30.5 54t10.5 41.5q0 3 -1.5 11t-11.5 16.5t-31.5 14.5t-61.5 6q-41 0 -65.5 -3t-38.5 -6.5t-19.5 -7.5t-7.5 -5q-2 -2 -5 -4.5t-6 -3.5t-6 0.5t-6 7.5q-8 19 -20.5 37t-24 32.5
t-18 24.5t-3.5 13q2 2 13 20l27.5 46l36.5 63l39.5 71t36 70.5t27.5 62.5q2 1 28 2t64 1t82 -0.5t83 -1t66 -1t32 -0.5zM123 25q8 2 16 3t16 3l14.5 3.5t12.5 3.5q5 2 10 3.5t8 2.5q2 1 3 1t2 1q1 0 2 1q-1 -1 -2 -1t-2 -0.5t-3 -0.5q-4 -1 -8.5 -2t-10.5 -3q-12 -3 -27 -6
t-31 -5q-8 -1 -15.5 -1t-15.5 -1h-15t-13 1q-14 0 -19 1h-8q3 0 7 -1l20 -3q6 0 13 -0.5t15 -0.5h15.5t15.5 1zM420 183q-3 -4 -6 -7.5t-8 -8.5q-2 -2 -4 -4.5t-4 -5.5q-3 -5 -9 -9l-10 -10l-10 -10l-10.5 -10l-11.5 -10q-4 -2 -7 -5t-6 -5l-12 -9l-6.5 -4.5l-6.5 -4.5
q-4 -2 -7 -4l-6 -4q-4 -2 -7 -4l-6 -4l-7 -3.5t-6 -3.5q-7 -4 -13.5 -7l-12.5 -6t-12 -5.5l-11 -4.5l-10 -4l-10 -4t-9 -3t-7 -2q-7 -1 -10 -3q-2 -1 -4 -1q2 0 4 1q2 0 4 0.5l6 1.5t8 1.5t9 2.5q10 2 20 6l12 4t13 4l12.5 6l13.5 6l27 15l6.5 4.5l6.5 4.5t6.5 4t6.5 5l13 9
q3 2 6 5t6 5t6 5t6 5q3 3 6 5.5t5 5.5l10 10.5l10 10.5q2 2 4 5t4 5t4 5t4 5q7 9 12 18q2 2 3 3.5t2 3.5t2 3.5t2 3.5q2 3 3 5l2 4l2 4q-1 -1 -2 -3t-2.5 -4.5t-3.5 -4.5t-2.5 -3t-2.5 -3l-2 -4t-3 -4zM226 721l7.5 15.5t5.5 12.5q3 6 5 11q-9 -19 -20 -39l-21 -39l-24 -45
l-12 -23.5l-12 -22.5q-12 -21 -21 -39q-5 -8 -9 -15.5t-7 -12.5q-2 -2 -3 -3.5t-2 -3.5t-1 -3q1 1 2 3t2 3.5t3 3.5l7.5 12l9.5 15t10.5 18l11.5 21l12 22l13 23l12 22.5t11 22.5q6 11 10.5 21.5t9.5 19.5z" />
    <glyph glyph-name="six" unicode="6" horiz-adv-x="616" 
d="M515 824q11 0 26.5 -13t29.5 -33.5t24 -44.5t10 -45t-8 -43.5t-18.5 -41t-21 -30t-14.5 -11.5t-15.5 4t-23 10.5t-19 14t-2.5 14.5q38 58 49.5 93t-17.5 35t-58.5 -11.5t-58 -30t-55 -42t-49.5 -47.5q-55 -58 -104 -131q25 10 54 17t57 7t62.5 -15t64.5 -42t50.5 -64
t20.5 -82t-24 -95.5t-62.5 -93.5t-85 -71.5t-91.5 -28.5t-87.5 22.5t-75.5 57.5t-53 78t-20 84q0 61 22.5 127.5t61.5 131t90 122.5t108.5 102t117 70t115.5 26zM455 198l-4 -6t-4 -7l-5.5 -7.5t-5.5 -8.5t-6 -9l-7 -9l-8 -10l-8 -10q-5 -5 -9.5 -10t-9.5 -10t-10 -9.5
t-10 -9.5t-10.5 -9t-11.5 -9q-10 -8 -22 -16q-5 -4 -10.5 -7l-10.5 -6t-10.5 -5.5t-10.5 -4.5t-9 -4l-8 -4q-5 -2 -8 -3l-6 -2q-8 -2 -10 -3t-3 -1q1 0 3 1q2 0 10 2q4 1 14 5q5 1 9 3t9 4l21 9q3 2 5.5 3t5.5 3q6 4 11 7q10 6 23 16q5 5 10.5 9t11.5 9q5 5 10 9.5t10 9.5
t9.5 10.5l8.5 10.5q5 5 8.5 10t7.5 10t7 9.5t6 9.5t5.5 8.5t4.5 7.5t3.5 7.5t3.5 5.5l6 12q-1 -1 -2 -3t-1.5 -4t-2.5 -4zM219 467q-4 -2 -6 -2.5t-4 -1.5l-4 -2q1 0 4 1q2 1 4.5 1t6.5 2l15.5 4.5t17.5 4.5l18 4t16 3q4 0 6.5 0.5t4.5 0.5q1 0 2 0.5t2 0.5h1h-5h-11h-8
q-3 -1 -9 -1q-4 -1 -8.5 -2t-9.5 -2t-9 -2t-9 -3q-4 -2 -8 -3t-7 -3zM436 341q0 44 -26.5 60.5t-65.5 12t-85.5 -25.5t-85.5 -51.5t-65.5 -67t-26.5 -71.5q0 -12 2 -32.5t11.5 -39.5t30 -33t57.5 -14q25 0 53.5 10t56.5 28.5t54 43t46 54t32 61.5t12 65zM302 726l8.5 7
t5.5 5q3 3 5 4l-6 -4q-3 -2 -6 -4.5l-8 -6.5l-10.5 -8t-11.5 -10q-7 -5 -13.5 -10.5t-14.5 -13.5q-8 -7 -15.5 -14.5l-15.5 -15.5l-16.5 -16.5t-16.5 -18.5q-5 -5 -9 -10l-8 -10q-5 -5 -8.5 -10t-8.5 -10l-8 -10.5l-8 -11.5q-4 -5 -7.5 -10.5t-8.5 -10.5l-14 -23l-14 -23
q-7 -11 -13 -22.5l-12 -22.5q-3 -6 -5.5 -11.5t-5.5 -11.5q-2 -5 -4.5 -10.5t-4.5 -11.5l-4 -10.5l-4 -10.5q-3 -11 -7 -20l-3 -9q0 -3 -2 -9q-1 -5 -1.5 -9t-2.5 -8q-1 -8 -1.5 -15.5t-2.5 -13.5v-24v6q0 3 0.5 7.5t1.5 10.5t2 13t3 15q2 4 2.5 8t2.5 9q2 6 2 9q1 2 2 4.5
t2 4.5q2 5 3.5 10t3.5 10l4 10l4 10t4.5 10.5t5.5 11.5q3 5 5.5 10.5t5.5 11.5l12 22.5t13 22.5l14 22t15 22q4 5 7.5 11t7.5 11l8 10.5l8 10.5q5 5 8.5 10.5t7.5 10.5q5 5 8.5 9.5t8.5 9.5q8 10 16 19t16 17q8 9 15.5 16.5l14.5 14.5q7 8 14 14l13 11q5 6 10.5 10.5z" />
    <glyph glyph-name="seven" unicode="7" horiz-adv-x="446" 
d="M481 830q4 0 13.5 -12t19.5 -27.5t17.5 -30.5t7.5 -20q0 -4 -30 -38l-78 -90l-108 -128.5t-119.5 -153t-112.5 -164.5t-87 -162q-3 -9 -17.5 -1t-30.5 21.5t-29 28.5t-13 21q0 4 17 34t47.5 77.5l72.5 109.5l92.5 130.5l107 139t116.5 136.5q-93 -2 -167 -2h-62.5
t-55 0.5t-40 2t-17.5 3.5q-4 4 -7.5 19t-5 31.5t-1 31.5t4.5 19q1 1 21 2t50.5 1.5t69.5 0t79 -0.5q94 -1 213 -3q6 7 12 12q5 5 10.5 8.5t9.5 3.5zM6 197q2 4 3.5 7.5t3.5 5.5q1 3 2 5q-1 -2 -3 -5q-2 -2 -4 -5t-4 -7t-5 -8t-6 -9t-6.5 -10t-6.5 -10l-6 -10l-6 -10t-6 -9.5
t-5 -8.5q-2 -5 -4 -8t-3 -5q-2 -3 -2 -5q1 1 3 4q2 2 4 5t4 7q3 5 6 9t6 9l6 10l6 10t6.5 10t5.5 10q3 5 6 9.5t5 8.5zM287 585l20 26t16 20l14 18q-2 -1 -4 -4q-2 -2 -4.5 -5.5t-6.5 -7.5l-17 -19t-21 -25q-6 -8 -12 -15l-13 -15t-13.5 -17l-13.5 -18l-29 -36t-29 -39
l-28 -39l-28 -38l-24.5 -36l-22.5 -32l-18 -27.5l-14 -21.5l-5 -8.5t-4 -5.5q-2 -3 -3 -5l13 18l15 20l20 27l23 32t26 35l28 37.5l28 38.5l28.5 39l28.5 37l13.5 18l12.5 17l13 15.5t11 15.5z" />
    <glyph glyph-name="eight" unicode="8" horiz-adv-x="568" 
d="M426 447q22 -10 40 -26q15 -14 27.5 -36.5t12.5 -55.5t-16.5 -70t-44.5 -73t-65.5 -69t-79.5 -58.5t-86.5 -40.5t-85.5 -15q-48 0 -81 23.5t-54 55.5t-30.5 64.5t-9.5 50.5q0 26 9 51t24 48.5t34.5 45t39.5 39.5q48 43 108 81q-11 16 -20 35q-8 17 -14 38.5t-6 47.5
q0 25 23.5 66.5t63.5 81t91 68t107 28.5q45 0 74 -23.5t45.5 -56t22.5 -66t6 -53.5q0 -38 -21 -71.5t-47 -57.5q-30 -29 -67 -52zM517 555l-5 -5t-7 -6l-17.5 -17l-19.5 -18l-21 -18.5l-18 -15.5l-7.5 -5.5t-5.5 -4.5t-2.5 -2t-1.5 -1l-1 -1q2 0 6 2q3 2 6.5 3.5t8.5 4.5
q9 6 19.5 14t21.5 18l9.5 9.5l9.5 9.5t9 9.5t7 9.5l5.5 7.5t4.5 5.5q1 2 3 4q1 1 1 2zM259 742q-5 -5 -9.5 -8.5t-7.5 -6.5l-6 -6q1 0 2 1l5 5q3 2 7.5 5.5l10.5 8.5q5 4 11.5 8.5t14.5 9.5q3 3 7 5.5t8 4.5t7.5 4.5t8.5 4.5q4 3 8 5l8 4l8 4l8 4q5 2 8.5 3t7.5 3q4 1 7.5 2
t6.5 2q5 1 13 3q2 1 4.5 1h4.5t3.5 0.5t3.5 0.5h2h-9q-2 -1 -4.5 -0.5t-4.5 -0.5q-5 0 -13 -2q-10 -2 -15 -4q-4 -1 -7.5 -2t-8.5 -3q-4 -2 -8 -3.5l-9 -3.5q-4 -2 -8 -4.5t-8 -4.5q-9 -5 -16 -10q-4 -2 -7.5 -5t-7.5 -5q-8 -5 -14 -10zM445 731q-35 0 -65.5 -12.5
t-56.5 -32t-46.5 -43.5t-35 -47.5t-22 -43t-7.5 -29.5q0 -19 9 -26t30 -7q43 0 89.5 18.5t85 47t63 63t24.5 65.5q-1 20 -15.5 33.5t-52.5 13.5zM-26 221q1 3 1.5 6.5t2.5 7.5q2 7 7 18q5 10 11 19l6.5 10.5t7.5 10.5l8 10.5l8 10.5q5 5 9.5 10.5t9.5 10.5t9.5 10t9.5 10
l19 19l18.5 17l16.5 15t14 13t11 10l10 8q-4 -3 -10 -7q-5 -4 -12.5 -9t-15.5 -12q-4 -3 -8 -6.5l-9 -7.5l-9.5 -7.5t-9.5 -8.5t-10 -9.5t-10 -9.5q-11 -9 -20 -20q-5 -5 -9.5 -10.5l-8.5 -10.5q-5 -5 -9 -11t-8 -11q-7 -9 -13 -22q-3 -5 -5.5 -10t-4.5 -10t-3 -9.5t-3 -9.5
q-2 -10 -3 -14q-1 -5 -1 -10v-3zM16 279q5 8 10 15l10 15q-1 -2 -3 -4l-4.5 -4.5t-4.5 -5.5q-5 -6 -11 -14.5l-12 -17.5q-2 -5 -5 -9.5t-5 -9.5t-3 -9t-3 -8q-1 -2 -1 -4t-1 -4v-5v-5v1q0 2 1 4q0 3 1 5t1 3.5t1 3.5l4 8t4 9t4.5 9l5.5 9q2 5 5 9t6 9zM107 81q33 0 69 14.5
t71 38.5t66 53.5t54.5 60t37.5 58t14 47.5q0 23 -23 38.5t-50 15.5q-38 0 -75.5 -13.5t-72 -36t-64.5 -51.5t-51.5 -59t-34 -58.5t-12.5 -50.5q0 -23 14.5 -40t56.5 -17zM447 247q2 3 3 5l2 4t2 3q-1 -1 -2 -3t-2.5 -4t-3.5 -4l-4 -6t-4 -7q-3 -4 -6 -7.5l-7 -8.5
q-6 -9 -15 -18l-8 -10t-9 -10q-3 -2 -5.5 -5t-4.5 -5l-10 -10q-5 -5 -11 -10t-11 -10t-11 -9t-12 -9q-5 -5 -11 -9t-11 -8l-11.5 -8t-10.5 -7q-5 -4 -10 -7l-10 -6l-9 -5.5t-8 -4.5l-14 -7q-3 -2 -5 -3l-4 -2t-3 -2l12 6l14 7l18 9l10 6l10 6l11.5 7.5l11.5 7.5q5 4 11 8
t12 9q5 5 11 9t12 9l10.5 10l10.5 10l10 10q7 7 10 11q5 5 9 10t9 10q7 8 14 19q4 5 6.5 8.5l5.5 7.5q2 4 4 7.5t4 5.5z" />
    <glyph glyph-name="nine" unicode="9" horiz-adv-x="518" 
d="M311 826q29 0 63 -20.5t63 -55.5t48.5 -81.5t19.5 -98.5q0 -54 -19 -117t-52.5 -126.5t-78.5 -122.5t-96.5 -104t-107 -72.5t-110.5 -27.5q-47 0 -78.5 20t-48.5 44.5t-21.5 44.5t2.5 20q6 0 13 -4.5t17.5 -10t26 -10t38.5 -4.5q46 0 85 14t70 34t53 42t35 39
q-51 -5 -93.5 14t-73 50.5t-47 69t-16.5 70.5q0 26 11 65t31 83t47.5 87.5t62 78.5t74 57t82.5 22zM115 34q2 0 2.5 0.5t1.5 0.5t2 1h-2q-1 0 -1.5 -0.5t-2.5 -0.5q-3 -1 -7 -1.5t-9 -2.5q-5 -1 -11 -1.5t-12 -2.5q-6 -1 -12.5 -1.5t-13.5 -0.5q-14 -1 -26 0.5t-23 3.5
q-5 2 -8.5 3t-6.5 2q-2 0 -3 0.5t-2 0.5t-1 1l6 -3q2 -1 6 -2.5l9 -3.5q11 -4 23 -5q8 0 13 -1h13l27 3l12 3q4 0 10 2q5 2 9 3t7 2zM59 561q-2 -3 -2 -4.5t-1 -3.5t-1 -3q1 5 4 11q2 5 5.5 12t8.5 16l9 18l6 10l6 10l12 21l15 21l6.5 10.5t7.5 10.5q7 10 16 19q3 5 7 9t7 9
q4 4 7.5 8t6.5 7l13 13l4.5 4.5l4.5 4.5l3.5 3.5t3.5 2.5l2 2l-2 -2q-2 -1 -3.5 -2.5l-3.5 -3.5t-4.5 -4t-5.5 -4q-3 -3 -6.5 -6t-6.5 -6l-15 -15q-4 -5 -7.5 -8.5t-7.5 -8.5l-8 -10l-8 -10t-7.5 -10t-7.5 -10t-7 -11t-7 -11l-12 -21l-11 -21l-9 -18q-9 -17 -12 -29zM62 542
q3 6 5.5 12t5.5 11q2 5 4 9t4 7l3 6q0 -1 -1 -2q-2 -2 -3 -4q-2 -2 -4.5 -6t-4.5 -9q-2 -3 -6 -11l-6 -12l-12 -27q-2 -8 -4.5 -15t-4.5 -14t-3 -13l-2 -12q-2 -6 -2 -10.5t-1 -7.5q-1 -4 -1 -7q0 3 1 7q1 3 2 7.5t3 10.5q2 5 3.5 11t3.5 13t4.5 14t4.5 14q2 8 5 14.5z
M165 325q42 0 77.5 24t62 53.5t42 53.5t17.5 24t5.5 -1.5t6.5 -3.5q4 -3 8 -5q11 33 20 66q8 28 14 60t6 58q0 37 -12 60t-43 23q-38 0 -74.5 -18.5t-69.5 -49t-60.5 -69.5t-47.5 -80t-31.5 -80t-11.5 -70q-5 -13 3 -23q7 -8 26.5 -15t61.5 -7zM484 521q1 5 1 8.5v6.5v14v-4
q0 -2 -0.5 -4t-0.5 -5q-1 -4 -1 -7.5t-1 -8.5q-2 -7 -4 -20q-2 -5 -3.5 -11t-3.5 -12l-4 -12t-4 -13q-3 -7 -5.5 -13.5t-4.5 -13.5l-12 -27l-6 -13.5t-7 -13.5l-6 -12.5l-6 -12.5l-24 -45l-5.5 -9t-4.5 -9q-2 -4 -4 -7.5t-4 -5.5q-2 -3 -3 -5l-2 -4t-2 -3q1 1 2 3t2.5 3.5
t3.5 4.5q4 5 9.5 12.5t11.5 17.5l6 10l6 10l14 24q14 24 26 52l6 13.5t6 14.5l9 27q2 7 4 13t4 13q2 6 2.5 12t2.5 11q1 6 1.5 11t0.5 10z" />
    <glyph glyph-name="at" unicode="@" horiz-adv-x="824" 
d="M505 669q51 0 97.5 -23t81.5 -60.5t56 -85t21 -96.5q0 -69 -27 -131t-65.5 -109t-81.5 -75t-74 -28q-26 0 -47.5 11.5t-39 28.5t-31 36t-22.5 35q-32 -28 -63 -50q-26 -19 -54 -34t-46 -15q-20 0 -37 10.5t-30.5 24.5t-21 28.5t-7.5 22.5q0 22 16 56.5t42.5 73.5t60 77.5
t68 69.5t67 50.5t56.5 19.5q19 0 39 -13.5t37 -33t28 -40t11 -35.5q0 -14 -3.5 -29t-8.5 -28.5t-10.5 -22t-9.5 -8.5q-5 0 -16 8.5t-23 19.5t-21 23t-9 18q0 3 4.5 7l9.5 8.5t9.5 10t4.5 11.5q0 10 -10 10q-17 0 -40 -14t-47 -34.5t-47 -45.5t-40.5 -47t-26.5 -38t-6 -19
q2 -2 23 12.5l46.5 33l49 34t30.5 15.5q6 0 17.5 -10.5t22.5 -24t19.5 -26t8.5 -16.5q0 -3 -5.5 -16.5t-9 -28.5t-3 -27t12.5 -12q23 0 62 24t77 67t66 102t28 129q0 36 -12.5 59.5t-33 37t-46 18.5t-52.5 5q-48 0 -105.5 -14.5t-115.5 -41.5t-112 -65.5t-96 -87t-67 -106
t-25 -121.5q0 -58 13 -97.5t33.5 -64.5t45.5 -38t49 -19t44 -6.5t30 -0.5q39 0 76.5 11t68 24.5t51 24.5t25.5 11q18 0 12.5 -22.5t-31 -49t-68 -49t-97.5 -22.5q-54 0 -112.5 29t-106.5 74.5t-79 101.5t-31 111q0 56 22.5 114.5t61.5 114t92.5 104t114.5 85t128 58
t134 21.5zM117 474q5 5 8.5 9t6.5 7q4 3 6 5q-3 -2 -7 -5q-6 -5 -15 -15q-12 -9 -22 -22l-12 -12.5l-12 -13.5l-11 -15l-10 -14q-5 -4 -9 -14q-6 -6 -9 -12q-3 -5 -5.5 -10l-4.5 -9q-2 -2 -2 -3t-1 -2t-1 -2q0 1 1 2q2 2 3 5q2 3 5 8t7 10q5 6 9 12l9 13t11 14t11 15
l12 12.5t11 12.5q5 8 10.5 13.5zM501 655q3 0 5 1h-16h-20q-5 -1 -11.5 -1.5t-13.5 -1.5q-1 0 -2.5 -0.5t-3.5 -0.5t-4 -0.5t-4 -0.5q-4 -1 -7 -1.5t-7 -1.5q-8 -2 -15.5 -3.5t-15.5 -4.5q-9 -2 -17 -5t-17 -5q-8 -4 -16.5 -7.5l-16.5 -6.5t-16 -7.5l-15 -8.5
q-16 -8 -31 -17l-14.5 -9t-13.5 -7q-13 -12 -24 -17q-11 -8 -19.5 -15.5t-13.5 -12.5q-3 -3 -5.5 -4.5t-4.5 -3.5l-3 -3l3 3q2 2 4.5 3.5t5.5 3.5q6 5 15.5 11l20.5 13q6 5 12 8t12 8q7 5 14 8t15 8q7 5 14.5 8.5l15.5 7.5q8 5 15.5 8t15.5 8l17.5 7l15.5 6q8 4 16 6.5
l17 5.5q8 2 15.5 5t14.5 5q10 2 15 2q2 1 3.5 1t3.5 1q4 0 6 1l12.5 2t11.5 2t10 1t10 1h11zM142 205l10.5 20t13.5 21q3 6 6.5 11l7.5 11l8 10.5t8 12.5l16 21.5l16 20.5l15 20.5t14 17.5q3 5 6 8l6 6l4.5 7.5t3.5 4.5q2 3 6 7l3 3q-1 -1 -3 -2l-7 -7l-10 -10
q-2 -4 -6 -6.5t-7 -7.5l-15 -16.5t-16 -18.5l-16 -22l-16 -22l-15.5 -23l-15.5 -23q-3 -5 -6 -11t-6 -11q-2 -5 -4.5 -9.5t-4.5 -9.5q-3 -5 -4.5 -9.5t-3.5 -8.5q-1 -9 -3 -14q-1 -5 -1 -10v-4v4q1 2 1 4t1 6l2.5 5t2.5 7q2 5 4.5 8.5t4.5 8.5zM272 112h-1q-1 0 -3 -2
q-6 -2 -11 -4q-4 -2 -14 -6q-8 -3 -17 -5q-20 -5 -34 -2q-2 1 -3 1t-2 1q-2 0 -3 0.5t-3 0.5q-1 0 -2 1v1v-1l2 -1q1 -1 2 -1.5t2 -1.5q2 -1 3.5 -1t3.5 -1q2 -2 3.5 -2t3.5 -1h8h10q2 1 4.5 1t4.5 2q5 2 9.5 3t8.5 3t7.5 3.5t6.5 3.5q7 3 10 6zM648 178q2 4 6.5 8t8.5 10
l6.5 10.5t8.5 11.5l6.5 11t7.5 12q2 5 4.5 10t4.5 10t4 8.5t3 6.5q1 4 2 6q-1 -2 -3 -5q-2 -2 -4 -6l-4 -8l-11 -21t-14 -22l-7.5 -11.5l-6.5 -10.5q-4 -5 -7.5 -10t-5.5 -9q-3 -2 -4 -3.5t-3 -3.5l-5 -5l-2 -4l-1 -1l1 1q1 1 1 1.5t2 2.5q1 1 2 1.5t3 2.5zM750 390v10v-10
q-1 -3 -1 -11q-1 -4 -1.5 -7t-0.5 -8q-2 -10 -4 -16q-1 -5 -1 -10t-2 -10q-4 -9 -7 -20l-4 -10t-3 -10q-2 -5 -5 -10t-5 -10t-3.5 -9.5t-3.5 -9.5l-6 -8t-5 -9q-2 -4 -4 -7t-5 -8q-4 -7 -7.5 -12.5t-5.5 -9.5q-4 -4 -5 -6t-2 -3q1 1 2 3t5 6l7 9t9 12q4 7 9 14.5t10 17.5
q2 5 4.5 9.5t4.5 9.5t4.5 9.5t4.5 9.5t3.5 10.5t3.5 10.5q4 10 6 20q2 6 2 10q2 6 2 9l3 18q0 4 0.5 7.5t0.5 7.5v11z" />
    <glyph glyph-name="period" unicode="." horiz-adv-x="321" 
d="M151 147q4 0 14 -8t20 -19t17.5 -21.5t7.5 -15.5t-6 -18.5t-14.5 -27.5t-16.5 -25.5t-11 -11.5t-12.5 6t-20 14t-18.5 16t-8 12t5.5 20t13 33.5t15.5 31.5t14 14z" />
    <glyph glyph-name="fraction" unicode="&#x2044;" horiz-adv-x="613" 
d="M505 808q7 0 17 -10t19.5 -22.5t16 -25t6.5 -18.5q0 -5 -14.5 -23.5l-38.5 -48l-55 -69.5t-63 -88l-37.5 -56l-66 -97l-79.5 -115l-78 -110.5l-61 -83t-29 -32.5q-5 0 -16.5 6.5t-22.5 15t-19.5 17t-8.5 13.5q0 4 9 17t25 33l36 46l43 58l34.5 49.5l54.5 78.5l66.5 96.5
l71 103.5l69 99.5l59.5 84.5t43 59t19 22zM319 509q3 5 5 9.5t4 7.5q2 4 4 6q-1 -2 -4 -6q-2 -3 -5 -7t-6 -9l-6.5 -10.5t-7.5 -12.5q-5 -6 -8.5 -12.5t-8.5 -13.5l-17 -26.5t-14 -23.5l-14 -23q1 2 4 6q2 3 5 7l7 9q3 5 7 10.5l8 11.5l8 13.5t9 13.5t8.5 13.5t7.5 12.5
q5 7 8 13t6 11zM304 505l17 26l13 20l11 18q-6 -7 -12 -17q-6 -8 -13.5 -20t-17.5 -26l-21 -30t-22 -34l-24.5 -36l-25.5 -38l-25.5 -37.5l-24.5 -35.5l-23 -34l-21 -30t-17.5 -25.5t-13.5 -19.5q-3 -5 -5.5 -8t-4.5 -5q-2 -3 -3 -4q1 1 3 4q2 2 4.5 5t5.5 7l14.5 19
l18.5 25l21.5 30l23.5 34l24.5 35.5l25.5 37.5l25.5 38l23.5 36l22.5 34.5t20.5 30.5z" />
    <glyph glyph-name="slash" unicode="/" horiz-adv-x="613" 
d="M505 808q7 0 17 -10t19.5 -22.5t16 -25t6.5 -18.5q0 -5 -14.5 -23.5l-38.5 -48l-55 -69.5t-63 -88l-37.5 -56l-66 -97l-79.5 -115l-78 -110.5l-61 -83t-29 -32.5q-5 0 -16.5 6.5t-22.5 15t-19.5 17t-8.5 13.5q0 4 9 17t25 33l36 46l43 58l34.5 49.5l54.5 78.5l66.5 96.5
l71 103.5l69 99.5l59.5 84.5t43 59t19 22zM319 509q3 5 5 9.5t4 7.5q2 4 4 6q-1 -2 -4 -6q-2 -3 -5 -7t-6 -9l-6.5 -10.5t-7.5 -12.5q-5 -6 -8.5 -12.5t-8.5 -13.5l-17 -26.5t-14 -23.5l-14 -23q1 2 4 6q2 3 5 7l7 9q3 5 7 10.5l8 11.5l8 13.5t9 13.5t8.5 13.5t7.5 12.5
q5 7 8 13t6 11zM304 505l17 26l13 20l11 18q-6 -7 -12 -17q-6 -8 -13.5 -20t-17.5 -26l-21 -30t-22 -34l-24.5 -36l-25.5 -38l-25.5 -37.5l-24.5 -35.5l-23 -34l-21 -30t-17.5 -25.5t-13.5 -19.5q-3 -5 -5.5 -8t-4.5 -5q-2 -3 -3 -4q1 1 3 4q2 2 4.5 5t5.5 7l14.5 19
l18.5 25l21.5 30l23.5 34l24.5 35.5l25.5 37.5l25.5 38l23.5 36l22.5 34.5t20.5 30.5z" />
    <glyph glyph-name="grave" unicode="`" horiz-adv-x="392" 
d="M273 643q13 -12 15 -19.5t-2.5 -11.5t-13 -5.5t-16.5 -1.5q-11 0 -29 9t-38.5 23t-42 31.5t-38.5 34.5t-28 32t-11 25q0 5 12.5 11.5t28 11.5t30 7t18.5 -3q5 -5 18.5 -23.5l31 -41.5l35 -45t30.5 -34zM254 639q1 -2 2 -2t2 -1l1 -1l-5 5q-2 3 -4.5 6l-6.5 8t-7 10t-8 10
q-9 10 -18 24q-9 11 -17.5 22.5l-15.5 20.5q-7 7 -11 13l-4 4l-1 1l1 -1q1 -1 1 -1.5t2 -2.5q2 -7 9 -16l13.5 -21.5t17.5 -23.5q4 -6 8.5 -11.5t9.5 -10.5l9 -10.5t8 -8.5q2 -2 3.5 -4t3.5 -3q3 -2 7 -6z" />
    <glyph glyph-name="acute" unicode="&#xb4;" horiz-adv-x="503" 
d="M419 820q5 0 11.5 -9t12 -20.5t9.5 -22.5t4 -16q0 -4 -12.5 -16.5t-32 -29.5t-43 -35.5l-45 -34t-38 -26t-22.5 -10.5q-9 0 -16 9t-12.5 20.5t-8 22.5t-2.5 15t10 12t26 18.5l35 22.5t36 26q35 27 56 50.5t32 23.5zM429 744q1 2 4 5q1 1 2 1q-2 -2 -6 -5l-17 -14l-11 -9
t-13 -10t-13.5 -11t-13.5 -11q-3 -3 -6.5 -6t-6.5 -6q-4 -2 -7 -5t-7 -6q-7 -5 -12.5 -9.5l-11.5 -9.5l-9 -7.5t-7 -5.5q-2 -2 -3 -2.5t-2 -1.5t-2 -1q1 0 2 1t5 3t8.5 5l10.5 7q2 2 5 3.5t6 3.5q4 2 7.5 5t6.5 5q7 5 13.5 10.5l13.5 11.5q7 5 13.5 11l13.5 12
q6 5 11.5 10.5l10.5 10.5q10 9 15 15z" />
    <glyph glyph-name="egrave" unicode="&#xe8;" horiz-adv-x="392" 
d="M422 338q12 -6 21 -19t9 -30q0 -10 -12 -35.5t-33.5 -57.5t-51.5 -66.5t-66 -63.5t-76.5 -47.5t-83.5 -18.5q-29 0 -59 19t-54.5 48.5t-40 66.5t-15.5 73q0 34 11.5 73.5t31.5 78t46 74.5t55 63t58.5 43.5t57.5 16.5q36 0 57.5 -16.5t32.5 -37t12.5 -37t-2.5 -16.5t-6 1
q1 -4 1 -14q0 -31 -14.5 -65.5t-39 -63t-56.5 -47t-68 -18.5q-26 0 -44.5 9t-31.5 21q-22 -55 -22 -102q0 -17 2 -34.5t7 -31.5t14.5 -23.5t24.5 -9.5q44 0 83 17.5t71.5 44.5t58 59t44.5 61.5t30 51t15 28.5q9 15 28 7zM240 404q-1 -1 -1 -2q-1 -1 -1 -2.5t-1 -3.5l-4.5 -9
t-6.5 -12q-2 -4 -8 -12q-4 -6 -10 -14q-3 -3 -6 -6.5t-6 -6.5q-4 -3 -7 -6.5t-7 -5.5l-7 -6q-2 -2 -4 -2.5t-4 -2.5q-8 -5 -16 -8q-4 -2 -8 -3t-8 -3q-8 -3 -15 -3l-12 -3h-10q-3 -1 -7 -1h-2h9h10q3 0 6 0.5t7 0.5q3 1 7 1.5t8 1.5q4 2 8 3t8 3q5 2 8.5 4t8.5 4q2 2 4 2.5
t4 2.5l7 6q5 2 8 5.5t7 6.5q3 4 6 7t6 7q2 4 5 7t5 7l3.5 7t3.5 6q4 7 5.5 12t3.5 9zM95 301q41 0 69 18t46 44.5t28 56.5t16 54q-3 0 -6 0.5t-6 0.5q-19 0 -41.5 -14t-45 -38t-43.5 -55t-37 -64q7 -3 20 -3zM50 419q-2 -3 -3 -5l-2 -4t-2 -3q1 1 2 3t2.5 3.5t3.5 4.5
q5 5 11 12.5t14 15.5q4 5 8 9l9 9t10 9.5t10 9.5t11 9.5t12 9.5t12.5 8.5t12.5 7.5q14 8 28 12q12 5 28 7h13.5t13.5 -2q2 0 3 -0.5t3 -0.5q2 -1 3 -1t3 -1t3 -1t3 -1q2 -2 5 -2q9 -4 18 -11q4 -2 7 -5t6 -5q2 -2 3.5 -4t3.5 -3q2 -2 3 -2q-1 1 -2 3q-4 4 -7 8
q-2 2 -5.5 4.5t-6.5 6.5q-5 2 -9 5.5t-9 6.5q-2 0 -6 2q-1 1 -5 3q-1 0 -7 2q-2 1 -3 1t-3 1q-15 3 -29 2l-14.5 -2t-15.5 -4q-14 -4 -28 -12q-8 -4 -14 -8l-13 -9l-11.5 -10l-11.5 -10q-11 -10 -19.5 -20l-16.5 -19t-13 -17t-9 -13zM25 366q3 4 5.5 8t5.5 8q2 4 5 7.5
t5 7.5l9 12l9 10.5t6 8.5q2 2 2.5 3t1.5 2l2 2l-2 -2q-1 -1 -1.5 -2t-2.5 -3q-3 -3 -7 -7.5t-9 -9.5q-2 -3 -5 -6t-5 -7q-3 -3 -5.5 -6.5l-5.5 -7.5t-5.5 -8t-5.5 -8q-4 -8 -10 -17q-2 -5 -4 -9t-4 -9t-4 -9t-4 -9q-2 -4 -3 -8t-3 -8q-2 -10 -4 -16q-2 -8 -3 -13.5t-1 -10.5
q-1 -5 0 -9v3q0 3 1 6q1 2 1 5t1 5q1 4 3 14q2 3 2.5 6.5t2.5 8.5q2 4 3 8t3 8q2 5 4 9t4 9q2 4 4.5 8t4.5 9t4.5 9t4.5 8zM230 86q5 3 9 6t7 5q4 3 6 5q-2 -2 -6 -5q-3 -2 -7.5 -4.5l-9.5 -5.5q-5 -2 -11.5 -5.5t-13.5 -5.5q-4 -2 -7.5 -3t-7.5 -3t-7.5 -3t-8.5 -2
q-4 -2 -7.5 -2.5t-7.5 -2.5q-4 -1 -8 -1.5t-8 -1.5q-10 -2 -14 -3q-4 0 -7 -0.5t-6 -0.5q-4 -1 -11 -1q-4 -1 -9 -1q-2 0 -3.5 -0.5t-2.5 -0.5h-2h8h9q7 0 11 1q8 0 13 1q5 0 15 2q4 1 7.5 1.5t8.5 1.5q4 1 7.5 1.5t8.5 2.5q4 2 7.5 2.5t7.5 2.5l15 6q7 4 13.5 7t11.5 7z
M280 643q13 -12 15 -19.5t-2.5 -11.5t-13 -5.5t-16.5 -1.5q-11 0 -29 9t-38.5 23t-42 31.5t-38.5 34.5t-28 32t-11 25q0 5 12.5 11.5t28 11.5t30 7t18.5 -3q5 -5 18.5 -23.5l31 -41.5l35 -45t30.5 -34zM261 639q1 -2 2 -2t2 -1l1 -1l-5 5q-2 3 -4.5 6l-6.5 8t-7 10t-8 10
q-9 10 -18 24q-9 11 -17.5 22.5l-15.5 20.5q-7 7 -11 13l-4 4l-1 1l1 -1q1 -1 1 -1.5t2 -2.5q2 -7 9 -16l13.5 -21.5t17.5 -23.5q4 -6 8.5 -11.5t9.5 -10.5l9 -10.5t8 -8.5q2 -2 3.5 -4t3.5 -3q3 -2 7 -6z" />
    <glyph glyph-name="eacute" unicode="&#xe9;" horiz-adv-x="392" 
d="M422 338q12 -6 21 -19t9 -30q0 -10 -12 -35.5t-33.5 -57.5t-51.5 -66.5t-66 -63.5t-76.5 -47.5t-83.5 -18.5q-29 0 -59 19t-54.5 48.5t-40 66.5t-15.5 73q0 34 11.5 73.5t31.5 78t46 74.5t55 63t58.5 43.5t57.5 16.5q36 0 57.5 -16.5t32.5 -37t12.5 -37t-2.5 -16.5t-6 1
q1 -4 1 -14q0 -31 -14.5 -65.5t-39 -63t-56.5 -47t-68 -18.5q-26 0 -44.5 9t-31.5 21q-22 -55 -22 -102q0 -17 2 -34.5t7 -31.5t14.5 -23.5t24.5 -9.5q44 0 83 17.5t71.5 44.5t58 59t44.5 61.5t30 51t15 28.5q9 15 28 7zM240 404q-1 -1 -1 -2q-1 -1 -1 -2.5t-1 -3.5l-4.5 -9
t-6.5 -12q-2 -4 -8 -12q-4 -6 -10 -14q-3 -3 -6 -6.5t-6 -6.5q-4 -3 -7 -6.5t-7 -5.5l-7 -6q-2 -2 -4 -2.5t-4 -2.5q-8 -5 -16 -8q-4 -2 -8 -3t-8 -3q-8 -3 -15 -3l-12 -3h-10q-3 -1 -7 -1h-2h9h10q3 0 6 0.5t7 0.5q3 1 7 1.5t8 1.5q4 2 8 3t8 3q5 2 8.5 4t8.5 4q2 2 4 2.5
t4 2.5l7 6q5 2 8 5.5t7 6.5q3 4 6 7t6 7q2 4 5 7t5 7l3.5 7t3.5 6q4 7 5.5 12t3.5 9zM95 301q41 0 69 18t46 44.5t28 56.5t16 54q-3 0 -6 0.5t-6 0.5q-19 0 -41.5 -14t-45 -38t-43.5 -55t-37 -64q7 -3 20 -3zM50 419q-2 -3 -3 -5l-2 -4t-2 -3q1 1 2 3t2.5 3.5t3.5 4.5
q5 5 11 12.5t14 15.5q4 5 8 9l9 9t10 9.5t10 9.5t11 9.5t12 9.5t12.5 8.5t12.5 7.5q14 8 28 12q12 5 28 7h13.5t13.5 -2q2 0 3 -0.5t3 -0.5q2 -1 3 -1t3 -1t3 -1t3 -1q2 -2 5 -2q9 -4 18 -11q4 -2 7 -5t6 -5q2 -2 3.5 -4t3.5 -3q2 -2 3 -2q-1 1 -2 3q-4 4 -7 8
q-2 2 -5.5 4.5t-6.5 6.5q-5 2 -9 5.5t-9 6.5q-2 0 -6 2q-1 1 -5 3q-1 0 -7 2q-2 1 -3 1t-3 1q-15 3 -29 2l-14.5 -2t-15.5 -4q-14 -4 -28 -12q-8 -4 -14 -8l-13 -9l-11.5 -10l-11.5 -10q-11 -10 -19.5 -20l-16.5 -19t-13 -17t-9 -13zM25 366q3 4 5.5 8t5.5 8q2 4 5 7.5
t5 7.5l9 12l9 10.5t6 8.5q2 2 2.5 3t1.5 2l2 2l-2 -2q-1 -1 -1.5 -2t-2.5 -3q-3 -3 -7 -7.5t-9 -9.5q-2 -3 -5 -6t-5 -7q-3 -3 -5.5 -6.5l-5.5 -7.5t-5.5 -8t-5.5 -8q-4 -8 -10 -17q-2 -5 -4 -9t-4 -9t-4 -9t-4 -9q-2 -4 -3 -8t-3 -8q-2 -10 -4 -16q-2 -8 -3 -13.5t-1 -10.5
q-1 -5 0 -9v3q0 3 1 6q1 2 1 5t1 5q1 4 3 14q2 3 2.5 6.5t2.5 8.5q2 4 3 8t3 8q2 5 4 9t4 9q2 4 4.5 8t4.5 9t4.5 9t4.5 8zM230 86q5 3 9 6t7 5q4 3 6 5q-2 -2 -6 -5q-3 -2 -7.5 -4.5l-9.5 -5.5q-5 -2 -11.5 -5.5t-13.5 -5.5q-4 -2 -7.5 -3t-7.5 -3t-7.5 -3t-8.5 -2
q-4 -2 -7.5 -2.5t-7.5 -2.5q-4 -1 -8 -1.5t-8 -1.5q-10 -2 -14 -3q-4 0 -7 -0.5t-6 -0.5q-4 -1 -11 -1q-4 -1 -9 -1q-2 0 -3.5 -0.5t-2.5 -0.5h-2h8h9q7 0 11 1q8 0 13 1q5 0 15 2q4 1 7.5 1.5t8.5 1.5q4 1 7.5 1.5t8.5 2.5q4 2 7.5 2.5t7.5 2.5l15 6q7 4 13.5 7t11.5 7z
M326 820q5 0 11.5 -9t12 -20.5t9.5 -22.5t4 -16q0 -4 -12.5 -16.5t-32 -29.5t-43 -35.5l-45 -34t-38 -26t-22.5 -10.5q-9 0 -16 9t-12.5 20.5t-8 22.5t-2.5 15t10 12t26 18.5l35 22.5t36 26q35 27 56 50.5t32 23.5zM336 744q1 2 4 5q1 1 2 1q-2 -2 -6 -5l-17 -14l-11 -9
t-13 -10t-13.5 -11t-13.5 -11q-3 -3 -6.5 -6t-6.5 -6q-4 -2 -7 -5t-7 -6q-7 -5 -12.5 -9.5l-11.5 -9.5l-9 -7.5t-7 -5.5q-2 -2 -3 -2.5t-2 -1.5t-2 -1q1 0 2 1t5 3t8.5 5l10.5 7q2 2 5 3.5t6 3.5q4 2 7.5 5t6.5 5q7 5 13.5 10.5l13.5 11.5q7 5 13.5 11l13.5 12
q6 5 11.5 10.5l10.5 10.5q10 9 15 15z" />
    <glyph glyph-name="asciicircum" unicode="^" horiz-adv-x="833" 
d="M447 691l22 -22l20 -20.5t15 -17.5t6 -12t-5 -7t-12.5 -4.5t-15.5 -2t-14 -0.5q-14 0 -34 14.5t-38 32.5q-21 20 -44 47q-36 -25 -66 -43l-48 -29t-25 -13t-11.5 8t-18 19t-16.5 21.5t-7 16.5q0 2 11.5 9.5t27.5 16.5l33.5 18.5l29.5 16.5l25 17l24.5 17l19.5 13.5
t11 5.5q6 0 11.5 -9t11.5 -9q7 0 16.5 1.5t13.5 -1.5q1 -2 6.5 -11l13 -22t17 -26.5t20.5 -24.5zM468 655q2 -3 4 -4.5t4 -3.5t2 -3q-1 1 -2 3t-7 8q-11 10 -21 24q-7 7 -12 12.5l-10 10.5q-6 8 -7 9l-3 3l2 -4q1 -3 6 -9q5 -5 10 -11.5t11 -12.5l12.5 -13t10.5 -9z" />
    <glyph glyph-name="ecircumflex" unicode="&#xea;" horiz-adv-x="392" 
d="M422 338q12 -6 21 -19t9 -30q0 -10 -12 -35.5t-33.5 -57.5t-51.5 -66.5t-66 -63.5t-76.5 -47.5t-83.5 -18.5q-29 0 -59 19t-54.5 48.5t-40 66.5t-15.5 73q0 34 11.5 73.5t31.5 78t46 74.5t55 63t58.5 43.5t57.5 16.5q36 0 57.5 -16.5t32.5 -37t12.5 -37t-2.5 -16.5t-6 1
q1 -4 1 -14q0 -31 -14.5 -65.5t-39 -63t-56.5 -47t-68 -18.5q-26 0 -44.5 9t-31.5 21q-22 -55 -22 -102q0 -17 2 -34.5t7 -31.5t14.5 -23.5t24.5 -9.5q44 0 83 17.5t71.5 44.5t58 59t44.5 61.5t30 51t15 28.5q9 15 28 7zM240 404q-1 -1 -1 -2q-1 -1 -1 -2.5t-1 -3.5l-4.5 -9
t-6.5 -12q-2 -4 -8 -12q-4 -6 -10 -14q-3 -3 -6 -6.5t-6 -6.5q-4 -3 -7 -6.5t-7 -5.5l-7 -6q-2 -2 -4 -2.5t-4 -2.5q-8 -5 -16 -8q-4 -2 -8 -3t-8 -3q-8 -3 -15 -3l-12 -3h-10q-3 -1 -7 -1h-2h9h10q3 0 6 0.5t7 0.5q3 1 7 1.5t8 1.5q4 2 8 3t8 3q5 2 8.5 4t8.5 4q2 2 4 2.5
t4 2.5l7 6q5 2 8 5.5t7 6.5q3 4 6 7t6 7q2 4 5 7t5 7l3.5 7t3.5 6q4 7 5.5 12t3.5 9zM95 301q41 0 69 18t46 44.5t28 56.5t16 54q-3 0 -6 0.5t-6 0.5q-19 0 -41.5 -14t-45 -38t-43.5 -55t-37 -64q7 -3 20 -3zM50 419q-2 -3 -3 -5l-2 -4t-2 -3q1 1 2 3t2.5 3.5t3.5 4.5
q5 5 11 12.5t14 15.5q4 5 8 9l9 9t10 9.5t10 9.5t11 9.5t12 9.5t12.5 8.5t12.5 7.5q14 8 28 12q12 5 28 7h13.5t13.5 -2q2 0 3 -0.5t3 -0.5q2 -1 3 -1t3 -1t3 -1t3 -1q2 -2 5 -2q9 -4 18 -11q4 -2 7 -5t6 -5q2 -2 3.5 -4t3.5 -3q2 -2 3 -2q-1 1 -2 3q-4 4 -7 8
q-2 2 -5.5 4.5t-6.5 6.5q-5 2 -9 5.5t-9 6.5q-2 0 -6 2q-1 1 -5 3q-1 0 -7 2q-2 1 -3 1t-3 1q-15 3 -29 2l-14.5 -2t-15.5 -4q-14 -4 -28 -12q-8 -4 -14 -8l-13 -9l-11.5 -10l-11.5 -10q-11 -10 -19.5 -20l-16.5 -19t-13 -17t-9 -13zM25 366q3 4 5.5 8t5.5 8q2 4 5 7.5
t5 7.5l9 12l9 10.5t6 8.5q2 2 2.5 3t1.5 2l2 2l-2 -2q-1 -1 -1.5 -2t-2.5 -3q-3 -3 -7 -7.5t-9 -9.5q-2 -3 -5 -6t-5 -7q-3 -3 -5.5 -6.5l-5.5 -7.5t-5.5 -8t-5.5 -8q-4 -8 -10 -17q-2 -5 -4 -9t-4 -9t-4 -9t-4 -9q-2 -4 -3 -8t-3 -8q-2 -10 -4 -16q-2 -8 -3 -13.5t-1 -10.5
q-1 -5 0 -9v3q0 3 1 6q1 2 1 5t1 5q1 4 3 14q2 3 2.5 6.5t2.5 8.5q2 4 3 8t3 8q2 5 4 9t4 9q2 4 4.5 8t4.5 9t4.5 9t4.5 8zM230 86q5 3 9 6t7 5q4 3 6 5q-2 -2 -6 -5q-3 -2 -7.5 -4.5l-9.5 -5.5q-5 -2 -11.5 -5.5t-13.5 -5.5q-4 -2 -7.5 -3t-7.5 -3t-7.5 -3t-8.5 -2
q-4 -2 -7.5 -2.5t-7.5 -2.5q-4 -1 -8 -1.5t-8 -1.5q-10 -2 -14 -3q-4 0 -7 -0.5t-6 -0.5q-4 -1 -11 -1q-4 -1 -9 -1q-2 0 -3.5 -0.5t-2.5 -0.5h-2h8h9q7 0 11 1q8 0 13 1q5 0 15 2q4 1 7.5 1.5t8.5 1.5q4 1 7.5 1.5t8.5 2.5q4 2 7.5 2.5t7.5 2.5l15 6q7 4 13.5 7t11.5 7z
M341 691l22 -22l20 -20.5t15 -17.5t6 -12t-5 -7t-12.5 -4.5t-15.5 -2t-14 -0.5q-14 0 -34 14.5t-38 32.5q-21 20 -44 47q-36 -25 -66 -43l-48 -29t-25 -13t-11.5 8t-18 19t-16.5 21.5t-7 16.5q0 2 11.5 9.5t27.5 16.5l33.5 18.5l29.5 16.5l25 17l24.5 17l19.5 13.5t11 5.5
q6 0 11.5 -9t11.5 -9q7 0 16.5 1.5t13.5 -1.5q1 -2 6.5 -11l13 -22t17 -26.5t20.5 -24.5zM362 655q2 -3 4 -4.5t4 -3.5t2 -3q-1 1 -2 3t-7 8q-11 10 -21 24q-7 7 -12 12.5l-10 10.5q-6 8 -7 9l-3 3l2 -4q1 -3 6 -9q5 -5 10 -11.5t11 -12.5l12.5 -13t10.5 -9z" />
    <glyph glyph-name="circumflex" unicode="&#x2c6;" horiz-adv-x="833" 
d="M447 691l22 -22l20 -20.5t15 -17.5t6 -12t-5 -7t-12.5 -4.5t-15.5 -2t-14 -0.5q-14 0 -34 14.5t-38 32.5q-21 20 -44 47q-36 -25 -66 -43l-48 -29t-25 -13t-11.5 8t-18 19t-16.5 21.5t-7 16.5q0 2 11.5 9.5t27.5 16.5l33.5 18.5l29.5 16.5l25 17l24.5 17l19.5 13.5
t11 5.5q6 0 11.5 -9t11.5 -9q7 0 16.5 1.5t13.5 -1.5q1 -2 6.5 -11l13 -22t17 -26.5t20.5 -24.5zM468 655q2 -3 4 -4.5t4 -3.5t2 -3q-1 1 -2 3t-7 8q-11 10 -21 24q-7 7 -12 12.5l-10 10.5q-6 8 -7 9l-3 3l2 -4q1 -3 6 -9q5 -5 10 -11.5t11 -12.5l12.5 -13t10.5 -9z" />
    <glyph glyph-name="acircumflex" unicode="&#xe2;" horiz-adv-x="503" 
d="M503 339q3 3 10.5 -3t15 -16.5t13.5 -22.5t6 -20q0 -10 -11 -34t-29.5 -54.5t-43 -64t-51 -61t-53 -45.5t-50.5 -18q-13 0 -29 11t-30.5 26t-24 31t-9.5 27v8q-21 -21 -42.5 -39.5t-42 -32.5t-39 -22.5t-33.5 -8.5q-24 0 -48.5 16.5t-45 40t-33.5 49.5t-13 46
q0 40 19.5 86t51.5 91t72 86.5t81 73t79 50.5t65 19q32 0 53 -22t31 -48t10 -48t-9 -22q-10 0 -14.5 8.5t-9 19t-12.5 19t-25 8.5q-24 0 -57 -18t-69.5 -48t-72 -68.5t-63.5 -79.5t-45.5 -81.5t-17.5 -73.5q0 -27 23 -27q21 0 47 15.5t52.5 40t53.5 54.5l50.5 58.5t41.5 53
l29 38.5q8 13 12 13t15 -10.5t22.5 -24t20.5 -26.5t9 -18q0 -3 -6.5 -17l-15 -33.5l-18.5 -41t-17 -40t-10 -30.5t3 -12q19 0 40.5 16.5t42.5 41.5t40.5 55l36 57l28 47t16.5 25zM226 507q4 2 7 4t5 4q3 2 5 3q0 -1 -1 -1t-2 -0.5t-2 -0.5q-2 -2 -5.5 -3.5l-8.5 -3.5
q-4 -2 -8.5 -4.5t-9.5 -6.5l-10.5 -6t-10.5 -7l-9.5 -7.5l-9.5 -7.5l-9 -7.5t-7 -6.5l-6.5 -6.5l-4.5 -4.5l-4 -4q1 2 4 4l12 9l17 13l20 15q5 4 10 7t10 7q5 3 9 6t9 5zM-25 271q5 10 11.5 19.5l13.5 19.5l15.5 20l15.5 20t16.5 19.5l17.5 19.5q17 19 36 36.5l38 33.5
l18 15.5t18 13.5q9 7 18 13l17 11q18 12 31 18q3 2 6.5 3t6.5 3q4 2 12 4q4 1 10 3q3 1 7 1q2 0 2.5 0.5t1.5 0.5h2h-6q-2 0 -3.5 -0.5t-3.5 -0.5q-2 -1 -5 -1t-5 -1l-6 -2t-7 -2q-3 -2 -6.5 -3t-6.5 -3q-8 -3 -16 -7t-16 -9q-17 -10 -35.5 -23t-38.5 -29l-38 -33t-37 -37
q-17 -19 -34 -40l-15.5 -20l-14.5 -20q-14 -20 -25 -40q-6 -10 -10 -20q-2 -5 -4.5 -9.5t-4.5 -9.5q-4 -9 -6.5 -17.5t-4.5 -16.5q-2 -4 -2.5 -7.5t-1.5 -6.5q-1 -4 -1 -7t-1 -6q-1 -5 -1 -9.5v-7.5v-7v2q0 3 1 5v7q1 2 1 4.5t1 5.5q0 6 3 12q2 10 4 15q4 15 12 33l9 18
q2 5 5 9.5t6 9.5zM99 108q-2 -1 -4 -3l-1 -1l1 1q2 2 4 3q3 2 6 4.5t8 5.5q4 3 8.5 7t9.5 9q5 4 10 9l10 10t9.5 10t8.5 10q5 5 8.5 9.5t7.5 8.5q3 4 5.5 8t4.5 6q2 3 4 5l-5 -5l-5 -5t-6 -7q-4 -4 -7.5 -8.5t-8.5 -9.5t-9.5 -10t-9.5 -10l-19 -19l-9 -9t-8 -7q-5 -4 -8 -7z
M179 86l9 7.5t7 6.5l6 6q-2 -2 -6 -5q-3 -2 -7.5 -5.5l-9.5 -7.5q-5 -5 -11 -9.5l-13 -9.5l-13.5 -10t-14.5 -10q-4 -2 -7.5 -5t-7.5 -5q-3 -2 -6.5 -4t-7.5 -4t-7.5 -3.5t-7.5 -3.5q-3 -2 -6.5 -2.5t-6.5 -1.5q-2 -1 -6 -1q-2 -1 -6 -1h-9q-2 0 -3.5 0.5t-2.5 0.5h-2h2
q2 -1 3 -1t3 -1q2 0 4.5 -0.5t4.5 0.5h6q4 0 7 1t6.5 1.5t6.5 2.5q4 1 7.5 2.5t7.5 3.5t7.5 4t7.5 4t7.5 5t7.5 5q8 5 14.5 10.5t13.5 10.5t12.5 9.5t10.5 9.5zM388 691l22 -22l20 -20.5t15 -17.5t6 -12t-5 -7t-12.5 -4.5t-15.5 -2t-14 -0.5q-14 0 -34 14.5t-38 32.5
q-21 20 -44 47q-36 -25 -66 -43l-48 -29t-25 -13t-11.5 8t-18 19t-16.5 21.5t-7 16.5q0 2 11.5 9.5t27.5 16.5l33.5 18.5l29.5 16.5l25 17l24.5 17l19.5 13.5t11 5.5q6 0 11.5 -9t11.5 -9q7 0 16.5 1.5t13.5 -1.5q1 -2 6.5 -11l13 -22t17 -26.5t20.5 -24.5zM409 655
q2 -3 4 -4.5t4 -3.5t2 -3q-1 1 -2 3t-7 8q-11 10 -21 24q-7 7 -12 12.5l-10 10.5q-6 8 -7 9l-3 3l2 -4q1 -3 6 -9q5 -5 10 -11.5t11 -12.5l12.5 -13t10.5 -9z" />
    <glyph glyph-name="exclam" unicode="!" horiz-adv-x="488" 
d="M70 171q3 0 16 -5.5t27 -13t25.5 -15t11.5 -10.5t-7 -22.5t-16 -42t-17.5 -40.5t-11.5 -18t-16 3.5t-27 8.5t-25 10.5t-11 10.5q0 4 7 25.5l15.5 45.5t17 43.5t11.5 19.5zM345 834q8 0 19.5 -7t22.5 -16.5t19 -19.5t8 -16q0 -3 -10.5 -30.5l-27 -69.5l-38.5 -95
l-44.5 -108l-44.5 -107.5l-40 -93l-29.5 -65.5t-12.5 -25q-3 0 -15.5 5t-27 12t-26 14.5t-11.5 12.5q0 2 10.5 29.5l28 70.5l39.5 97.5l45.5 111.5l46.5 110.5l41.5 96t31 68t15.5 25.5zM154 313q1 3 1 5t1 4q0 2 1 4q-1 -1 -2 -3t-1.5 -4.5t-2.5 -4.5q-2 -6 -5 -13t-6 -15
t-5.5 -15.5t-4.5 -12.5q-2 -8 -3 -10q-1 -3 -1 -4q1 1 2 3t1.5 4.5t2.5 5.5q2 5 5.5 12.5t6.5 15.5l5.5 15zM220 515q5 11 8 21t6 17q3 8 6 15q-2 -6 -6 -14l-7.5 -17l-9.5 -21l-11 -25.5t-12 -28.5q-6 -14 -12 -29.5l-13 -32.5l-12 -31.5l-12 -30.5q-6 -14 -10.5 -28
t-9.5 -26l-9 -22t-6 -17q-4 -9 -5 -15l7 14l7 17l9 22q5 11 10.5 25l11.5 28l12 30.5t13 31.5l12 32t12 30q6 15 11 29t10 26z" />
    <glyph glyph-name="quotedbl" unicode="&#x22;" horiz-adv-x="475" 
d="M292 851q2 0 11.5 -6t19.5 -14.5t18 -17.5t8 -14q0 -4 -5.5 -18t-14 -33l-18 -40t-18.5 -39t-16 -29.5t-9 -11.5q-3 0 -13 3.5t-21.5 9t-20.5 11t-9 10.5q0 3 6 18.5t15 36.5l20 44.5l21 43.5l17 33t9 13zM308 717q2 3 2.5 5.5t1.5 4.5l2 4l-2 -4l-2 -4t-3 -5t-4 -6.5
t-4 -8.5l-4 -8t-4 -9q-5 -8 -8 -16q-2 -4 -3.5 -7.5t-3.5 -7.5l-5 -10q-1 -3 -1 -4l2 4q1 3 6 9q2 4 3.5 7.5t3.5 7.5q2 5 4.5 8.5t4.5 8.5q2 4 3.5 8t3.5 8q2 5 4 8.5t3 6.5zM153 851q2 0 11.5 -6t20 -14.5t18.5 -17t8 -13.5q0 -4 -6 -19t-15 -35.5l-19.5 -44t-20.5 -43
t-17.5 -32.5t-9.5 -13q-4 0 -15 4.5t-22.5 10.5t-20.5 13t-9 12q0 2 6.5 17.5l16.5 37.5t22.5 47l23 46.5t18.5 35.5t10 14zM107 739q1 3 2 5.5t2 4.5q1 3 1 5l-2 -4q-1 -2 -2 -4.5t-2 -5.5q-2 -3 -3.5 -6.5t-3.5 -7.5q-2 -3 -4 -7t-3 -9q-2 -3 -3.5 -7t-3.5 -8
q-2 -3 -3 -6.5t-3 -6.5t-2.5 -5.5t-1.5 -4.5q-1 -3 -1 -4q1 1 2 3l5 10q1 3 2.5 6.5t3.5 6.5q6 9 7 16l4 8l4 8q3 7 5 13z" />
    <glyph glyph-name="numbersign" unicode="#" horiz-adv-x="647" 
d="M578 362q-2 -2 -39.5 -6.5l-94.5 -11.5q-8 -13 -15.5 -26.5t-14.5 -27.5q47 4 77 7t31 1q2 -2 0.5 -12.5t-4.5 -23.5t-6 -24t-5 -13q-1 -2 -41 -7l-98 -12l-32 -58l-26 -47t-18 -31.5t-8 -11.5q-2 0 -11.5 4.5t-20.5 11t-19.5 13.5t-8.5 11q0 5 16.5 32l39.5 65
q-19 -2 -38 -4.5t-39 -4.5l-24.5 -52l-20 -42t-14.5 -28t-9 -10t-13 5t-20.5 11.5t-18.5 12.5t-8 8t11.5 26l29.5 59q-48 -5 -79 -7t-33 0t-3.5 12.5t-1.5 22.5t1 22.5t4 13.5q1 1 13.5 3t33.5 5t48.5 6.5l59.5 7.5q8 14 15 28t15 27q-48 -5 -80 -8t-34 -3q-3 0 -4.5 11
t-1.5 25t1.5 26.5t4.5 15.5q0 1 12.5 2.5l34 4t50 5.5t61.5 6q13 27 27.5 54l26.5 48.5t21 35.5t12 14t11.5 -5.5t17.5 -13t16 -15t7 -11.5q0 -5 -15 -31.5l-38 -65.5l43.5 4l41.5 4l24 51l20 42.5t15 29.5t8 11t11.5 -6t20 -13.5t19 -14.5t8.5 -10q0 -2 -11.5 -24.5
l-30.5 -57.5q45 5 73.5 7t30.5 0t1 -13t-3.5 -24t-5.5 -23.5t-6 -12.5zM129 171q1 2 1.5 3.5t1.5 3.5h-3q-1 -2 -1 -3t-1 -2q-5 -8 -7.5 -14l-4.5 -11q-3 -5 -4 -9q2 4 5 9q4 8 13 23zM187 285l7.5 17.5t8.5 15.5h-3q-4 -7 -8 -15t-9 -16q-3 -7 -6 -12.5l-6 -11.5q3 0 4 1z
M287 185q2 3 3.5 5.5t3.5 5.5q-4 0 -6 -1q-2 -2 -3 -4l-2 -4q-4 -8 -8 -14t-8 -13q-3 -6 -5.5 -10.5t-4.5 -7.5l-3 -9q0 1 1 2l2 6q5 5 13 18q5 5 8.5 11.5t8.5 14.5zM348 292q1 2 3 4q1 1 1 2q0 -1 -1 -2q-2 -2 -3 -4q-3 -2 -7 -10h2q2 3 3 5.5t2 4.5zM333 281l15.5 27.5
t13.5 26.5q-22 -2 -44.5 -4.5t-45.5 -4.5q-8 -14 -14.5 -27t-14.5 -27q23 2 45.5 4.5t44.5 4.5zM425 222l-8 -2t-9 -1q-10 -2 -12 -2q-3 -1 -5 -1h5h5.5t7.5 1q10 2 16 2l21 3q5 0 10 1l10 2q9 0 17 3q6 0 12 2q3 1 5 1q-2 -1 -5 -1q-2 0 -5 -0.5t-7 -0.5q-4 -1 -8.5 -1
t-9.5 -1t-9.5 -1.5t-10.5 -0.5l-10 -2t-10 -1z" />
    <glyph glyph-name="dollar" unicode="$" horiz-adv-x="591" 
d="M487 849q19 -12 36.5 -32t30.5 -44.5t20.5 -50.5t7.5 -48q0 -21 -4.5 -39t-11 -31.5t-13.5 -21t-11 -7.5q-5 0 -14.5 6.5t-19 16t-16.5 19.5t-7 16t5 14.5t11.5 21.5t11.5 31.5t5 44.5q0 25 -29 25q-14 0 -32 -5l-57 -156l-64 -176q21 -20 40.5 -41.5t35.5 -45t25.5 -50
t9.5 -54.5q0 -59 -30 -105.5t-73.5 -79t-91 -50t-82.5 -19.5l-42.5 -112.5t-18.5 -42.5q-3 0 -16 5.5t-27 13.5t-25 15.5t-9 12.5q11 29 25 62.5l29 72.5q-23 15 -42.5 35t-34 42t-23 43t-8.5 37q0 17 5 37.5t12.5 38t16.5 29t16 11.5t17.5 -8t21 -19t18 -21.5t7.5 -16.5
t-5 -15l-11.5 -20.5t-11.5 -25.5t-5 -30q-1 -21 8.5 -40t40.5 -22l74 192l79 206l-38.5 34t-33 34.5t-23.5 36t-9 38.5q0 38 26 75.5t64 69.5t81 57t77 37l40 108l27 75q3 7 11.5 0t18.5 -20.5t17.5 -28t7.5 -20.5q0 -2 -10.5 -33t-29.5 -82zM204 682q1 1 1 2t1 2q0 1 1 1
l-1 -1q-1 -1 -1.5 -2t-1.5 -2l-4.5 -4.5t-4.5 -7.5q-7 -9 -11 -19q-4 -5 -5 -11q-2 -4 -4 -12t-2 -13q0 -3 -0.5 -6t-0.5 -6q1 -3 1 -6t1 -6q0 -4 2 -10q3 -10 6 -14l2 -4q0 -1 1 -1q-1 0 -1 1t-0.5 1.5t-0.5 2.5l-3 6q0 3 -2 9q-1 2 -1 4.5t-1 5.5v11q0 8 1 12q0 4 2 12
l3 12q1 3 2 5.5t3 5.5q1 3 2 5.5t2 4.5q4 6 5 9q3 4 5 7.5t4 5.5zM170 197l21 54l9.5 27t9.5 26t9 24.5l8 22.5q4 10 7 18.5l5 14.5q3 7 4 13l-5 -12q-2 -6 -5.5 -14.5l-7.5 -18.5l-8.5 -22.5l-9.5 -24.5l-10 -26l-10 -27l-10 -27l-10 -26l-9 -25.5t-8 -21.5
q-4 -11 -6.5 -19.5t-4.5 -14.5l-5 -12l5 12q2 6 5.5 14t7.5 19q10 23 18 46zM380 122q-2 -3 -8 -9q-2 -3 -8 -9l-4.5 -4.5l-4.5 -4.5l-9 -9q-2 -2 -4.5 -4t-4.5 -4l-9.5 -7.5l-9.5 -7.5q-5 -3 -9.5 -6.5t-9.5 -6.5l-9 -5.5t-9 -4.5q-4 -2 -7.5 -4t-7.5 -4q-8 -3 -12 -6
l-8 -4q-2 -1 -3 -1q1 0 3 1l9 3q10 3 28 11q5 2 9.5 4.5t9.5 4.5l10 6l10 6q2 2 4.5 4t5.5 4q6 4 9 7q3 2 5.5 4t4.5 4l10 9l9 9q2 4 8 10l8 10t7 10q4 5 6.5 10t5.5 10t5 9.5t4 8.5q2 5 3 9t3 8q2 5 4 13q0 2 0.5 4t0.5 4t1 3q0 -1 -1 -3t-3 -8q-1 -2 -2 -5.5t-3 -6.5
q-2 -4 -3.5 -7.5l-3.5 -8.5q-2 -4 -4.5 -8.5l-5.5 -9.5t-6 -9l-7 -9q-2 -2 -3.5 -5t-3.5 -5zM366 307q0 27 -11.5 51t-29.5 46l-60 -162l-56 -151q30 13 58 33t50 47t35.5 61t13.5 75zM271 495l41 107l39 103q-24 -19 -45 -40t-36.5 -41.5t-25 -39.5t-9.5 -32q0 -12 10 -26
t26 -31zM350 817q2 2 4 2.5t4 1.5t3 2q-1 -1 -3 -2t-4 -1.5t-4 -2.5q-3 -2 -6 -3.5l-7 -3.5t-7.5 -4.5t-8.5 -4.5q-5 -3 -9.5 -6t-9.5 -7q-5 -3 -10 -6.5t-10 -7.5t-10.5 -7.5t-10.5 -8.5l-11 -9t-10 -9t-10 -9.5t-10 -9.5t-9 -10t-9 -10q-2 -2 -4 -5t-4 -5t-3 -5t-3 -5
t-3.5 -5t-3.5 -5q-1 -2 -2 -5t-2 -5q-3 -5 -4 -9t-3 -8q-1 -5 -2 -8.5t-1 -5.5q-1 -5 -1 -10v-3v3q0 5 1 9q1 3 2 6.5t2 7.5l3 9q2 2 2.5 4t2.5 4q2 5 5 10l6 9q3 6 7 10q2 2 4 5t4 5q4 5 8.5 10t9.5 10t9.5 9t9.5 9t10.5 9.5l10.5 8.5q5 5 10.5 8.5t10.5 8.5q5 4 10 7.5
t10 6.5l9 7t9 6t8.5 5.5t7.5 4.5q8 6 12 8z" />
    <glyph glyph-name="percent" unicode="%" horiz-adv-x="613" 
d="M141 502q-20 0 -39.5 13t-36 31.5t-26.5 40.5t-10 40q0 24 17 55.5t43 59.5t55.5 47t55.5 19q21 0 39.5 -14.5t32.5 -36t22 -46t8 -44.5q0 -28 -18 -57t-43.5 -53t-53 -39.5t-46.5 -15.5zM263 604q-6 -8 -11.5 -14.5l-10.5 -12.5q-2 -3 -3.5 -5t-3.5 -4l-3 -3l3 3
q2 2 4 3.5t5 4.5l11 11.5t12 14.5q2 4 5 7.5t5 7.5q2 2 2.5 3.5t1.5 3.5q1 3 3 7t2 6q1 2 1 5q0 1 0.5 1.5t0.5 1.5v1v-1q0 -1 -0.5 -1.5t-0.5 -1.5l-2 -4l-3 -6q-3 -6 -8 -13t-10 -15zM212 721q-17 0 -38.5 -17t-40.5 -40.5t-32 -46.5t-13 -35q0 -7 9 -8.5t22 -1.5
q16 0 37.5 13.5t41.5 33.5t34 42.5t14 39.5q0 7 -6 13.5t-28 6.5zM53 665q7 14 20 32q3 5 6 9l7 9q6 9 14 17l7.5 9t7.5 8q5 4 8.5 7.5t8.5 6.5q2 2 8 6q2 2 8 6q4 3 8 5t7 4q4 2 7.5 3t7.5 3q2 0 6 2q1 0 2 0.5t3 0.5t3.5 0.5t3.5 0.5t3 1h-3q-2 0 -3.5 -0.5t-3.5 -0.5
q-4 0 -6 -1q-2 0 -3 -0.5t-3 -0.5q-3 -2 -7 -2.5t-8 -2.5l-8 -4t-8 -5q-3 -1 -9 -5l-9 -6q-4 -3 -8 -6.5t-8 -8.5q-9 -7 -16 -16l-7.5 -9l-7.5 -9l-12 -18l-5.5 -9t-5.5 -8q-2 -5 -4 -9l-4 -8q-4 -10 -6 -14q-1 -4 -2 -7t-1 -5q-1 -3 -1 -8q-1 -1 -1 -2l1 2q0 2 2 8
q1 2 1.5 5t2.5 6t3.5 6.5t3.5 7.5zM608 739q0 -6 -12 -25.5t-33 -51l-49.5 -73l-61.5 -90.5l-25.5 -36.5l-45 -62.5l-58.5 -78.5l-64 -85.5l-62.5 -83l-55 -71l-40 -49.5t-18.5 -18.5q-6 0 -16.5 5.5t-21 13.5t-18 15.5t-7.5 12.5t9 18t25 32.5l36.5 46l43.5 58.5l34.5 50
l54.5 79l67 97l71.5 104l69 100.5l60 85.5l43 59t18.5 22q7 0 16.5 -9.5t18.5 -22t15 -24.5t6 -18zM366 512q3 5 5 9.5t4 7.5q2 4 4 6q-1 -2 -4 -6q-2 -3 -5 -7t-6 -9q-7 -13 -15 -23l-8 -13.5t-9 -13.5q-8 -14 -16.5 -26.5t-14.5 -23.5q-8 -12 -14 -23q2 2 5 6l4.5 7t6.5 9
t7.5 10.5t8.5 12.5l8 12.5t9 13.5l8 13.5l8 13.5l7.5 13zM351 508l17 26l13 20l11 18q-6 -7 -12 -17q-6 -8 -13.5 -20t-17.5 -26l-21 -30.5l-23 -33.5l-24.5 -36.5l-25.5 -38.5l-25.5 -37.5l-24.5 -36.5l-23 -33.5l-21 -30.5l-18 -25.5l-14 -19.5q-3 -5 -5 -8t-4 -5
q-2 -3 -3 -4q1 1 3 4q2 2 4.5 5t5.5 7l14.5 19.5l18.5 25.5l21.5 30l23.5 33l24.5 36.5l25.5 37.5l25.5 38.5l24.5 36.5l22.5 34.5t20.5 30.5zM523 323q21 0 39.5 -14.5t32.5 -36t22 -46t8 -44.5q0 -28 -18 -57t-43.5 -53t-53.5 -39.5t-47 -15.5t-39 12.5t-36 31.5t-26 41
t-10 40q0 24 17 55.5t42.5 59.5t55.5 47t56 19zM398 186q2 4 4 7.5t4 7.5t5 7.5t5 6.5q2 4 5 7t5 7q3 3 5.5 6t4.5 6q3 2 5.5 5t4.5 5q6 6 9 8q2 4 7 6l6 6q-1 0 -2 -1q-3 -3 -5 -4q-2 -2 -3.5 -3t-3.5 -3q-3 -2 -9 -8q-3 -2 -5.5 -4.5t-5.5 -4.5q-3 -4 -11 -12q-2 -4 -5 -7
t-5 -7q-3 -3 -5.5 -6.5t-4.5 -7.5q-5 -8 -8 -16q-4 -6 -7 -16q-2 -4 -2.5 -7.5t-2.5 -7.5q-2 -10 -2 -14q-1 -3 -1 -6.5v-5.5q1 -3 1 -5t1 -4q0 -2 0.5 -3.5t0.5 -2.5t1 -2q-1 1 -1 2t-0.5 2.5t-0.5 3.5v9q0 7 1 12q0 3 1 6.5t2 6.5q2 4 2.5 7.5t2.5 7.5t3.5 7.5zM441 87
q16 0 37.5 13.5t41.5 33.5t34 42.5t14 39.5q0 7 -6 13.5t-28 6.5q-17 0 -38.5 -17.5t-40.5 -40.5t-32 -46t-13 -35q0 -7 9.5 -8.5t21.5 -1.5z" />
    <glyph glyph-name="ampersand" unicode="&#x26;" horiz-adv-x="553" 
d="M461 817q34 -7 55.5 -21.5t32.5 -31t15 -31t4 -20.5q0 -14 -5.5 -13.5t-19 7.5t-36 15t-55.5 8t-64.5 -13t-56 -31.5t-39.5 -38.5t-15 -34t17.5 -23t38.5 -14.5t39.5 -8.5t20.5 -5t9 -12.5t15 -24t14 -27.5t6 -23t-9.5 -9.5t-23 2.5t-28 7t-24.5 4q-23 0 -54 -11
t-64.5 -31t-66 -48t-58 -62.5t-41.5 -74.5t-16 -83q0 -14 1.5 -31.5t14 -32.5t40 -25.5t80.5 -10.5q52 0 100 19t84.5 47t58 59t21.5 54q0 16 -3.5 25t-7.5 15t-7.5 10.5t-3.5 10.5q0 12 12 7.5t26.5 -21t26.5 -42.5t12 -57q0 -27 -17.5 -58.5t-49.5 -59.5t-76.5 -50
t-98.5 -31l-31 -54l-38.5 -65t-36 -55t-22.5 -23q-7 0 -16.5 8.5t-18 20t-14.5 24t-6 20.5q0 5 7 20t17.5 34l22.5 39l21 35q-26 8 -55 24.5t-53 44t-39.5 68.5t-15.5 97q0 36 11.5 69.5t30.5 63.5t43 56t50 48q60 51 136 91q-16 17 -33.5 43.5t-17.5 55.5q0 21 12.5 46.5
t36 48.5t57.5 40.5t78 21.5q-11 14 -11 22q0 4 5.5 20.5l13.5 39t18.5 47t20.5 45.5t18 34.5t13 13.5q4 0 15 -10.5t22 -24.5t19.5 -28.5t8.5 -21.5q0 -5 -7.5 -20l-18.5 -35.5l-23.5 -42.5zM322 22v-1q1 0 3 1q4 2 7 3q4 1 12 5q3 2 6.5 3.5t7.5 3.5q5 2 8.5 4.5t8.5 4.5
q6 4 9 5l9 6q5 3 9.5 6.5t9.5 6.5l18 15l9 8q6 6 8 9q5 4 8.5 8t7.5 8q3 5 6.5 9t5.5 9q3 4 5.5 8t4.5 8q3 9 6 15q1 4 2 7t1 5t0.5 4t0.5 4t1 3h-1q-1 -1 -1 -3q-1 -2 -1 -3.5t-1 -3.5q-1 -5 -4 -12q-2 -3 -3.5 -6.5t-3.5 -7.5t-4.5 -7.5t-6.5 -7.5q-2 -5 -5.5 -8.5
l-7.5 -7.5q-5 -8 -15 -16l-4 -4l-4 -4l-9 -8l-9 -7.5t-8 -7.5q-5 -3 -9 -6.5t-9 -6.5l-18 -12q-4 -3 -8 -5.5t-8 -4.5t-7 -4l-6 -4q-5 -2 -11 -6zM160 -159q-1 -2 -1 -4q0 -1 -1 -1l1 1q1 1 1 1.5t2 2.5l9 12l12 18.5l14 21.5t12.5 22t10.5 20q4 8 6 14l3 6l-1 -1
q-1 -1 -1.5 -2t-1.5 -2q-2 -2 -4.5 -5t-4.5 -8q-6 -8 -12.5 -18.5l-13.5 -21.5t-12.5 -22t-10.5 -19l-3.5 -8.5t-3.5 -6.5zM201 518q-1 -1 -3 -2q-2 -2 -4.5 -3.5t-5.5 -3.5l-6.5 -4.5t-8.5 -5.5l-8.5 -6.5l-9.5 -7.5l-11 -8.5t-11 -9.5q-3 -2 -6 -4.5t-6 -5.5l-11 -11
q-6 -5 -12 -11l-12 -12q-5 -7 -11 -13t-11 -13q-5 -8 -10 -14.5l-10 -13.5l-9 -15l-8 -14l-7.5 -14.5t-5.5 -13.5q-4 -10 -5 -14t-2 -7l-2 -6l-3 -12q0 -3 -0.5 -6t-0.5 -5q-1 -5 -1 -9.5t-1 -8.5q0 -4 0.5 -7t0.5 -5v-4v4v12q1 4 1 8.5t1 9.5l2 10.5t3 11.5q1 5 5 13
q1 5 5 13q2 8 5.5 14.5l7.5 13.5q4 8 8 14.5l9 14.5l10 13.5l10 13.5t10.5 13.5t11.5 12.5l11.5 13t11.5 11q3 3 6 5.5t5 5.5q3 3 6 5.5t6 4.5q10 10 21 18q5 5 9.5 8t8.5 7q5 3 8.5 6t6.5 5zM273 736q-2 -1 -3 -2q-2 -1 -5 -4q-3 -4 -6.5 -8t-6.5 -9t-5 -10t-4 -9
q-2 -6 -2 -7q-1 -2 -1 -3q2 5 5 9q2 4 5 8.5t6 9.5t6 9t5 8q2 2 2.5 3l1.5 3zM330 791q2 1 3.5 1.5t2.5 1.5t2 1h-2q-2 0 -6 -2q-6 -2 -9 -4q-4 -1 -12 -5l-6 -4t-7 -4l-6.5 -4.5t-7.5 -4.5q-3 -3 -6.5 -6t-7.5 -6l-6 -6t-6 -7l-6 -8q-2 -2 -3 -3.5t-3 -3.5q-2 -4 -4.5 -8
t-4.5 -8t-3.5 -7.5t-3.5 -7.5q-2 -5 -4 -15q-2 -8 -2 -12v-10q0 -2 0.5 -3.5t0.5 -2.5t1 -2v-1v3q0 1 -0.5 2.5t0.5 3.5v4.5t1 4.5q0 3 1 6l2 6q2 3 2.5 6.5t2.5 7.5q2 3 4 6.5t4 7.5l9 15q4 4 6 7l6 7q2 3 5.5 6t6.5 7l6 6t7 5q8 8 12 11q4 2 6.5 4t5.5 4t6 3.5t5 3.5l4 2z
M428 952q2 4 2.5 7t1.5 5q1 3 2 5l-8 -16q-2 -4 -4 -8.5t-4 -9.5q-5 -11 -8 -20l-4 -10l-4 -10q-3 -11 -6 -18q-2 -5 -2 -8t-1 -5q-1 -3 -1 -5q2 8 6 17l6.5 17.5t8.5 20.5t8.5 20.5z" />
    <glyph glyph-name="quotesingle" unicode="'" horiz-adv-x="254" 
d="M153 851q2 0 11.5 -6t20 -14.5t18.5 -17t8 -13.5q0 -4 -6 -19t-15 -35.5l-19.5 -44t-20.5 -43t-17.5 -32.5t-9.5 -13q-4 0 -15 4.5t-22.5 10.5t-20.5 13t-9 12q0 2 6.5 17.5l16.5 37.5t22.5 47l23 46.5t18.5 35.5t10 14zM107 739q1 3 2 5.5t2 4.5q1 3 1 5l-2 -4
q-1 -2 -2 -4.5t-2 -5.5q-2 -3 -3.5 -6.5t-3.5 -7.5q-2 -3 -4 -7t-3 -9q-2 -3 -3.5 -7t-3.5 -8q-2 -3 -3 -6.5t-3 -6.5t-2.5 -5.5t-1.5 -4.5q-1 -3 -1 -4q1 1 2 3l5 10q1 3 2.5 6.5t3.5 6.5q6 9 7 16l4 8l4 8q3 7 5 13z" />
    <glyph glyph-name="parenleft" unicode="(" horiz-adv-x="395" 
d="M380 826q13 0 25.5 -12.5t21 -28t11 -30.5t-4.5 -19q-44 -25 -86.5 -63.5t-80.5 -85t-70 -97.5t-55.5 -101t-36.5 -97t-13 -84q0 -57 8.5 -95t19 -62t19 -37.5t8.5 -20.5q0 -5 -11 -3t-27 11.5t-35 27.5t-35 47t-27 69t-11 93q0 65 23 134.5t59.5 134.5t81 123
t86.5 101.5t77 69t53 25.5zM67 402q2 5 3.5 9.5l2.5 7.5q1 4 2 6l-3 -6q-2 -3 -3.5 -7.5t-3.5 -9.5q-5 -10 -9.5 -23.5l-9.5 -27.5q-2 -8 -4 -14.5l-4 -13.5q-2 -8 -3 -14l-2 -12q-1 -3 -1 -10q-1 -3 -1 -8v-6v1q0 3 1 5q0 4 1 8.5t2 9.5q2 5 3.5 11.5t3.5 13.5l4 13.5
t4 14.5q2 7 4.5 14l4.5 13l4 13.5t4 11.5zM177 625q2 4 4 7t4 5q2 3 3 4l-12 -15q-3 -4 -6 -8.5t-8 -9.5q-4 -5 -7.5 -11t-8.5 -12q-5 -7 -9.5 -14l-9.5 -15l-10 -16t-10 -17q-12 -18 -20 -35q-10 -19 -19 -38q-5 -10 -9 -19.5t-7 -19.5q-5 -10 -8 -19.5l-6 -19.5t-6 -19
t-5 -18t-3.5 -17t-3.5 -16l-2 -15.5t-1 -13.5q-1 -7 -1 -12.5t-1 -10.5v-14v-5v1q0 2 1 4v5.5t1 8.5q0 10 3 22l2 14t3 15t3.5 16t4.5 17q2 8 5 17t6 19q4 9 7 18.5t7 19.5l8 19.5t9 19.5q5 9 9 18.5t9 18.5l9.5 19t9.5 17l9.5 17t9.5 16l9 15t9 14t8.5 13t7.5 12
q7 10 12 18z" />
    <glyph glyph-name="parenright" unicode=")" horiz-adv-x="491" 
d="M311 800q24 0 47.5 -24.5t42.5 -64t31 -90.5t12 -103q0 -78 -17 -147t-43.5 -126.5t-58.5 -103t-63 -77t-57 -48t-39 -16.5q-8 0 -20 9.5t-24 22.5t-20.5 25t-8.5 17q0 3 19.5 15.5t49 37t63.5 63t63.5 93.5t49 128.5t19.5 168.5q0 56 -9.5 97.5t-20 68.5t-17 40.5
t0.5 13.5zM393 307q2 5 3 10t3 9t2.5 7.5t1.5 5.5q1 3 2 4q-1 -1 -2 -4q-1 -2 -2 -5t-3 -7t-4 -9l-4 -10t-5 -11l-6 -12l-6 -13.5l-7 -14.5l-7.5 -15t-8.5 -15t-9 -16t-9 -16q-8 -16 -20 -32q-11 -17 -22 -31q-2 -4 -5 -7.5t-6 -7.5q-2 -4 -5 -7t-6 -7l-11.5 -13l-11.5 -12
q-3 -4 -11 -12l-10 -10q-3 -2 -5.5 -4.5t-5.5 -4.5q-2 -2 -4.5 -3.5t-4.5 -3.5l-9 -7t-7 -5q-8 -5 -12 -6q-2 -2 -3 -2h-1h1q2 0 4 1q2 2 4.5 3t6.5 3t8.5 4.5l9.5 5.5q2 2 4.5 3.5t5.5 3.5q3 3 11 9q2 2 5 4.5t6 5.5q6 5 11 11l12 12l6 6t6 7q3 3 6 6.5t6 7.5t6 7.5t5 7.5
q11 14 22 31q12 16 20 32q5 8 9 16t9 16l8 16t7 16t6.5 14.5t5.5 13.5l5.5 13z" />
    <glyph glyph-name="asterisk" unicode="*" horiz-adv-x="258" 
d="M636 409q64 0 104 -21t61.5 -46t27 -46t0.5 -21t-12 7.5t-25.5 16t-52.5 16t-94 7.5q-58 0 -113 -12t-104 -30.5t-92 -41.5t-77 -45l-2 -1q6 -24 6 -45q0 -42 -13.5 -78t-37 -62.5t-55.5 -42t-68 -15.5q-16 0 -33.5 9t-32.5 22t-24.5 27t-9.5 24q0 14 11.5 36.5t35 50.5
t58 59.5t79.5 63.5l4 3q-17 23 -28 46.5t-18 42.5q-8 22 -13 41q-11 -15 -25 -37l-27 -43l-23.5 -37t-13.5 -20q-4 -4 -11.5 7.5t-15 27t-12 30.5t-1.5 19l24 40.5l33 54.5l37 59.5t36.5 55t30.5 41t19 19.5q8 0 20.5 -9t25.5 -22q10 -11 14 -18t5 -9l-1 -1v-3
q-1 -2 -5.5 -8.5t-9.5 -12.5q-17 -19 -29 -45.5t-12 -58.5q0 -23 7 -46.5t15 -42.5q10 -22 23 -42l8 5q37 22 83 45.5t98 42.5t109 31t116 12zM131 532q2 5 4.5 8t4.5 6t3 6q-2 -2 -4 -5q-2 -2 -4.5 -5.5t-5.5 -8.5q-3 -4 -6 -9t-7 -10t-7.5 -11t-7.5 -12q-8 -12 -14 -23
q-7 -9 -12 -20q-3 -5 -4.5 -8.5t-3.5 -6.5q-2 -4 -2 -6q1 1 3 5q2 2 4 6t5 9l12 19.5t15 22.5q4 6 7.5 12t7.5 11q3 6 6 10.5t6 9.5zM170 451q2 5 3 8.5t3 7.5q4 8 5 11t2 4q-1 0 -1 -1t-0.5 -1.5t-0.5 -1.5q-3 -3 -6 -11q-2 -3 -3 -7t-3 -9t-3 -9.5t-3 -9.5q-1 -5 -1.5 -10
t-0.5 -10q-1 -5 -0.5 -9.5t0.5 -8.5q2 -10 2 -12t0.5 -2t0.5 -1v-1v1q0 1 -0.5 1t-0.5 2q0 7 -1 12q0 8 0.5 17.5t2.5 19.5q1 9 5 20zM143 203l1 1q1 1 2 1t3 2q6 4 12 10q4 2 7 4.5t6 4.5l5 5q-1 0 -2 -1q-2 -2 -4 -3q-5 -2 -13 -9q-3 -3 -6.5 -5.5t-5.5 -4.5zM31 90
q5 7 11.5 14l13.5 15q6 8 13 14.5t13 13.5l24 24l17 17q4 4 7 6q-3 -2 -7 -5q-4 -2 -9 -6t-10 -9q-6 -5 -12 -11t-13 -12l-13.5 -13.5t-13.5 -14.5l-13.5 -15t-11.5 -15l-5.5 -7.5t-4.5 -7.5t-4 -7.5t-4 -6.5q-5 -8 -6 -13q-1 -4 -3 -10v-7v-2v2q0 1 2 7q0 4 3 9l6 12
q4 7 9 13.5zM65 11q2 -5 9 -5q10 0 26.5 9t33.5 25.5t32 40t23 52.5l6 20l-17 -13q-22 -18 -43.5 -38.5t-37.5 -38.5t-25 -32t-7 -20zM220 43q1 2 1 3t1 2q0 1 1 2q0 -1 -1 -2t-3 -5t-4 -7q-2 -2 -3.5 -4t-3.5 -4q-8 -12 -18 -20q-4 -4 -12 -10q-5 -5 -13 -9l-6.5 -4.5
t-7.5 -4.5t-14 -6q-7 -4 -13 -5q-3 -2 -6.5 -2.5t-5.5 -1.5q-5 0 -11 -2q-2 0 -4 -0.5t-4 -0.5h-8h8q5 0 8 1q2 0 5 0.5t6 0.5q8 2 12 4q8 2 14 4l7 3.5l7 3.5t7.5 4t6.5 4q4 2 7 4.5t6 4.5q3 3 6 5.5t6 4.5q10 10 18 21q4 4 6 9q2 2 3 3.5t2 3.5zM383 303q10 4 13 5t5 2h-1
q-1 0 -2 -0.5t-2 -0.5q-2 -1 -5.5 -2t-8.5 -3q-8 -3 -18.5 -7.5l-21.5 -9.5q-23 -11 -40 -20q-10 -5 -13 -7t-4 -3q2 1 5 3q2 2 5 3t8 3q8 5 18 9.5l21 9.5t22 9.5t19 8.5zM484 352q7 2 13.5 3.5t12.5 3.5q7 2 13.5 3l13.5 2q6 2 12 3l12 2q6 2 11.5 2.5t10.5 1.5t10 1.5
t9 0.5q5 1 8.5 1t6.5 1h9q2 0 4 1h-13h-14.5t-19.5 -1q-5 -1 -11 -1t-12 -1l-12 -2t-13 -2q-6 -2 -12.5 -2.5t-13.5 -2.5t-13.5 -3.5t-13.5 -3.5l-13.5 -4l-13.5 -4l-13.5 -4l-12.5 -4t-12 -4.5l-11 -4.5l-21 -9q-20 -8 -31 -14q-3 -2 -5 -2.5t-4 -1.5t-3 -2q1 0 3 1t4 1.5
t5 2.5q4 1 14 5l18 6q10 4 21.5 7.5t23.5 8.5q7 2 13 3.5t13 3.5l13.5 4zM747 340q3 -1 7 -1q1 0 2 -1l-9 3q-5 1 -10.5 2.5t-13.5 3.5t-17 3t-19 2q-20 3 -41 3q-11 0 -21 -0.5t-20 -1.5q-5 0 -9.5 -0.5t-9.5 -1.5t-8.5 -1t-7.5 -1q-8 -2 -14 -3t-11 -2q-6 -2 -7 -2h-2h2
q4 0 7 1q5 1 11 1.5t14 2.5q4 0 8 0.5t9 0.5q5 1 9 1t9 1q10 1 20 1h21t21 -0.5t20 -1.5t18.5 -2l16.5 -2q8 -2 14 -2.5t11 -2.5z" />
    <glyph glyph-name="plus" unicode="+" horiz-adv-x="616" 
d="M495 411q13 0 15 -8.5t-1 -15.5q-1 -3 -3.5 -14t-7 -22.5t-10.5 -21t-13 -9.5q-8 0 -23.5 0.5t-35.5 0.5h-42.5t-43.5 -1l-34 -87l-25.5 -60t-15.5 -27t-17 7.5t-27.5 17t-25.5 19t-11 14.5q0 8 14.5 35.5t34.5 72.5q-32 -2 -58 -3q-23 -2 -42 -2.5t-23 -0.5t-4.5 16
t1.5 35.5t6 35.5t8 16q5 0 29 -0.5t53 -0.5q33 -1 74 -1l32 85l12 32l10.5 29l7.5 22l4 12q1 5 13 -1.5t26.5 -18t26.5 -23t12 -15.5t-7 -23.5l-15 -41.5l-22 -57q31 1 57 2q23 1 43 1.5t28 0.5zM306 293q3 7 5.5 13.5t6.5 12.5h-6q-4 -9 -9.5 -24l-11 -30.5l-10.5 -29
t-8 -20.5l-12 -30q-3 -6 -4 -11q2 5 5 11q2 5 5.5 12.5t8.5 16.5q2 4 6 15l8.5 23.5t9 23.5t6.5 17zM353 407l9 24l5.5 16.5t4.5 12.5l4 12q0 -1 -1 -3t-1.5 -4t-2.5 -4l-5 -12.5t-7 -16.5q-2 -6 -4.5 -12l-5.5 -13h4zM446 330q4 0 7 0.5t5 0.5h5h-5q-2 0 -5 0.5t-7 0.5
t-8 0.5t-9 0.5h-19h-21q-5 0 -8.5 -0.5t-8.5 -0.5q-4 0 -7 -0.5t-5 -0.5h-4h4q2 0 5 -0.5t7 -0.5h8.5t8.5 -1h21h19q5 1 9 1h8z" />
    <glyph glyph-name="comma" unicode="," horiz-adv-x="399" 
d="M127 87q7 0 18 -10.5t21.5 -23.5t18.5 -25t8 -16q0 -13 -12 -36.5t-31.5 -51t-44 -55.5t-49.5 -51t-47.5 -37.5t-38.5 -14.5q-9 0 -20 7.5t-20 17.5t-14 19.5t-2 12.5q2 2 18 14t38.5 31t48 43.5t47 51.5t36 54.5t14.5 52.5q0 7 2.5 12t8.5 5zM145 -63q1 2 2 3t1 2v2
q0 -1 -1 -2t-1.5 -2t-1.5 -2q-2 -4 -5.5 -7.5t-6.5 -8.5q-5 -5 -9.5 -10.5l-9.5 -11.5q-11 -14 -22 -25q-6 -7 -11.5 -12.5t-10.5 -11.5q-6 -6 -10.5 -11.5t-9.5 -10.5l-20 -20q2 2 6 5q3 2 7 5.5t9 8.5q5 4 10.5 9l10.5 10l12 12t11 13q6 6 11.5 12.5t10.5 11.5q2 4 4.5 7
t4.5 6l4 6t3 5q5 5 7.5 9.5t4.5 7.5z" />
    <glyph glyph-name="equal" unicode="=" horiz-adv-x="601" 
d="M50 260q2 0 32 -0.5t73.5 -1t94.5 -1t95 -2t73.5 -3t31.5 -3.5q3 -3 0 -16t-9 -28t-13 -27t-11 -12q-5 0 -38 1.5t-85.5 3t-120.5 2t-144 -0.5q-5 0 -4.5 13.5t4.5 30t10 30.5t11 14zM265 203q-4 0 -6.5 -0.5t-4.5 -0.5h-5h16q4 -1 8 -1h9q5 -1 10 -1h10q5 -1 9.5 -1h9.5
h9t8 -1h16q-1 0 -4 1q-2 0 -12 2q-4 0 -8 0.5t-9 0.5h-19q-5 1 -9.5 1h-9.5h-18zM404 182h-2q-4 0 -7 1q-6 1 -22 3q-7 1 -15 1.5t-17 0.5q-8 0 -17.5 0.5t-19.5 0.5q-9 1 -18 1h-18h-32q-7 0 -12.5 -0.5t-10.5 -0.5h-7q1 -1 2 -1h5q5 0 10.5 -0.5t12.5 -0.5q12 -1 32 -3
q9 0 18 -0.5t18 -0.5q10 -1 19 -1h17h17.5t15.5 -1q7 0 12.5 0.5t8.5 0.5h10zM494 432q3 -3 0 -16.5t-9 -28.5t-13 -27t-12 -12t-38 1.5t-85.5 3t-120.5 2t-143 -0.5q-6 0 -5 13.5t4.5 30t9.5 30.5t11 14q2 0 31.5 -0.5t73.5 -1t95 -1t95 -1.5t74 -2.5t32 -3.5zM423 360
q5 -1 10 -1h9h7h-2q-3 0 -5 1q-5 0 -9.5 0.5t-9.5 1.5h-14t-15 1q-7 0 -15 0.5t-15 0.5q-8 1 -16 1h-16h-28q-6 0 -10.5 -0.5t-8.5 -0.5h-7h7q4 0 8.5 -0.5t10.5 -0.5q12 -1 27.5 -1t32.5 -1q16 0 31.5 -0.5t27.5 -0.5z" />
    <glyph glyph-name="colon" unicode=":" horiz-adv-x="243" 
d="M62 203q3 0 14 -7t23.5 -16.5t22 -19t9.5 -13.5t-8 -20.5t-18 -35t-20 -33t-14 -14.5t-14.5 6t-21.5 13.5t-19.5 15t-8.5 10.5q0 4 7 22t16.5 38.5t18.5 37t13 16.5zM149 452q3 0 13.5 -8.5t21.5 -19.5t19.5 -21.5t8.5 -14.5t-7 -20t-16 -34t-18 -32t-12 -14
q-4 0 -13.5 5t-20 12t-18.5 14t-8 11t5.5 23.5t13 41.5t16 39.5t15.5 17.5z" />
    <glyph glyph-name="semicolon" unicode=";" horiz-adv-x="378" 
d="M88 144q3 0 14 -7.5t22.5 -18t21 -21t9.5 -16.5q0 -12 -11.5 -34.5t-29 -49.5t-39.5 -55t-43 -51t-38.5 -37.5t-26.5 -14.5q-14 0 -25 8t-18 18.5t-9 21t3 15.5q54 53 85.5 97.5t48.5 76.5t24 50t12 18zM124 42q1 3 3 7q1 1 1 2q0 -1 -1 -2q-2 -2 -4 -6q-3 -3 -7 -9
l-4 -6t-4 -7q-4 -6 -10 -14q-3 -5 -5.5 -8.5t-6.5 -7.5q-2 -5 -5.5 -8.5t-6.5 -8.5t-6.5 -9t-6.5 -9q-3 -4 -6.5 -8t-6.5 -8q-3 -5 -6.5 -9t-6.5 -8l-13 -15l-11 -13q-5 -7 -9.5 -11.5t-7.5 -8.5l-7 -7q1 0 2 1l5 5q4 3 9 7.5t10 10.5l13 13t13 15q7 7 13.5 15.5l13.5 17.5
q7 8 13.5 16.5t11.5 18.5q6 7 11 16q2 4 4.5 8l4.5 7q5 7 8 12.5t5 10.5zM175 369q4 0 15 -9t22.5 -20.5t20.5 -22t9 -14.5q0 -3 -5 -14t-12.5 -26l-16 -32t-16.5 -31.5t-14 -24t-8 -9.5q-3 0 -14 7t-23 17t-21.5 19.5t-9.5 14.5q0 3 4.5 15t11.5 28l15.5 34t16.5 33t15 25
t10 10z" />
    <glyph glyph-name="less" unicode="&#x3c;" horiz-adv-x="413" 
d="M331 421q0 -4 -7.5 -12t-20.5 -19l-29 -24l-32 -25q-39 -30 -88 -64l62 -52l23 -20l19.5 -18l14 -13.5t5.5 -7.5q0 -4 -6.5 -12.5t-14.5 -17t-15.5 -15t-9.5 -6.5q-1 0 -15.5 9.5l-35 24l-44.5 31.5l-44 32l-33.5 25t-13.5 11q0 2 4 8q2 3 5 6l-9 16q-3 6 -5.5 12t-2.5 8
q0 1 14 11l36.5 26l50.5 35.5l56.5 41l55 43t44.5 39.5q2 2 8 -6.5t12 -21t11 -25.5t5 -20zM285 385q5 4 8.5 7.5l5.5 5.5l5 5q-2 -1 -6 -4q-3 -2 -7 -5l-9 -7l-10 -8t-12 -8q-5 -5 -11 -10t-13 -9l-12 -10.5t-13 -10.5q-5 -3 -10.5 -7l-10.5 -8q-9 -8 -15 -12q-4 -3 -6 -5
q2 1 6 4q3 2 7.5 4.5l9.5 5.5t11 7t11 9q6 5 12.5 9.5t12.5 9.5q7 5 12.5 9.5t12.5 9.5q10 10 21 18z" />
    <glyph glyph-name="greater" unicode="&#x3e;" horiz-adv-x="389" 
d="M285 319q0 -2 -3 -6t-6 -9l-9 -11q3 -3 5 -6q2 -2 3 -5t-1 -5t-29.5 -20.5t-65 -46.5l-77.5 -59.5t-67 -58.5q-5 -4 -13 4.5t-15.5 21.5t-13.5 25t-6 15q0 1 8.5 9t22.5 19.5l31.5 25.5l36.5 28l100 75l-41 51l-27.5 36.5t-12.5 19.5q0 4 7.5 14.5l16.5 22t17.5 20
t11.5 8.5q1 0 11 -12t24 -30.5l30 -40l30 -40t23 -31.5t9 -14zM213 249q5 5 7 6l2 2l-9 -6q-4 -2 -10 -6l-13 -9l-6.5 -4.5t-8.5 -4.5q-5 -3 -9 -6t-8 -5q-8 -7 -17.5 -13.5l-17.5 -12.5l-16.5 -15l-16.5 -15t-16 -12.5t-14 -10.5q-12 -13 -20 -20q-2 -2 -3 -3.5t-2 -2.5
q-1 -2 -2 -2q4 2 8 6q4 3 9.5 7.5t11.5 10.5l14 10.5t15 13.5l18.5 14t17.5 14t17 13.5t17 11.5l15.5 13t15.5 11q7 4 12 9t9 6z" />
    <glyph glyph-name="question" unicode="?" horiz-adv-x="550" 
d="M314 812q52 0 89.5 -20.5t61 -50t33.5 -61.5t7 -54q-4 -35 -28.5 -62.5t-59 -50t-73.5 -43t-73.5 -42.5t-58.5 -48t-28 -59q-1 -8 -1 -16.5t-1 -16t-3 -12.5t-6 -5q-5 0 -16.5 8t-22.5 23t-19 35.5t-5 45.5q4 36 29.5 64.5t61.5 53t77.5 46t77 43t60 44t27.5 49.5
q1 10 -6.5 17.5t-21.5 12.5t-33 7t-40 2q-46 0 -80 -7.5t-56.5 -19t-34.5 -24t-13 -21.5q-1 -8 1.5 -16t-8.5 -8q-5 0 -16 9.5t-22 23.5t-19 30t-6 29t17.5 29.5t44.5 31t70 24t94 9.5zM320 795h-2q-1 0 -2.5 0.5t-3.5 0.5q-3 1 -11 1q-5 1 -15 1h-8t-9 -1q-5 0 -9.5 -0.5
t-9.5 -0.5q-6 -1 -11 -1.5t-10 -1.5q-5 -2 -10.5 -2.5t-10.5 -2.5q-11 -3 -21 -7l-10 -4l-10 -4t-9 -4.5t-9 -4.5q-5 -3 -8 -5.5t-6 -4.5q-4 -3 -7 -5.5t-6 -5.5q-3 -5 -8 -8q-2 -2 -2.5 -4t-1.5 -3q-1 -2 -2 -2q0 1 2 2l2.5 2.5l3.5 3.5t4 3.5t4 3.5t5.5 4.5l6.5 4.5
q5 2 8 4.5t7 4.5q5 2 9 4t9 4q9 4 20 7q5 2 10 3.5t10 2.5q5 2 10 3l10 2q6 2 11 2.5t10 1.5t9.5 1.5t9.5 1.5q4 0 8 0.5t8 0.5q8 1 14.5 1.5t11.5 0.5h9zM475 588q5 7 5 10q2 2 2 3v1v-1q0 -1 -2 -3l-2 -4q-1 -1 -1.5 -2t-2.5 -3q-2 -4 -11 -13l-7.5 -7.5t-8.5 -7.5l-10 -8
t-11 -8t-12 -7.5t-14 -7.5q-13 -8 -27 -15.5l-28 -15.5l-28.5 -16t-27.5 -16q-27 -15 -47 -32l-9 -7.5t-8 -7.5q-4 -3 -7 -6.5t-5 -5.5q-3 -4 -8 -9q-1 -1 -1 -2t-1 -1l3 3q1 2 3.5 3.5t4.5 4.5q5 5 12.5 11l17.5 14q20 14 47.5 29l56.5 31l28 16l28 16q13 8 24.5 16.5
t21.5 17.5l16 16q2 4 4.5 7.5zM83 251q4 0 14.5 -10t21.5 -22.5t19 -25t7 -18.5t-11.5 -36.5l-23.5 -65.5t-25 -63t-16 -28t-15.5 9t-23.5 21t-21 24t-8 19q0 4 5.5 20.5l13 38t17 46t18.5 44.5t16.5 33.5t11.5 13.5zM107 103l-6 -18t-5 -16q-2 -4 -2.5 -7t-1.5 -5
q-1 -3 -1 -4q1 1 2 4q2 6 4 11l7 16t7 18q4 10 6.5 18.5t4.5 16.5q2 3 2.5 6t1.5 5q1 3 1 5q-1 -1 -2 -4q-1 -2 -2 -5t-3 -7q-3 -7 -6 -15.5t-7 -18.5z" />
    <glyph glyph-name="bracketleft" unicode="[" horiz-adv-x="559" 
d="M534 825q4 -4 5.5 -14.5t0 -22.5t-5 -22.5t-8.5 -13.5q-3 -2 -12.5 -3t-23.5 -1.5t-30.5 -0.5h-33.5q-40 0 -89 2q-8 -26 -22.5 -67.5l-32.5 -92.5l-38.5 -107.5l-40.5 -111.5l-102 -278q45 -2 82 -5q32 -3 60 -7t34 -9q5 -5 6 -14t-1 -19t-6 -18t-7 -12q-2 -2 -20 -3.5
t-44 -2.5t-56 -1t-56.5 0.5t-45.5 0.5h-23q-6 0 -8.5 4t-3.5 10t-1 13v13q-2 12 -8.5 17t-6.5 12q0 3 10 27.5l27.5 66.5l40 99l47.5 125q17 45 34.5 97l34 103.5l31.5 99l26.5 84t19.5 58.5t11 22q7 0 11 -2t7.5 -5t8 -5t12.5 -2q3 0 19 -0.5t39.5 -1t50 -1.5t49.5 -2.5
t39.5 -3.5t19.5 -5zM209 611q2 5 2.5 8.5t1.5 5.5q1 3 2 5l-7 -19q-3 -9 -8 -22t-10 -28l-10.5 -34l-11.5 -38q-8 -20 -14.5 -40.5t-14.5 -41.5l-14 -40.5l-14 -40.5l-13.5 -37.5t-13.5 -33.5l-9.5 -27.5t-9.5 -21.5q-2 -5 -3 -8.5t-2 -5.5q-1 -3 -2 -4q0 1 2 4q1 2 3 5t4 8
t4.5 10l5.5 11q6 12 12 27q6 16 13.5 33t15.5 37l14 40l15 41l13.5 42t13.5 41l11 38t10 34t8.5 29t5.5 23z" />
    <glyph glyph-name="bracketright" unicode="]" horiz-adv-x="581" 
d="M513 851q5 0 15.5 -9.5t21 -21t19 -22.5t8.5 -14q0 -2 -15 -37.5l-38 -90l-51.5 -121l-56.5 -132l-51 -122l-36 -90.5q-19 -51 -31 -88l-19.5 -60.5t-13 -34.5t-11.5 -11h-24h-45.5h-56t-55 1t-43.5 2t-20 3q-3 3 -2.5 14t3.5 23t7.5 23t7.5 15q3 3 28.5 4.5t54.5 1.5
q34 0 77 -1l116 282l47 113.5l45.5 109l39 93.5l28.5 68q-47 -1 -84 -1h-31t-27.5 0.5t-20.5 1.5t-9 2q-3 2 -4 13t0 24t3.5 25t6.5 17q1 1 16 2t36 1t45.5 -0.5t45.5 -1t35.5 -1t16.5 -0.5q4 0 8.5 10t13.5 10zM386 387l9 21.5l7 16.5q4 8 6 15l-2 -4q-2 -2 -3.5 -4.5
t-3.5 -5.5q-2 -7 -7 -16.5l-11 -20.5l-12.5 -25.5t-12.5 -28.5t-13 -30.5l-14 -32.5q-7 -16 -12.5 -32l-10.5 -31q-4 -8 -6.5 -15.5t-5.5 -14.5q-2 -8 -4 -14.5t-3 -12.5l-3.5 -12.5t-3.5 -10.5q-1 -9 -5 -18q-1 -4 -1 -7t-1 -5q-1 -3 -1 -4q0 1 1 4q1 2 1.5 4.5t2.5 6.5
q3 7 6 18q2 5 3.5 10.5t4.5 11.5l4 12.5t5 14.5q3 7 5.5 14t6.5 15q5 15 11 31t14 32q13 34 26 63q7 15 12 29t11 26zM399 447q4 8 5 11t2 4l-2 -4q-2 -2 -3.5 -4.5t-3.5 -5.5l-7.5 -14.5t-7.5 -17.5q-5 -8 -9 -16.5t-6 -15.5q-2 -4 -3 -7t-2 -5q-1 -3 -1 -4q1 1 2 4
q1 2 6 11l7.5 14.5t8.5 17.5l8 16.5t6 15.5z" />
    <glyph glyph-name="backslash" unicode="\" horiz-adv-x="333" 
d="M71 868q0 -2 10.5 -41l27.5 -102.5l38.5 -144l44.5 -164.5l44.5 -164.5l38.5 -144.5l27.5 -104t10.5 -42q0 -5 -14 -11.5t-30.5 -11t-30.5 -5.5t-14 4q0 3 -10.5 43l-27.5 104.5l-38.5 146.5l-44 167l-44 167l-38.5 147l-27.5 106.5t-10.5 45.5q0 3 13.5 5.5t30 3
t30.5 -0.5t14 -4zM203 94q2 -10 4.5 -17.5t4.5 -12.5q2 -6 3 -12l-3 12q-2 5 -3.5 13l-3.5 18q-3 10 -5.5 21t-6.5 23l-6 24.5t-7 25.5t-7 25.5t-7 24.5q-3 12 -6.5 22.5t-5.5 20.5l-5.5 18t-4.5 13q-2 6 -3 11q1 -6 3 -12q2 -5 3.5 -13t4.5 -17q2 -10 5 -21l6 -23
t6.5 -24.5t6.5 -25.5q4 -13 7.5 -25.5t6.5 -24.5q4 -12 7 -23zM279 22q2 -5 2.5 -8.5t1.5 -6.5q1 -4 2 -6q0 2 -1 6q-1 3 -2 6.5t-2 8.5q-2 11 -5 25t-8 31t-9.5 36.5t-10.5 41.5q-5 21 -11 43.5l-12 45.5l-12 45l-12 44q-5 21 -11 40.5l-11 36.5l-9 30.5t-6 23.5q-2 5 -3 9
t-2 7t-2 5q0 -2 1 -6q1 -3 1.5 -6.5t2.5 -8.5q2 -10 5.5 -24l7.5 -31q5 -17 9.5 -37t10.5 -41q5 -22 11 -44l12 -45l12 -45.5l12 -43.5l11.5 -41.5l10.5 -36.5l9 -30.5z" />
    <glyph glyph-name="underscore" unicode="_" horiz-adv-x="785" 
d="M714 33q3 -3 0 -16.5t-9 -28.5t-13.5 -27t-13.5 -12q-4 0 -37 0.5t-86 2t-120 2.5t-138.5 1.5l-143 1t-131.5 -0.5q-6 0 -6 14t3.5 31t10 31t12.5 14h30.5t76.5 -0.5t106.5 -1t122 -1.5l122 -2t106.5 -2t76.5 -2.5t31.5 -3.5zM633 -37q7 0 12.5 -0.5t10.5 -0.5h9h-2
q-2 0 -3.5 0.5t-3.5 0.5q-5 1 -10.5 1.5t-12.5 0.5q-8 1 -16 1.5t-17 0.5q-9 1 -18.5 1t-18.5 1h-38h-33q-8 0 -13 -0.5t-10 -0.5h-9h9q5 0 10 -0.5t13 -0.5q14 -1 32.5 -1.5t37.5 -0.5q20 -1 38.5 -1.5t32.5 -0.5z" />
    <glyph glyph-name="braceleft" unicode="{" horiz-adv-x="359" 
d="M353 928q18 0 31.5 -10.5t22 -24.5t12.5 -27t4 -17t-4 -4t-10 1.5t-13 3t-13 1.5q-15 0 -43 -20t-56 -57.5t-50.5 -91t-28.5 -120.5q-4 -44 -20.5 -80.5t-36.5 -62.5q-23 -31 -50 -56q10 -13 16 -31.5t5 -41.5q-2 -24 -17 -56l-32.5 -67t-32.5 -71t-18 -68t4.5 -44.5
t19 -14.5t23 1.5t16.5 3.5q6 0 15.5 -5.5t19 -13.5t16 -16.5t6.5 -14.5q-1 -10 -19.5 -20.5t-47.5 -10.5q-14 0 -37 12.5t-43.5 36t-34.5 57.5t-10 77q2 27 16.5 63t31 73l31 70t16.5 55q2 21 -3.5 31.5t-12 16.5t-12.5 10t-5 13q0 4 18.5 19t40.5 39t41.5 55t22.5 67
q8 99 38 164.5t66 104.5t69 55t48 16zM-8 -35q1 -2 3 -4l1 -1l-3 6q-2 3 -6 13q-2 10 -7 21q-2 5 -5 10.5t-5 12.5l-3 12l-3 12q-1 3 -3 11q1 6 0 12q0 1 0.5 3t0.5 4v7v6q-1 0 -1 -1t-0.5 -2t-0.5 -3t-0.5 -3.5t-0.5 -3.5q-2 -4 -2 -8v-12q1 -3 1 -6t1 -6q1 -4 1 -12
q1 -4 1.5 -6.5t1.5 -6.5q3 -7 6 -12t5 -11q6 -12 12 -21q2 -8 6 -11zM138 560q0 2 0.5 3t0.5 2v2q-1 -1 -1 -2v-5q-2 -4 -3 -7q-1 -2 -2 -5t-1 -5q-2 -3 -4 -11q-3 -4 -7 -12q-6 -8 -7 -13q-2 -3 -4 -6.5t-5 -6.5l-4.5 -6.5t-4.5 -5.5q-2 -4 -4 -6.5t-3 -5.5l-9 -11l-8 -10
q-5 -5 -8.5 -8t-5.5 -5q-2 -4 -3 -5l-1 -1q1 1 5 4q2 2 6 5l9 7q5 5 9.5 10t9.5 10q2 4 8 12q3 3 5.5 6t5.5 7q3 7 8 13q2 4 3 7t3 7t2.5 6l1.5 6q2 4 3 7l2 6q1 2 1.5 4.5t1.5 4.5v8z" />
    <glyph glyph-name="braceright" unicode="}" horiz-adv-x="451" 
d="M467 798q-1 -28 -10.5 -59t-23 -63.5t-29 -64.5l-29 -62.5t-22.5 -57.5t-10 -48q-2 -38 2 -58.5t9 -31.5t10 -15t5 -7q0 -8 -9.5 -12t-23 -13.5t-30.5 -29t-32 -58.5t-32.5 -93t-38 -104t-44 -85t-50.5 -35t-48.5 8t-36 18t-22 19.5t-7.5 13.5t5.5 5t14 0t19 -2t19.5 -1
q16 0 32 24t32 60.5t30.5 80l27.5 83.5l23.5 70t17.5 40q11 14 22.5 26.5t20.5 20.5q11 10 21 17q-7 5 -11 19q-4 11 -6.5 33t-0.5 59q1 29 20 73t41.5 91t41 91.5t20.5 73.5q1 29 -3.5 44.5t-10.5 23.5t-11 11.5t-5 8.5t1.5 8.5t7.5 3.5t23 -11.5t35 -29.5t32 -40.5
t13 -44.5zM167 17l-1.5 -4.5t-0.5 -3.5q-1 -2 -1 -3q0 1 1 3l4 8q2 5 4.5 10t4.5 12l4 12t4 11q0 2 0.5 3t0.5 3t1 3q0 -1 -1 -2q-2 -4 -3 -7q-4 -8 -9 -23q-7 -13 -8 -22zM238 164q0 6 1 8t2 3q-1 -1 -2 -3q-2 -4 -2 -8q-2 -5 -5.5 -12.5t-6.5 -15.5q-4 -9 -7 -19t-8 -21
t-8.5 -23t-7.5 -24q-5 -12 -9 -23.5t-9 -22.5q-5 -10 -9 -20.5t-9 -18.5q-2 -5 -4 -8t-5 -6q-3 -7 -7 -11q-3 -5 -6 -6q-1 -1 -2 -1t-1 -1h1l2 1q2 2 4 3t4 3q3 4 8 10t10 14l10 18.5t10 20.5t9 22.5t9 23.5l8 23.5l8 23.5q4 11 7 21l6 20q3 8 5.5 15.5t3.5 13.5zM334 473
q1 5 2.5 10t3.5 10q2 8 5.5 17.5t7.5 18.5l6 16t6 15q2 8 4 13l4 10l2 6q0 1 1 2q0 -1 -1 -2q-3 -3 -4 -6q-1 -4 -4 -8.5t-6 -12.5q-2 -3 -3.5 -6.5t-4.5 -8.5q-1 -4 -2.5 -7.5l-3.5 -8.5t-4 -9.5t-4 -9.5l-3.5 -9t-2.5 -9q-2 -5 -3 -10t-3 -10q-1 -5 -1.5 -9t-2.5 -9v-9.5
t-1 -9.5v-15q-1 -5 -0.5 -8t1.5 -6q0 -5 2 -11l2 -8q-1 0 -1 2v6q0 7 -1 11q0 3 0.5 6.5t0.5 7.5v7t1 8t1.5 9t1.5 9t2 9t2 9z" />
    <glyph glyph-name="bar" unicode="|" horiz-adv-x="368" 
d="M246 835q0 -4 -2 -41.5t-4.5 -99.5t-5.5 -144.5t-5 -176.5t-3.5 -194t-0.5 -197q0 -18 -13.5 -21t-29 1.5t-29 13.5t-13.5 15v43t1 103.5t1.5 143.5t2 163t3.5 162.5t5 141t6.5 99.5t7.5 38t17 -5.5t27 -13.5t24.5 -16.5t10.5 -14.5zM194 60v25v22q-1 5 -1 8.5v6.5v6
q-1 -2 -1 -6q0 -3 -0.5 -6.5t-0.5 -8.5v-22v-25v-25v-22q0 -5 0.5 -8.5t0.5 -6.5q0 -4 1 -6v6v6.5t1 8.5v22v25zM215 236v53q0 12 -0.5 21.5t-0.5 16.5q-1 3 -1 5.5v4.5v4v-4q0 -2 -0.5 -4.5t-0.5 -5.5q0 -7 -0.5 -16.5t-1.5 -21.5q0 -11 -0.5 -24.5t-1.5 -28.5
q0 -14 -0.5 -29.5t-0.5 -30.5q0 -16 -0.5 -31.5t-0.5 -29.5q0 -15 0.5 -28.5t0.5 -24.5v-21.5t1 -16.5v-14v4q0 5 1 10q1 7 1 16.5t1 21.5q1 11 1.5 24.5t0.5 28.5q1 14 1 29.5t1 30.5v61z" />
    <glyph glyph-name="ntilde" unicode="&#xf1;" horiz-adv-x="443" 
d="M425 752q10 0 6 -17.5t-18 -38.5t-36.5 -38.5t-47.5 -17.5q-26 0 -46 9t-38 20.5t-34.5 20.5t-35.5 9q-20 0 -29 -8.5t-18 -8.5q-8 0 -6 15t12 33t26.5 33t36.5 15t42.5 -10t44 -21.5l40.5 -21.5t31 -10q16 0 27.5 6t19 12.5t13 12.5t10.5 6zM390 716q0 -1 -1 -1h-3
q-3 -2 -11 -4q-2 0 -3.5 -0.5t-3.5 -0.5q-2 -1 -8 -1q-5 0 -9 1q-2 0 -4 0.5t-4 0.5q-6 2 -8 3q-7 2 -8 3q-9 3 -15 6q-4 3 -10 5q-1 1 -1.5 1t-1.5 1q-1 0 -1 1q0 -1 1 -1q1 -1 1.5 -1t1.5 -1l3.5 -3.5t4.5 -3.5q2 -2 3.5 -2t3.5 -2t4 -2t4 -2t4 -2t4 -1q3 -3 9 -3
q2 -1 4.5 -1t4.5 -1h9q3 0 9 2q5 0 7 1q4 2 10 6zM441 340q4 7 15 1t22.5 -17t18.5 -24t4 -20q-19 -38 -50 -86.5t-68.5 -91.5t-79 -72.5t-80.5 -29.5q-14 0 -30.5 10.5t-30.5 25t-24 30.5t-10 28q0 24 13.5 59t34 76l43.5 85.5t41 86.5q-79 -79 -136.5 -151t-96 -127.5
t-59 -88.5t-25.5 -33q-6 0 -16 6.5t-19.5 17t-16.5 23.5t-7 26q0 8 15.5 45.5t39 89l50.5 110.5l50.5 111t39 89.5t15.5 47.5q0 2 1 4q2 5 8 5q8 0 18.5 -5t20.5 -13t16.5 -19.5t6.5 -23.5q0 -6 -6 -25t-16.5 -45.5l-23.5 -58l-27 -64.5l64.5 75.5l62.5 71.5l51 56t30 28
q1 0 1.5 0.5t1.5 0.5t2 -1q3 0 4 -1q6 -3 15.5 -10.5t18.5 -19t15.5 -27.5t6.5 -36q0 -15 -11 -43.5t-27 -63l-35.5 -73t-35.5 -73.5t-27 -63.5t-11 -43.5q24 0 52.5 20t58 54t58.5 77t54 90zM48 282q5 10 9 20t9 20q5 11 9 21t9 20l7.5 19l6.5 17t5.5 14l4.5 11q1 2 1 3.5
t1 3.5q0 2 1 3l-48 -110l-17.5 -40.5l-15.5 -35.5q-4 -8 -6.5 -14l-4.5 -11q-3 -5 -4 -9q2 4 5 9l12 24q4 8 7.5 16.5t8.5 18.5zM82 333q0 1 1 2t1 2.5t2 3.5q5 8 11 22q4 7 7.5 15t7.5 16l8 18t8 19q4 9 7 18.5l6 18.5t5.5 17.5l4.5 15.5q3 15 3 25v4q0 2 -1 3t-1 2l1 -2
v-3v-4q-1 -2 -1 -4.5t-1 -5.5q-2 -3 -2.5 -6.5t-1.5 -6.5q-2 -8 -5.5 -16t-6.5 -17q-4 -8 -7.5 -17.5t-7.5 -18.5l-7.5 -19t-6.5 -18q-4 -9 -7 -17t-6 -15q-2 -8 -4 -13.5t-4 -9.5zM265 372q-11 -24 -27 -54l-7.5 -15t-6.5 -15q-4 -7 -6.5 -13.5t-5.5 -12.5q-2 -6 -4 -10.5
t-3 -8.5q-2 -4 -2 -7q1 3 3 7q2 3 3.5 7.5t4.5 10.5q6 11 12.5 25.5t14.5 29.5l7.5 15t6.5 14l7 14.5t5 11.5l4 10t4 9t3 7q-2 -3 -4 -7q-2 -3 -4 -8t-5 -10zM162 169q5 9 8.5 18.5t8.5 18.5q5 10 9 19t9 18q8 20 15 32l5 13.5t4 9.5q1 3 3 7q1 1 1 2q0 -1 -1 -2
q-2 -2 -4 -6t-5 -9.5l-7 -12.5t-8 -15t-9 -16q-5 -9 -9.5 -18l-9.5 -19l-8 -18.5l-8 -18.5l-3.5 -9t-3.5 -8q-2 -5 -3 -9l-2 -8q-3 -8 -3 -14q-1 -3 -1.5 -5.5t-0.5 -5.5v-7v-2l1 2q0 4 1 7q2 11 7 24q3 8 6.5 16t7.5 16zM268 19q3 2 5.5 2.5t4.5 2.5q2 1 4 3l-4 -2
q-6 -2 -11 -4q-13 -6 -32 -8h-9q-2 0 -4.5 0.5t-4.5 0.5q-8 1 -15 5l-6 3q-2 0 -4 2q-2 0 -2 0.5t-1 0.5t-1 1l3 -3q2 -1 4 -3l6 -3q3 -2 6.5 -3.5t8.5 -2.5q2 -1 4.5 -1t4.5 -1h10q5 0 9 1t9 3q5 1 8.5 2.5t6.5 3.5z" />
    <glyph glyph-name="tilde" unicode="&#x2dc;" horiz-adv-x="540" 
d="M425 752q10 0 6 -17.5t-18 -38.5t-36.5 -38.5t-47.5 -17.5q-26 0 -46 9t-38 20.5t-34.5 20.5t-35.5 9q-20 0 -29 -8.5t-18 -8.5q-8 0 -6 15t12 33t26.5 33t36.5 15t42.5 -10t44 -21.5l40.5 -21.5t31 -10q16 0 27.5 6t19 12.5t13 12.5t10.5 6zM390 716q0 -1 -1 -1h-3
q-3 -2 -11 -4q-2 0 -3.5 -0.5t-3.5 -0.5q-2 -1 -8 -1q-5 0 -9 1q-2 0 -4 0.5t-4 0.5q-6 2 -8 3q-7 2 -8 3q-9 3 -15 6q-4 3 -10 5q-1 1 -1.5 1t-1.5 1q-1 0 -1 1q0 -1 1 -1q1 -1 1.5 -1t1.5 -1l3.5 -3.5t4.5 -3.5q2 -2 3.5 -2t3.5 -2t4 -2t4 -2t4 -2t4 -1q3 -3 9 -3
q2 -1 4.5 -1t4.5 -1h9q3 0 9 2q5 0 7 1q4 2 10 6z" />
    <glyph glyph-name="atilde" unicode="&#xe3;" horiz-adv-x="503" 
d="M503 339q3 3 10.5 -3t15 -16.5t13.5 -22.5t6 -20q0 -10 -11 -34t-29.5 -54.5t-43 -64t-51 -61t-53 -45.5t-50.5 -18q-13 0 -29 11t-30.5 26t-24 31t-9.5 27v8q-21 -21 -42.5 -39.5t-42 -32.5t-39 -22.5t-33.5 -8.5q-24 0 -48.5 16.5t-45 40t-33.5 49.5t-13 46
q0 40 19.5 86t51.5 91t72 86.5t81 73t79 50.5t65 19q32 0 53 -22t31 -48t10 -48t-9 -22q-10 0 -14.5 8.5t-9 19t-12.5 19t-25 8.5q-24 0 -57 -18t-69.5 -48t-72 -68.5t-63.5 -79.5t-45.5 -81.5t-17.5 -73.5q0 -27 23 -27q21 0 47 15.5t52.5 40t53.5 54.5l50.5 58.5t41.5 53
l29 38.5q8 13 12 13t15 -10.5t22.5 -24t20.5 -26.5t9 -18q0 -3 -6.5 -17l-15 -33.5l-18.5 -41t-17 -40t-10 -30.5t3 -12q19 0 40.5 16.5t42.5 41.5t40.5 55l36 57l28 47t16.5 25zM226 507q4 2 7 4t5 4q3 2 5 3q0 -1 -1 -1t-2 -0.5t-2 -0.5q-2 -2 -5.5 -3.5l-8.5 -3.5
q-4 -2 -8.5 -4.5t-9.5 -6.5l-10.5 -6t-10.5 -7l-9.5 -7.5l-9.5 -7.5l-9 -7.5t-7 -6.5l-6.5 -6.5l-4.5 -4.5l-4 -4q1 2 4 4l12 9l17 13l20 15q5 4 10 7t10 7q5 3 9 6t9 5zM-25 271q5 10 11.5 19.5l13.5 19.5l15.5 20l15.5 20t16.5 19.5l17.5 19.5q17 19 36 36.5l38 33.5
l18 15.5t18 13.5q9 7 18 13l17 11q18 12 31 18q3 2 6.5 3t6.5 3q4 2 12 4q4 1 10 3q3 1 7 1q2 0 2.5 0.5t1.5 0.5h2h-6q-2 0 -3.5 -0.5t-3.5 -0.5q-2 -1 -5 -1t-5 -1l-6 -2t-7 -2q-3 -2 -6.5 -3t-6.5 -3q-8 -3 -16 -7t-16 -9q-17 -10 -35.5 -23t-38.5 -29l-38 -33t-37 -37
q-17 -19 -34 -40l-15.5 -20l-14.5 -20q-14 -20 -25 -40q-6 -10 -10 -20q-2 -5 -4.5 -9.5t-4.5 -9.5q-4 -9 -6.5 -17.5t-4.5 -16.5q-2 -4 -2.5 -7.5t-1.5 -6.5q-1 -4 -1 -7t-1 -6q-1 -5 -1 -9.5v-7.5v-7v2q0 3 1 5v7q1 2 1 4.5t1 5.5q0 6 3 12q2 10 4 15q4 15 12 33l9 18
q2 5 5 9.5t6 9.5zM99 108q-2 -1 -4 -3l-1 -1l1 1q2 2 4 3q3 2 6 4.5t8 5.5q4 3 8.5 7t9.5 9q5 4 10 9l10 10t9.5 10t8.5 10q5 5 8.5 9.5t7.5 8.5q3 4 5.5 8t4.5 6q2 3 4 5l-5 -5l-5 -5t-6 -7q-4 -4 -7.5 -8.5t-8.5 -9.5t-9.5 -10t-9.5 -10l-19 -19l-9 -9t-8 -7q-5 -4 -8 -7z
M179 86l9 7.5t7 6.5l6 6q-2 -2 -6 -5q-3 -2 -7.5 -5.5l-9.5 -7.5q-5 -5 -11 -9.5l-13 -9.5l-13.5 -10t-14.5 -10q-4 -2 -7.5 -5t-7.5 -5q-3 -2 -6.5 -4t-7.5 -4t-7.5 -3.5t-7.5 -3.5q-3 -2 -6.5 -2.5t-6.5 -1.5q-2 -1 -6 -1q-2 -1 -6 -1h-9q-2 0 -3.5 0.5t-2.5 0.5h-2h2
q2 -1 3 -1t3 -1q2 0 4.5 -0.5t4.5 0.5h6q4 0 7 1t6.5 1.5t6.5 2.5q4 1 7.5 2.5t7.5 3.5t7.5 4t7.5 4t7.5 5t7.5 5q8 5 14.5 10.5t13.5 10.5t12.5 9.5t10.5 9.5zM429 752q10 0 6 -17.5t-18 -38.5t-36.5 -38.5t-47.5 -17.5q-26 0 -46 9t-38 20.5t-34.5 20.5t-35.5 9
q-20 0 -29 -8.5t-18 -8.5q-8 0 -6 15t12 33t26.5 33t36.5 15t42.5 -10t44 -21.5l40.5 -21.5t31 -10q16 0 27.5 6t19 12.5t13 12.5t10.5 6zM394 716q0 -1 -1 -1h-3q-3 -2 -11 -4q-2 0 -3.5 -0.5t-3.5 -0.5q-2 -1 -8 -1q-5 0 -9 1q-2 0 -4 0.5t-4 0.5q-6 2 -8 3q-7 2 -8 3
q-9 3 -15 6q-4 3 -10 5q-1 1 -1.5 1t-1.5 1q-1 0 -1 1q0 -1 1 -1q1 -1 1.5 -1t1.5 -1l3.5 -3.5t4.5 -3.5q2 -2 3.5 -2t3.5 -2t4 -2t4 -2t4 -2t4 -1q3 -3 9 -3q2 -1 4.5 -1t4.5 -1h9q3 0 9 2q5 0 7 1q4 2 10 6z" />
    <glyph glyph-name="asciitilde" unicode="~" horiz-adv-x="550" 
d="M425 413q10 0 6 -17.5t-18 -38.5t-36.5 -38.5t-47.5 -17.5q-26 0 -46 9t-38 20.5t-34.5 20.5t-35.5 9q-20 0 -29 -8.5t-18 -8.5q-8 0 -6 15t12 33t26.5 33t36.5 15t42.5 -10t44 -21.5l40.5 -21.5t31 -10q16 0 27.5 6t19 12.5t13 12.5t10.5 6zM390 377q0 -1 -1 -1h-3
q-3 -2 -11 -4q-2 0 -3.5 -0.5t-3.5 -0.5q-2 -1 -8 -1q-5 0 -9 1q-2 0 -4 0.5t-4 0.5q-6 2 -8 3q-3 1 -4.5 1t-3.5 2q-9 3 -15 6q-4 3 -10 5q-1 1 -1.5 1t-1.5 1q-1 0 -1 1q0 -1 1 -1q1 -1 1.5 -1t1.5 -1l3.5 -3.5t4.5 -3.5q2 -2 3.5 -2t3.5 -2t4 -2t4 -2t4 -2t4 -1
q3 -3 9 -3q2 -1 4.5 -1t4.5 -1h9q3 0 9 2q5 0 7 1q4 2 10 6z" />
    <glyph glyph-name="Euro" unicode="&#x20ac;" horiz-adv-x="715" 
d="M687 847q44 0 67.5 -14t34.5 -32.5t12.5 -36t1.5 -24.5t-7 -5.5t-19.5 5.5t-30 8.5t-38.5 4.5q-27 0 -69.5 -15t-91.5 -43.5t-100 -69.5t-96 -93q35 -1 66.5 -1.5t55.5 -1.5t38.5 -2t15.5 -2q2 -2 -2.5 -17.5t-12 -33.5t-16 -32.5t-12.5 -14.5h-19.5h-46t-65 0.5
t-75.5 1.5q-10 -17 -18 -35.5l-16 -37.5l79.5 -2t68.5 -2t48.5 -2t19.5 -2q2 -2 -2.5 -17.5t-12 -33.5t-16 -32.5t-12.5 -14.5h-19t-44 0.5t-62 1t-73 0.5q-3 -24 -3 -49q0 -24 4.5 -46.5t15 -39.5t28 -27t44.5 -10q41 0 80.5 19.5t76 49.5t67.5 64t55 64l39 49.5t19 19.5
q5 0 9.5 -9t8 -22t5.5 -26.5t2 -22.5q0 -14 -13 -40t-36 -56.5t-55 -61.5t-70 -56.5t-80 -41.5t-86 -16q-22 0 -50.5 13t-55.5 43.5t-48 80t-28 122.5q-38 1 -73.5 1.5t-62.5 1.5t-44 2t-18 3q-3 3 0 19t9 34t13.5 32.5t13.5 14.5h14.5t35.5 -0.5t51 -1t62 -1.5q8 38 22 73
q-31 0 -58.5 0.5t-48.5 1.5t-33.5 2t-13.5 2q-3 3 0 19t9 34.5t13.5 33t13.5 14.5h16t39 -0.5t55 -1t66 -1.5q43 62 101 118.5t120.5 99.5t124.5 68.5t112 25.5zM133 268q3 0 6.5 -0.5t7.5 -0.5v4h-14h-50q6 0 14 -1q7 -1 16 -1.5t20 -0.5zM511 92l-3 -3l-2 -2l-2 -2
q1 0 2 1l2 2l3 3q4 4 9.5 8t11.5 10q6 4 12 12q4 3 7.5 6.5t7.5 6.5q3 4 6.5 8t7.5 8t7.5 8t6.5 8q4 5 7.5 8.5t6.5 8.5t6.5 8.5t6.5 8.5q12 16 20 31q5 7 8 12.5t5 10.5q3 5 5 9q0 -1 -1 -2q-2 -2 -4 -6l-6 -10.5t-8 -12.5l-10.5 -14.5l-11.5 -15.5l-6 -8l-7 -9
q-3 -4 -6.5 -8t-7.5 -8q-3 -5 -6.5 -8.5t-7.5 -8.5q-4 -4 -7 -7.5t-7 -7.5t-7 -7.5t-7 -6.5q-3 -4 -6 -7l-6 -6q-7 -7 -11 -10zM453 38l-6 -4q-1 -1 -2 -1l2 1q1 1 7 3t10 4q2 2 5.5 3.5t6.5 3.5q4 2 7 4t7 4q4 3 8 5.5t8 5.5q14 10 31 25l15 13.5t14 14.5q14 14 23 26
q5 6 8.5 11l6.5 9q2 4 4 6q1 1 1 2l-2 -2q-1 -1 -1.5 -2t-2.5 -3l-7.5 -7.5t-9.5 -10.5l-11.5 -11.5t-13.5 -12.5q-3 -4 -6.5 -7t-7.5 -7q-4 -3 -7.5 -6.5t-7.5 -6.5l-15 -13.5t-15 -12.5q-14 -11 -28 -20q-7 -5 -11.5 -8.5t-9.5 -5.5zM301 268q-14 1 -28.5 1t-29.5 1h-21
q-1 -2 -1 -5q5 -1 10.5 -1h11.5q15 0 29.5 -0.5t28.5 -0.5h52h49q-6 0 -13 1t-16 1t-20 1t-24.5 1.5t-27.5 0.5zM645 754q6 1 9 3q2 1 4 1q-2 -1 -4 -1q-2 -1 -4.5 -1t-5.5 -1t-6.5 -1.5t-8.5 -2.5q-4 -2 -9 -3t-10 -3t-10.5 -4.5t-11.5 -4.5t-12 -5l-12 -6
q-13 -6 -25.5 -13l-25.5 -15l-12.5 -8l-12.5 -8q-6 -5 -11.5 -9l-11.5 -8q-11 -8 -20.5 -16.5t-17.5 -16.5l-14.5 -13l-11.5 -11q-2 -3 -4 -4.5t-3 -3.5l-2 -2l2 2q2 1 3.5 3t4.5 4l12 9.5t15 12.5l19 14.5l21 15.5q6 5 12 8.5t12 8.5l24 15q6 5 12.5 8.5l12.5 6.5l25 14
l12 6t11 6q6 3 11.5 5t10.5 5q5 2 9.5 3.5t8.5 3.5q5 2 8.5 3t6.5 3z" />
    <glyph glyph-name="quotesinglbase" unicode="&#x201a;" horiz-adv-x="286" 
d="M153 253q2 0 11.5 -6t20 -14.5t18.5 -17t8 -13.5q0 -3 -6 -18.5t-15 -36l-19.5 -44t-20.5 -43t-17.5 -32.5t-9.5 -13q-4 0 -15 4.5t-22.5 10.5t-20.5 13t-9 12q0 2 6.5 17.5l16.5 37.5t22.5 47l23 46.5t18.5 35.5t10 14zM107 141q1 3 2 5.5t2 4.5q1 3 1 5l-2 -4
q-1 -2 -2 -4.5t-2 -5.5q-2 -3 -3.5 -6.5t-3.5 -7.5q-2 -3 -4 -7t-3 -9q-2 -3 -3.5 -7t-3.5 -8q-2 -3 -3 -6.5t-3 -6.5t-2.5 -5.5t-1.5 -4.5q-1 -3 -1 -4q1 1 2 3l5 10q1 3 2.5 6.5t3.5 6.5q6 9 7 16l4 8l4 8q3 7 5 13z" />
    <glyph glyph-name="quotedblbase" unicode="&#x201e;" horiz-adv-x="414" 
d="M292 281q2 0 11.5 -6t19.5 -14.5t18 -17.5t8 -14q0 -4 -5.5 -18t-14 -33l-18 -40t-18.5 -39t-16 -29.5t-9 -11.5q-3 0 -13 3.5t-21.5 9t-20.5 11t-9 10.5q0 3 6 18.5t15 36.5l20 44.5l21 43.5l17 33t9 13zM308 147q2 3 2.5 5.5t1.5 4.5l2 4l-2 -4l-2 -4t-3 -5t-4 -6.5
t-4 -8.5l-4 -8t-4 -9q-5 -8 -8 -16q-2 -4 -3.5 -7.5t-3.5 -7.5l-5 -10q-1 -3 -1 -4l2 4q1 3 6 9q2 4 3.5 7.5t3.5 7.5q2 5 4.5 8.5t4.5 8.5q2 4 3.5 8t3.5 8q2 5 4 8.5t3 6.5zM153 281q2 0 11.5 -6t20 -14.5t18.5 -17t8 -13.5q0 -3 -6 -18.5t-15 -36l-19.5 -44t-20.5 -43
t-17.5 -32.5t-9.5 -13q-4 0 -15 4.5t-22.5 10.5t-20.5 13t-9 12q0 2 6.5 17.5l16.5 37.5t22.5 47l23 46.5t18.5 35.5t10 14zM107 169q1 3 2 5.5t2 4.5q1 3 1 5l-2 -4q-1 -2 -2 -4.5t-2 -5.5q-2 -3 -3.5 -6.5t-3.5 -7.5q-2 -3 -4 -7t-3 -9q-2 -3 -3.5 -7t-3.5 -8
q-2 -3 -3 -6.5t-3 -6.5t-2.5 -5.5t-1.5 -4.5q-1 -3 -1 -4q1 1 2 3l5 10q1 3 2.5 6.5t3.5 6.5q6 9 7 16l4 8l4 8q3 7 5 13z" />
    <glyph glyph-name="ellipsis" unicode="&#x2026;" horiz-adv-x="577" 
d="M151 146q4 0 13 -8t18.5 -18t17 -20.5t7.5 -14.5q0 -5 -6 -18t-14 -27t-15.5 -25t-10.5 -11t-12.5 6t-19 14t-17.5 15.5t-8 11.5q0 3 5 18.5t12.5 32.5t15.5 30.5t14 13.5zM301 138q2 0 12 -6.5t21 -14.5t19.5 -16.5t8.5 -12.5q0 -3 -7 -18t-16 -31t-18 -29t-13 -13
q-3 0 -12.5 5t-19.5 12t-17.5 13.5t-7.5 9.5t6.5 19.5t15 34.5t17 32.5t11.5 14.5zM459 149q3 0 12 -8t18.5 -18t17.5 -19.5t8 -12.5q0 -4 -6 -18t-14.5 -29.5t-16.5 -28t-11 -12.5t-11.5 4.5t-18 10.5t-16.5 12t-7 10q0 3 4.5 20.5t11.5 37t15 35.5t14 16z" />
    <glyph glyph-name="perthousand" unicode="&#x2030;" horiz-adv-x="948" 
d="M141 502q-20 0 -39.5 13t-36 31.5t-26.5 40.5t-10 40q0 24 17 55.5t43 59.5t55.5 47t55.5 19q21 0 39.5 -14.5t32.5 -36t22 -46t8 -44.5q0 -28 -18 -57t-43.5 -53t-53 -39.5t-46.5 -15.5zM263 604q-6 -8 -11.5 -14.5l-10.5 -12.5q-2 -3 -3.5 -5t-3.5 -4l-3 -3l3 3
q2 2 4 3.5t5 4.5l11 11.5t12 14.5q2 4 5 7.5t5 7.5q2 2 2.5 3.5t1.5 3.5q1 3 3 7t2 6q1 2 1 5q0 1 0.5 1.5t0.5 1.5v1v-1q0 -1 -0.5 -1.5t-0.5 -1.5l-2 -4l-3 -6q-3 -6 -8 -13t-10 -15zM212 721q-17 0 -38.5 -17t-40.5 -40.5t-32 -46.5t-13 -35q0 -7 9 -8.5t22 -1.5
q16 0 37.5 13.5t41.5 33.5t34 42.5t14 39.5q0 7 -6 13.5t-28 6.5zM53 665q7 14 20 32q3 5 6 9l7 9q6 9 14 17l7.5 9t7.5 8q5 4 8.5 7.5t8.5 6.5q2 2 8 6q2 2 8 6q4 3 8 5t7 4q4 2 7.5 3t7.5 3q2 0 6 2q1 0 2 0.5t3 0.5t3.5 0.5t3.5 0.5t3 1h-3q-2 0 -3.5 -0.5t-3.5 -0.5
q-4 0 -6 -1q-2 0 -3 -0.5t-3 -0.5q-3 -2 -7 -2.5t-8 -2.5l-8 -4t-8 -5q-3 -1 -9 -5l-9 -6q-4 -3 -8 -6.5t-8 -8.5q-9 -7 -16 -16l-7.5 -9l-7.5 -9l-12 -18l-5.5 -9t-5.5 -8q-2 -5 -4 -9l-4 -8q-4 -10 -6 -14q-1 -4 -2 -7t-1 -5q-1 -3 -1 -8q-1 -1 -1 -2l1 2q0 2 2 8
q1 2 1.5 5t2.5 6t3.5 6.5t3.5 7.5zM608 739q0 -6 -12 -25.5t-33 -51l-49.5 -73l-61.5 -90.5l-25.5 -36.5l-45 -62.5l-58.5 -78.5l-64 -85.5l-62.5 -83l-55 -71l-40 -49.5t-18.5 -18.5q-6 0 -16.5 5.5t-21 13.5t-18 15.5t-7.5 12.5t9 18t25 32.5l36.5 46l43.5 58.5l34.5 50
l54.5 79l67 97l71.5 104l69 100.5l60 85.5l43 59t18.5 22q7 0 16.5 -9.5t18.5 -22t15 -24.5t6 -18zM366 512q3 5 5 9.5t4 7.5q2 4 4 6q-1 -2 -4 -6q-2 -3 -5 -7t-6 -9q-7 -13 -15 -23l-8 -13.5t-9 -13.5q-8 -14 -16.5 -26.5t-14.5 -23.5q-8 -12 -14 -23q2 2 5 6l4.5 7t6.5 9
t7.5 10.5t8.5 12.5l8 12.5t9 13.5l8 13.5l8 13.5l7.5 13zM351 508l17 26l13 20l11 18q-6 -7 -12 -17q-6 -8 -13.5 -20t-17.5 -26l-21 -30.5l-23 -33.5l-24.5 -36.5l-25.5 -38.5l-25.5 -37.5l-24.5 -36.5l-23 -33.5l-21 -30.5l-18 -25.5l-14 -19.5q-3 -5 -5 -8t-4 -5
q-2 -3 -3 -4q1 1 3 4q2 2 4.5 5t5.5 7l14.5 19.5l18.5 25.5l21.5 30l23.5 33l24.5 36.5l25.5 37.5l25.5 38.5l24.5 36.5l22.5 34.5t20.5 30.5zM523 323q21 0 39.5 -14.5t32.5 -36t22 -46t8 -44.5q0 -28 -18 -57t-43.5 -53t-53.5 -39.5t-47 -15.5t-39 12.5t-36 31.5t-26 41
t-10 40q0 24 17 55.5t42.5 59.5t55.5 47t56 19zM398 186q2 4 4 7.5t4 7.5t5 7.5t5 6.5q2 4 5 7t5 7q3 3 5.5 6t4.5 6q3 2 5.5 5t4.5 5q6 6 9 8q2 4 7 6l6 6q-1 0 -2 -1q-3 -3 -5 -4q-2 -2 -3.5 -3t-3.5 -3q-3 -2 -9 -8q-3 -2 -5.5 -4.5t-5.5 -4.5q-3 -4 -11 -12q-2 -4 -5 -7
t-5 -7q-3 -3 -5.5 -6.5t-4.5 -7.5q-5 -8 -8 -16q-4 -6 -7 -16q-2 -4 -2.5 -7.5t-2.5 -7.5q-2 -10 -2 -14q-1 -3 -1 -6.5v-5.5q1 -3 1 -5t1 -4q0 -2 0.5 -3.5t0.5 -2.5t1 -2q-1 1 -1 2t-0.5 2.5t-0.5 3.5v9q0 7 1 12q0 3 1 6.5t2 6.5q2 4 2.5 7.5t2.5 7.5t3.5 7.5zM441 87
q16 0 37.5 13.5t41.5 33.5t34 42.5t14 39.5q0 7 -6 13.5t-28 6.5q-17 0 -38.5 -17.5t-40.5 -40.5t-32 -46t-13 -35q0 -7 9.5 -8.5t21.5 -1.5zM853 323q21 0 39.5 -14.5t32.5 -36t22 -46t8 -44.5q0 -28 -18 -57t-43.5 -53t-53.5 -39.5t-47 -15.5t-39 12.5t-36 31.5t-26 41
t-10 40q0 24 17 55.5t42.5 59.5t55.5 47t56 19zM728 186q2 4 4 7.5t4 7.5t5 7.5t5 6.5q2 4 5 7t5 7q3 3 5.5 6t4.5 6q3 2 5.5 5t4.5 5q6 6 9 8q2 4 7 6l6 6q-1 0 -2 -1q-3 -3 -5 -4q-2 -2 -3.5 -3t-3.5 -3q-3 -2 -9 -8q-3 -2 -5.5 -4.5t-5.5 -4.5q-3 -4 -11 -12q-2 -4 -5 -7
t-5 -7q-3 -3 -5.5 -6.5t-4.5 -7.5q-5 -8 -8 -16q-4 -6 -7 -16q-2 -4 -2.5 -7.5t-2.5 -7.5q-2 -10 -2 -14q-1 -3 -1 -6.5v-5.5q1 -3 1 -5t1 -4q0 -2 0.5 -3.5t0.5 -2.5t1 -2q-1 1 -1 2t-0.5 2.5t-0.5 3.5v9q0 7 1 12q0 3 1 6.5t2 6.5q2 4 2.5 7.5t2.5 7.5t3.5 7.5zM771 87
q16 0 37.5 13.5t41.5 33.5t34 42.5t14 39.5q0 7 -6 13.5t-28 6.5q-17 0 -38.5 -17.5t-40.5 -40.5t-32 -46t-13 -35q0 -7 9.5 -8.5t21.5 -1.5z" />
    <glyph glyph-name="guilsinglleft" unicode="&#x2039;" horiz-adv-x="413" 
d="M331 421q0 -4 -7.5 -12t-20.5 -19l-29 -24l-32 -25q-39 -30 -88 -64l62 -52l23 -20l19.5 -18l14 -13.5t5.5 -7.5q0 -4 -6.5 -12.5t-14.5 -17t-15.5 -15t-9.5 -6.5q-1 0 -15.5 9.5l-35 24l-44.5 31.5l-44 32l-33.5 25t-13.5 11q0 2 4 8q2 3 5 6l-9 16q-3 6 -5.5 12t-2.5 8
q0 1 14 11l36.5 26l50.5 35.5l56.5 41l55 43t44.5 39.5q2 2 8 -6.5t12 -21t11 -25.5t5 -20zM285 385q5 4 8.5 7.5l5.5 5.5l5 5q-2 -1 -6 -4q-3 -2 -7 -5l-9 -7l-10 -8t-12 -8q-5 -5 -11 -10t-13 -9l-12 -10.5t-13 -10.5q-5 -3 -10.5 -7l-10.5 -8q-9 -8 -15 -12q-4 -3 -6 -5
q2 1 6 4q3 2 7.5 4.5l9.5 5.5t11 7t11 9q6 5 12.5 9.5t12.5 9.5q7 5 12.5 9.5t12.5 9.5q10 10 21 18z" />
    <glyph glyph-name="caron" unicode="&#x2c7;" horiz-adv-x="540" 
d="M138 718q-11 10 -22 21.5l-20 21t-15 17.5t-6 12t5 7t12.5 4.5t15.5 2t14 0.5q14 0 34 -15t38 -32q21 -21 44 -47q36 24 66 42l47.5 29.5t25.5 13.5q3 0 11.5 -8t18 -19t16.5 -21.5t7 -16.5q0 -2 -11.5 -9.5t-27.5 -16.5l-33.5 -18.5l-29.5 -16.5l-25 -17l-24.5 -17
l-19.5 -13.5t-11 -5.5q-6 0 -11.5 9t-11.5 9q-7 0 -16.5 -1.5t-13.5 1.5q-2 2 -7 11l-12.5 22t-17 26.5t-20.5 24.5zM117 754q-3 2 -4.5 4t-3.5 4t-2 3q1 -1 2 -3q2 -4 7 -8l21 -24q7 -7 12 -12.5l10 -10.5q2 -3 3.5 -5t3.5 -4l3 -3q-1 1 -2 3t-2.5 4.5t-3.5 5.5
q-5 5 -10 11.5t-11 12.5l-12.5 13t-10.5 9z" />
    </font>
</defs>
</svg>
